<?xml version="1.0" standalone="no"?><!DOCTYPE svg PUBLIC "-//W3C//DTD SVG 1.1//EN" "http://www.w3.org/Graphics/SVG/1.1/DTD/svg11.dtd" ><svg xmlns="http://www.w3.org/2000/svg"><metadata></metadata><defs><font id="fonteditor" horiz-adv-x="512"><font-face font-family="" font-weight="400" font-stretch="normal" units-per-em="512" panose-1="2 1 6 4 0 1 1 1 1 1" ascent="409" descent="-102" x-height="1" bbox="9 -80 499 383" underline-thickness="25" underline-position="-76" unicode-range="U+0041-ff1f" /><missing-glyph horiz-adv-x="512" d="M254 279 l-120 -262 l-125 263 l245 -1 Z" /><glyph glyph-name="" unicode="a" d="M190 96 q-24 0 -31 1 q-7 1 -11.5 5 q-4.5 4 -6 9.5 q-1.5 5.5 4.5 18.5 q3 7 9.5 25 q6.5 18 10.5 26 q4 8 9 15 q5 7 9 7.5 q4 0.5 11 -6.5 q5 -7 12 -21 q7 -14 11 -24 l9 -25 q3 -10 3 -14 q-2 -7 -10 -12 q-8 -5 -13 -5.5 q-5 -0.5 -17 0.5 ZM185 30 q-21 -1 -30.5 -4 q-9.5 -3 -14.5 -7 q-5 -4 -18 -19 q-13 -15 -25 -22.5 q-12 -7.5 -27 -8.5 q-14 -2 -25.5 3.5 q-11.5 5.5 -20 15.5 q-8.5 10 -10.5 24 q-2 14 5 44 q8 30 18 58 q10 28 25 63 q15 35 31 67 q16 32 25.5 46.5 q9.5 14.5 19.5 24.5 q10 10 20.5 15.5 q10.5 5.5 23.5 6.5 q14 0 27.5 -8 q13.5 -8 25.5 -20.5 q12 -12.5 26.5 -36 q14.5 -23.5 24.5 -44.5 l18 -41 l26 -56 q8 -20 15.5 -46.5 q7.5 -26.5 12 -46.5 q4.5 -20 -0.5 -36 q-6 -17 -18 -23.5 q-12 -6.5 -22 -7.5 q-16 -2 -29.5 2 q-13.5 4 -22 10.5 q-8.5 6.5 -19.5 20.5 q-11 14 -17.5 18.5 q-6.5 4.5 -18.5 6 q-12 1.5 -25 1.5 ZM328 19 q1 5 -1 22 q-2 17 -19.5 63.5 q-17.5 46.5 -23.5 60 q-6 13.5 -24 49.5 q-18 36 -29 53.5 q-11 17.5 -24 27.5 q-13 10 -25 10 q-11 -1 -19.5 -8 q-8.5 -7 -19.5 -23 q-11 -16 -24.5 -40.5 q-13.5 -24.5 -26.5 -54 q-13 -29.5 -19.5 -49 q-6.5 -19.5 -14.5 -44 q-8 -24.5 -10.5 -36.5 q-2.5 -12 -1.5 -21 q0 -11 6 -19.5 q6 -8.5 17 -9.5 q9 -1 22 4.5 q13 5.5 23 19.5 l14 19 q4 4 10.5 7.5 q6.5 3.5 16.5 5 q10 1.5 29 2.5 q23 1 32.5 -1 q9.5 -2 16 -5.5 q6.5 -3.5 9.5 -6.5 q3 -3 11 -13 q8 -10 18 -19.5 q10 -9.5 21 -13 q11 -3.5 21.5 1 q10.5 4.5 14.5 18.5 Z" /><glyph glyph-name="" unicode="h" d="M346 162 q-1 -59 -2 -77.5 q-1 -18.5 -3.5 -41 q-2.5 -22.5 -6.5 -35 q-4 -12.5 -11 -21.5 q-7 -9 -16 -13.5 q-9 -4.5 -22 -3.5 q-21 1 -34.5 11 q-13.5 10 -20 21.5 q-6.5 11.5 -7.5 33.5 l-1 34 q-2 15 -8.5 21.5 q-6.5 6.5 -20 8.5 q-13.5 2 -22.5 1 q-14 -3 -19.5 -8.5 q-5.5 -5.5 -9.5 -18 q-4 -12.5 -6 -36.5 q-2 -24 -6 -33.5 q-4 -9.5 -16 -20.5 q-12 -11 -26 -14 q-16 -4 -30.5 0.5 q-14.5 4.5 -24 14 q-9.5 9.5 -13 25 q-3.5 15.5 -4.5 44.5 l-3 50 q-1 29 0 80 q1 59 6.5 87.5 q5.5 28.5 14 40 q8.5 11.5 23 17.5 q14.5 6 32.5 4 q15 -3 25.5 -12.5 q10.5 -9.5 17.5 -27 q7 -17.5 7.5 -43.5 q0.5 -26 5.5 -31 q5 -5 21.5 -7.5 q16.5 -2.5 30.5 0.5 q15 2 18.5 7.5 q3.5 5.5 4.5 23 q1 17.5 6.5 42 q5.5 24.5 16.5 37.5 q11 13 33.5 13.5 q22.5 0.5 38.5 -11.5 q13 -12 19 -29 q6 -17 8.5 -42 q2.5 -25 3 -38.5 q0.5 -13.5 0.5 -52.5 ZM173 128 q32 1 46.5 -3.5 q14.5 -4.5 20 -12.5 q5.5 -8 6.5 -18 q1 -10 3 -41 q2 -31 10 -41.5 q8 -10.5 20.5 -11.5 q12.5 -1 22.5 9 q5 6 8 23 q3 17 4.5 38 q1.5 21 3 51 q1.5 30 1.5 49 l-3 60 q-2 30 -4 44 q-2 14 -9.5 22.5 q-7.5 8.5 -20.5 10 q-13 1.5 -23 -9.5 q-6 -7 -9.5 -18 q-3.5 -11 -3 -33.5 q0.5 -22.5 -0.5 -30.5 q-2 -11 -6.5 -16.5 q-4.5 -5.5 -12.5 -8.5 q-8 -3 -18 -4 l-32 -1 q-29 -2 -37.5 1.5 q-8.5 3.5 -14 10 q-5.5 6.5 -9 18.5 q-3.5 12 -4 32.5 q-0.5 20.5 -3 32 q-2.5 11.5 -9.5 17 q-7 5.5 -16 7.5 q-9 1 -15 -1.5 q-6 -2.5 -13.5 -11 q-7.5 -8.5 -11 -26 q-3.5 -17.5 -5.5 -50.5 q-2 -33 -2.5 -50.5 q-0.5 -17.5 1.5 -56.5 q0 -24 0.5 -52.5 q0.5 -28.5 7.5 -40.5 q7 -12 17.5 -16 q10.5 -4 20.5 -1 q10 2 17 10 q7 8 8.5 18 q1.5 10 3.5 33 q2 23 5.5 35 q3.5 12 9 18.5 q5.5 6.5 13.5 10.5 q8 4 32 5 Z" /><glyph glyph-name="" unicode="p" d="M152 175 q-19 0 -26 4.5 q-7 4.5 -11.5 12.5 q-4.5 8 -3.5 19 q0 10 5.5 17.5 q5.5 7.5 14.5 11.5 q9 4 25.5 4.5 q16.5 0.5 25.5 1.5 q16 0 28.5 -1.5 q12.5 -1.5 23 -4 q10.5 -2.5 17 -8.5 q6.5 -6 7 -19 q0.5 -13 -4.5 -20 q-4 -6 -11 -10 q-7 -4 -20.5 -7 q-13.5 -3 -28 -2.5 q-14.5 0.5 -41.5 1.5 ZM177 333 q29 0 57.5 -2.5 q28.5 -2.5 49.5 -9.5 q21 -7 31 -14.5 q10 -7.5 16.5 -20 q6.5 -12.5 11.5 -25 q5 -12.5 7 -23.5 q2 -11 2 -34 q-1 -25 -3.5 -37.5 q-2.5 -12.5 -9.5 -28 q-7 -15.5 -16 -25.5 q-9 -10 -23 -17.5 q-14 -7.5 -28.5 -11 q-14.5 -3.5 -43.5 -3 q-29 0.5 -47 1.5 q-18 1 -23 1 q-12 -2 -16 -7.5 q-4 -5.5 -6.5 -27.5 q-2.5 -22 -4 -30.5 q-1.5 -8.5 -7 -20 q-5.5 -11.5 -15.5 -19 q-10 -7.5 -33 -6.5 q-13 0 -23 3 q-10 3 -18.5 11 q-8.5 8 -12 20 q-3.5 12 -5.5 36 l-5 50 q-1 19 0 74 q1 59 2.5 76.5 q1.5 17.5 4.5 30 q3 12.5 11 24.5 q8 12 24 19.5 q16 7.5 47.5 11 q31.5 3.5 75.5 4.5 ZM323 199 q-1 7 -1.5 19 q-0.5 12 -2 17.5 q-1.5 5.5 -6.5 18 q-5 12.5 -14.5 26 q-9.5 13.5 -27.5 17.5 q-18 4 -63 6.5 q-45 2.5 -47 2.5 q-3 -1 -33 -4 q-30 -3 -43.5 -7 q-13.5 -4 -24.5 -15.5 q-11 -11.5 -15.5 -26.5 q-4.5 -15 -5.5 -47 l-3 -54 q-1 -21 1 -44 l4 -55 q0 -19 3.5 -30 q3.5 -11 14 -17.5 q10.5 -6.5 21.5 -5.5 q7 0 13.5 5.5 q6.5 5.5 11 14.5 q4.5 9 5 34.5 q0.5 25.5 2 32 q1.5 6.5 10 14 q8.5 7.5 31.5 10.5 l67 0 q21 0 38.5 2 q17.5 2 24.5 5.5 q7 3.5 14 10.5 q7 7 14 19.5 q7 12.5 9.5 24.5 q2.5 12 2.5 26 Z" /><glyph glyph-name="" unicode="s" d="M167 113 q-33 4 -43 6 q-10 2 -26 7.5 q-16 5.5 -30.5 14.5 q-14.5 9 -29 28 q-14.5 19 -15.5 50.5 q-1 31.5 10 53.5 q4 8 12 18.5 q8 10.5 16 16 q8 5.5 20 12 q12 6.5 23 9.5 q11 3 34 5.5 q23 2.5 34 3.5 q16 0 39.5 -3.5 q23.5 -3.5 43.5 -10.5 q20 -7 38 -17 q18 -10 27 -24 q9 -14 8 -30 q-2 -14 -10.5 -24 q-8.5 -10 -24 -14 q-15.5 -4 -36.5 1 q-10 1 -31.5 7.5 q-21.5 6.5 -31.5 8 q-10 1.5 -23 1.5 q-17 -1 -21 -5 q-4 -4 -4.5 -7.5 q-0.5 -3.5 3.5 -6.5 q3 -5 24.5 -8 q21.5 -3 46 -7 q24.5 -4 34.5 -7 l5 -2 q29 -12 38 -17 q9 -5 24 -27.5 q15 -22.5 15.5 -57.5 q0.5 -35 -18.5 -63 q-17 -24 -37.5 -35 q-20.5 -11 -32.5 -14.5 q-12 -3.5 -29.5 -5.5 q-17.5 -2 -32.5 -2 q-17 -1 -34.5 0.5 q-17.5 1.5 -38 5.5 q-20.5 4 -36.5 10.5 q-16 6.5 -30 16 q-14 9.5 -24 25 q-10 15.5 -11 38 q-1 22.5 8.5 33 q9.5 10.5 26.5 12.5 q14 1 27.5 -3.5 q13.5 -4.5 35.5 -14.5 q22 -10 33 -13 q11 -3 36 -4.5 q25 -1.5 30.5 5 q5.5 6.5 6 11.5 q0.5 5 -1.5 9 q-4 5 -20 8.5 q-16 3.5 -27 5.5 ZM91 5 q4 -2 19 -6.5 q15 -4.5 27.5 -6 q12.5 -1.5 30 -2 q17.5 -0.5 25.5 0.5 q16 0 33 3.5 q17 3.5 35 11 q18 7.5 35.5 30 q17.5 22.5 17.5 56.5 q-1 31 -15.5 48 q-14.5 17 -29.5 24 q-15 7 -27 10.5 q-12 3.5 -28 6.5 l-58 9 q-22 4 -28.5 12 q-6.5 8 -4.5 21 q0 11 8.5 20 q8.5 9 37.5 11 q16 0 29 -1.5 q13 -1.5 34 -8.5 q21 -7 27.5 -8.5 q6.5 -1.5 14.5 -1.5 q9 -1 16.5 2 q7.5 3 12.5 11.5 q5 8.5 -7 25.5 q-6 7 -15 13 q-9 6 -21 11.5 q-12 5.5 -25.5 9 q-13.5 3.5 -33.5 6 q-20 2.5 -37 2.5 q-20 -1 -33 -3 q-13 -2 -23 -6 q-10 -4 -21.5 -11 q-11.5 -7 -21.5 -17 q-10 -10 -15.5 -24.5 q-5.5 -14.5 -4.5 -29.5 q0 -24 9.5 -39 q9.5 -15 17.5 -21.5 q8 -6.5 16 -10.5 q8 -4 19 -8 q11 -4 21 -7 q10 -3 29 -5 l40 -4 q33 -4 41 -17.5 q8 -13.5 1 -29.5 q-5 -11 -19 -20 q-14 -9 -40 -9 q-14 -1 -26 1.5 q-12 2.5 -24.5 7 q-12.5 4.5 -27.5 12.5 q-15 8 -23.5 12 q-8.5 4 -19 3 q-10.5 -1 -17 -7.5 q-6.5 -6.5 -4.5 -21.5 q1 -12 10 -24 q9 -12 20 -19.5 q11 -7.5 23 -11.5 Z" /><glyph glyph-name="" unicode="a" d="M108 58 q-3 8 1.5 15 q4.5 7 20 13 q15.5 6 25.5 8 q10 2 21 1 q4 -1 6.5 -3 q2.5 -2 2.5 -15 l0 -6 q-1 -4 -1.5 -5.5 q-0.5 -1.5 -3.5 -4.5 q-3 -3 -10.5 -6.5 q-7.5 -3.5 -19.5 -7 q-12 -3.5 -22 -2.5 q-10 0 -14.5 4 q-4.5 4 -5.5 9 ZM79 233 q4 1 20 5 q16 4 28.5 5 q12.5 1 33.5 1 q16 -1 26 -2.5 q10 -1.5 28 -8 q18 -6.5 29 -17.5 q11 -11 16 -23 q5 -12 6.5 -25 q1.5 -13 1.5 -28 l-1 -38 l0 -26 q-1 -16 2 -20.5 q3 -4.5 7 -5.5 q5 -3 12.5 2 q7.5 5 10.5 4.5 q3 -0.5 3.5 -14.5 q0.5 -14 -5.5 -27 q-4 -8 -11.5 -19 q-7.5 -11 -20.5 -17.5 q-13 -6.5 -26 -5.5 q-14 0 -25.5 5.5 q-11.5 5.5 -13.5 6.5 q-5 0 -22 -6 q-17 -6 -41 -8 q-24 -2 -27 -2 q-29 -1 -47 6.5 q-18 7.5 -34 24 q-16 16.5 -16 42.5 q0 26 8 46 q4 10 10 16 l15 16 q0 1 0.5 3 q0.5 2 -1.5 5 q-1 0 -9.5 6 q-8.5 6 -13 15.5 q-4.5 9.5 -5 20.5 q-0.5 11 7.5 23 q4 7 12.5 14.5 q8.5 7.5 21.5 15 q13 7.5 20 10.5 ZM156 -4 l7 2 q20 4 28.5 7.5 q8.5 3.5 12.5 3.5 l18 -11 q7 -6 19 -5 q11 0 20 5 q9 5 13.5 11 q4.5 6 6 12.5 q1.5 6.5 0.5 9.5 q-2 2 -9 2 l-10 -1 q-6 0 -10 5 q-4 5 -5 17 q-1 12 -1 35 q-1 24 -0.5 41 q0.5 17 0.5 25 q-3 30 -12 39 q-9 9 -16.5 13 q-7.5 4 -13.5 7 q-6 3 -13 4.5 q-7 1.5 -24.5 3 q-17.5 1.5 -23.5 1.5 q-5 -1 -21 -3.5 q-16 -2.5 -32 -5.5 q-16 -3 -31.5 -17.5 q-15.5 -14.5 -16 -27 q-0.5 -12.5 8 -23.5 q8.5 -11 22.5 -12 q8 -1 14.5 2.5 q6.5 3.5 10.5 11.5 l4 13 q2 7 8.5 12.5 q6.5 5.5 22.5 7.5 q9 0 21 -2 q12 -2 19 -7 q7 -5 7.5 -12.5 q0.5 -7.5 -4.5 -14.5 q-2 -2 -30 -7.5 q-28 -5.5 -48 -14.5 q-20 -9 -31 -17 q-11 -8 -21 -20.5 q-10 -12.5 -10.5 -36 q-0.5 -23.5 19 -42 q19.5 -18.5 60.5 -16.5 q5 0 19 1.5 q14 1.5 22 3.5 Z" /><glyph glyph-name="" unicode="e" d="M154 170 q6 0 16 -4 q10 -4 19 -12.5 q9 -8.5 7.5 -13.5 q-1.5 -5 -14 -9 q-12.5 -4 -33.5 -3 q-15 0 -25.5 4 q-10.5 4 -11 9 q-0.5 5 6.5 12 q8 8 19 12 q11 4 16 5 ZM13 108 q0 22 3 34.5 q3 12.5 8 22.5 q5 10 10.5 18.5 q5.5 8.5 11.5 15.5 q6 7 19 16.5 q13 9.5 25 15.5 q12 6 28.5 9.5 q16.5 3.5 32.5 3.5 q21 -1 42.5 -7.5 q21.5 -6.5 34.5 -14.5 q13 -8 27.5 -22 q14.5 -14 25 -34.5 q10.5 -20.5 10.5 -49.5 q-1 -16 -4.5 -22 q-3.5 -6 -10 -12 q-6.5 -6 -7.5 -8 q-1 -2 0 -6 l6 -13 q2 -7 -1 -18 q-5 -15 -12 -26 q-7 -11 -21 -21 q-14 -10 -36 -16.5 q-22 -6.5 -54 -5.5 q-25 0 -38.5 3 q-13.5 3 -28 10 q-14.5 7 -22.5 12 q-8 5 -18 16.5 q-10 11.5 -16 21.5 q-6 10 -9 22 q-3 12 -4.5 22.5 q-1.5 10.5 -1.5 32.5 ZM217 81 q-9 -1 -15.5 -5 q-6.5 -4 -8.5 -11 l-2 -15 q-3 -9 -10 -14 q-7 -5 -28 -2 q-23 2 -32 6 q-9 4 -15.5 11 q-6.5 7 -10 16.5 q-3.5 9.5 -0.5 15.5 q3 6 10 8.5 q7 2.5 27 0.5 q20 -2 21 -2 q13 -1 45.5 0.5 q32.5 1.5 45 7.5 q12.5 6 18.5 15.5 q6 9.5 3 25.5 q-2 8 -10.5 21.5 q-8.5 13.5 -18.5 23.5 q-10 10 -19.5 16 q-9.5 6 -25.5 11 q-16 5 -36 6 q-8 0 -23 -2 q-15 -2 -31.5 -8.5 q-16.5 -6.5 -33.5 -22 q-17 -15.5 -22.5 -34.5 q-5.5 -19 -6.5 -35 q-1 -16 0 -27 q0 -8 2 -17 q2 -9 9.5 -24.5 q7.5 -15.5 16 -23 q8.5 -7.5 26 -16 q17.5 -8.5 29.5 -11 q12 -2.5 32 -1.5 q38 0 56.5 8 q18.5 8 28.5 23 q10 15 10.5 27 q0.5 12 -2.5 17 q-3 4 -11 7.5 q-8 3.5 -18 3.5 Z" /><glyph glyph-name="" unicode="o" d="M106 105 q-1 9 2.5 19 q3.5 10 15 21.5 q11.5 11.5 34.5 11.5 q13 -1 21.5 -5.5 q8.5 -4.5 14.5 -11 q6 -6.5 9 -15 q3 -8.5 2.5 -26.5 q-0.5 -18 -15 -32.5 q-14.5 -14.5 -34.5 -13.5 q-20 0 -31.5 10.5 q-11.5 10.5 -15 20 q-3.5 9.5 -3.5 21.5 ZM71 218 q12 8 26 13.5 q14 5.5 26.5 8 q12.5 2.5 22.5 3.5 q10 1 25 0 q25 -3 47.5 -12 q22.5 -9 35.5 -22 q13 -13 20.5 -24 q7.5 -11 13 -23.5 q5.5 -12.5 8.5 -27 q3 -14.5 3 -30.5 q-1 -15 -4 -30.5 q-3 -15.5 -11.5 -32.5 q-8.5 -17 -23.5 -32 q-15 -15 -38 -26 q-23 -11 -44.5 -13.5 q-21.5 -2.5 -33.5 -1.5 q-9 0 -19 2.5 q-10 2.5 -19 5.5 q-9 3 -24 10.5 q-15 7.5 -26.5 18 q-11.5 10.5 -17 19 q-5.5 8.5 -11 19.5 q-5.5 11 -9.5 26 q-4 15 -4 32.5 q0 17.5 4 38.5 q2 12 6.5 22 q4.5 10 13.5 23 q9 13 15 19 q6 6 18 14 ZM164 -3 q17 1 31 5.5 q14 4.5 25 12 q11 7.5 21 17.5 q10 10 17 26.5 q7 16.5 8.5 28 q1.5 11.5 1.5 25.5 q-1 13 -4 25.5 q-3 12.5 -9.5 24.5 q-6.5 12 -18 24 q-11.5 12 -25 18.5 q-13.5 6.5 -18.5 8 q-5 1.5 -20 3 q-15 1.5 -15 2.5 q-23 2 -47.5 -8.5 q-24.5 -10.5 -38 -24.5 q-13.5 -14 -22 -33 q-8.5 -19 -10 -34 q-1.5 -15 3.5 -35 q3 -18 10.5 -33 q7.5 -15 20 -26 q12.5 -11 29 -18.5 q16.5 -7.5 34 -8.5 q17.5 -1 26.5 0 Z" /><glyph glyph-name="" unicode="r" d="M120 17 q-2 -17 -7.5 -27.5 q-5.5 -10.5 -15.5 -17.5 q-10 -7 -29.5 -7.5 q-19.5 -0.5 -33.5 15.5 q-10 10 -14.5 29.5 q-4.5 19.5 -5.5 32 q-1 12.5 -1 60.5 q0 48 0 60 q1 23 7 41.5 q6 18.5 17.5 29.5 q11.5 11 26.5 12 q7 0 18 -3 q11 -3 16 -6 l17 -15 q2 -1 15 10 q7 5 18.5 9 q11.5 4 25.5 3 q10 -1 19 -5.5 q9 -4.5 17.5 -14 q8.5 -9.5 11 -23.5 q2.5 -14 0.5 -26 q-2 -10 -7.5 -20 q-5.5 -10 -13.5 -15.5 q-8 -5.5 -24 -6.5 q-13 -1 -20 3 l-11 6 q-7 1 -13 -4 q-6 -5 -7 -13 q-1 -8 -1.5 -25.5 q-0.5 -17.5 -1.5 -39.5 l-3 -42 l0 0 ZM73 -11 q9 -1 16 5.5 q7 6.5 11 22 q4 15.5 5 36.5 l-1 36 q-1 17 2 35 q1 12 4.5 19 q3.5 7 9 12 q5.5 5 11.5 6.5 q6 1.5 11 -0.5 l8 -6 q8 -6 20 -4 q9 1 15.5 7 q6.5 6 11.5 17.5 q5 11.5 -2 27.5 q-6 10 -16 15.5 q-10 5.5 -22 4.5 q-13 -2 -22 -8 q-9 -6 -18 -13.5 q-9 -7.5 -13 -6.5 q-5 0 -11 7.5 q-6 7.5 -12.5 12 q-6.5 4.5 -16.5 2.5 q-10 -2 -17.5 -11.5 q-7.5 -9.5 -10 -37.5 q-2.5 -28 -3 -50 q-0.5 -22 1.5 -54 q1 -23 4.5 -40.5 q3.5 -17.5 14 -26 q10.5 -8.5 19.5 -8.5 Z" /><glyph glyph-name="" unicode="s" d="M130 -30 q-17 0 -28 2 q-11 2 -23.5 6 q-12.5 4 -22 8.5 q-9.5 4.5 -15 9 q-5.5 4.5 -12 11 q-6.5 6.5 -10 12.5 q-3.5 6 -5 11.5 q-1.5 5.5 -1.5 15.5 q0 10 4 20 q3 7 11.5 13 q8.5 6 10 8.5 q1.5 2.5 1.5 6.5 q-1 1 -9 12.5 q-8 11.5 -11 22 q-3 10.5 -2 22.5 q0 28 13.5 46 q13.5 18 24 24.5 q10.5 6.5 21 10 q10.5 3.5 22.5 6.5 q12 3 27.5 4.5 q15.5 1.5 28.5 1.5 q22 -1 40 -6.5 q18 -5.5 31 -13.5 q13 -8 22 -19.5 q9 -11.5 10 -26.5 q1 -15 -11 -27 l-8 -8 q-2 -3 -2.5 -5.5 q-0.5 -2.5 9.5 -10.5 q9 -9 17 -22 q8 -13 8 -38 q-1 -13 -5.5 -29 q-4.5 -16 -16 -30 q-11.5 -14 -27 -21.5 q-15.5 -7.5 -21 -9 q-5.5 -1.5 -25.5 -4.5 l-12 -2 q-14 -2 -34 -1 ZM154 -6 q17 1 27.5 3 q10.5 2 23.5 7 q13 5 27.5 21 q14.5 16 14.5 43 q-1 23 -14 36.5 q-13 13.5 -26.5 18.5 q-13.5 5 -23 6.5 q-9.5 1.5 -32.5 3.5 l-16 1 q-12 0 -16 3 q-4 3 -4.5 4.5 q-0.5 1.5 1.5 9.5 q0 4 1 5 q1 1 6.5 2.5 q5.5 1.5 13.5 1.5 q13 -1 23 -4 q10 -3 22 -8.5 q12 -5.5 19 -4.5 q7 0 14.5 7 q7.5 7 10.5 14 q3 7 3 13 q-1 6 -7 13.5 q-6 7.5 -15.5 13 q-9.5 5.5 -20 8.5 q-10.5 3 -21 4.5 q-10.5 1.5 -20.5 1.5 q-15 -1 -31 -3 q-16 -2 -30 -8 q-14 -6 -27 -20 q-13 -14 -13.5 -39.5 q-0.5 -25.5 12.5 -37.5 q6 -7 18 -11 q12 -4 20 -5.5 q8 -1.5 32 -4 q24 -2.5 34 -3.5 q10 -1 13 -6 q3 -5 2 -12 q-1 -3 -3.5 -7 q-2.5 -4 -11.5 -6 q-9 -2 -21 0 q-15 1 -24.5 5 q-9.5 4 -22 11.5 q-12.5 7.5 -17.5 8.5 q-8 0 -16 -5 q-8 -5 -13 -13.5 q-5 -8.5 -4 -17.5 q0 -8 5 -15.5 q5 -7.5 11 -12.5 q6 -5 14 -9.5 q8 -4.5 18.5 -7.5 q10.5 -3 21 -4.5 q10.5 -1.5 19 -2 q8.5 -0.5 23.5 1.5 Z" /><glyph glyph-name="" unicode="y" d="M90 -36 q-17 0 -28 3 q-11 3 -17 8 q-6 5 -9.5 16 q-3.5 11 -4 26 q-0.5 15 5.5 25 q5 9 15 13 l11 3 q8 2 8.5 5.5 q0.5 3.5 -3.5 10.5 q-4 4 -9 15 l-18 32 q-15 26 -21 46 q-6 20 -6 38 q0 18 7 28 q6 8 17.5 11.5 q11.5 3.5 25.5 1.5 q13 -3 24.5 -11.5 q11.5 -8.5 17 -16.5 q5.5 -8 14 -23.5 q8.5 -15.5 14.5 -24 q6 -8.5 10 -7.5 q3 0 6.5 6.5 q3.5 6.5 10 22 q6.5 15.5 14.5 27.5 q8 12 17 19 q9 7 25 11.5 q16 4.5 29 -3 q13 -7.5 16.5 -20 q3.5 -12.5 1.5 -28.5 q-3 -17 -8 -33.5 q-5 -16.5 -15 -40.5 q-10 -24 -21.5 -46.5 q-11.5 -22.5 -28 -48 q-16.5 -25.5 -27.5 -37 q-11 -11.5 -25 -18.5 q-14 -7 -26 -9 q-12 -2 -23 -1 ZM76 218 q-6 3 -16 4.5 q-10 1.5 -17 -3 q-7 -4.5 -8.5 -13.5 q-1.5 -9 1.5 -19 q3 -16 9.5 -31 q6.5 -15 20 -37.5 q13.5 -22.5 24 -37.5 q10.5 -15 9.5 -21 q-2 -8 -8 -11 l-16 -3 q-7 -2 -13 -7.5 q-6 -5.5 -8.5 -19 q-2.5 -13.5 3.5 -21.5 q6 -8 17 -11 q11 -3 27 0 q14 2 25 7 q11 5 24.5 18 q13.5 13 25 29 q11.5 16 27.5 47 q16 31 26.5 55.5 q10.5 24.5 13.5 40.5 q3 16 1 26.5 q-2 10.5 -11 15.5 q-9 5 -23 -2 q-9 -5 -16.5 -13.5 q-7.5 -8.5 -15 -23 q-7.5 -14.5 -13 -29.5 q-5.5 -15 -11.5 -24.5 q-6 -9.5 -12 -8.5 q-6 0 -16.5 17.5 q-10.5 17.5 -19.5 35.5 q-9 18 -16 26.5 q-7 8.5 -14 13.5 Z" /><glyph glyph-name="" unicode="&#x201c;" d="M351 381 q8 2 14 1 q6 -1 9 -5 q3 -4 4 -10 q0 -2 -0.5 -6 q-0.5 -4 1 -5 q1.5 -1 7.5 3 q1 1 7.5 7.5 q6.5 6.5 12.5 9.5 q6 3 14 5 q8 1 14 -1 q6 -2 9 -6.5 q3 -4.5 3 -9.5 l-3 -13 q-2 -7 0 -13 q0 -3 1.5 -5.5 q1.5 -2.5 6 -8 q4.5 -5.5 8 -11 q3.5 -5.5 6.5 -13.5 q3 -8 3.5 -18 q0.5 -10 -3.5 -20 q-5 -11 -13.5 -19.5 q-8.5 -8.5 -16 -12.5 q-7.5 -4 -14.5 -5.5 q-7 -1.5 -14 -0.5 q-5 0 -9 2 l-19 7 q-4 0 -8 -1 l-15 -5 q-6 -2 -13 -2 q-14 -1 -24.5 2.5 q-10.5 3.5 -18 10.5 q-7.5 7 -10.5 15 q-3 8 -4 16 q-1 8 -1 16 q0 12 6 27.5 q6 15.5 13 25.5 q7 10 18.5 22.5 q11.5 12.5 16.5 15.5 q5 3 12 5 ZM383 328 q-2 -3 -1.5 -5.5 q0.5 -2.5 9.5 -11.5 q9 -9 9 -28 q-1 -6 -1.5 -9.5 q-0.5 -3.5 -4.5 -11.5 q-4 -8 -4.5 -9.5 q-0.5 -1.5 3 -5.5 q3.5 -4 14.5 -3 q18 0 29 11.5 q11 11.5 11.5 25 q0.5 13.5 -5.5 23.5 q-4 5 -8 9 l-10 7 q-3 3 -3.5 6.5 q-0.5 3.5 2.5 10.5 q3 7 3.5 12 q0.5 5 -3.5 8 q-4 3 -8 3 q-4 -1 -10 -6 q-6 -5 -14 -15 q-8 -10 -8 -11 ZM305 284 q-1 -7 1.5 -15 q2.5 -8 12 -17.5 q9.5 -9.5 24.5 -10 q15 -0.5 26 11.5 q11 12 11.5 24.5 q0.5 12.5 -2.5 19.5 q-3 4 -8.5 9 q-5.5 5 -9 8.5 q-3.5 3.5 -5 5.5 q-1.5 2 -0.5 9 q0 6 4 14 q4 8 4.5 11 q0.5 3 -4 7.5 q-4.5 4.5 -12.5 -0.5 q-2 -1 -6 -6 l-8 -8 q-6 -6 -11.5 -15.5 q-5.5 -9.5 -9.5 -19 q-4 -9.5 -5.5 -17 q-1.5 -7.5 -1.5 -11.5 Z" /><glyph glyph-name="" unicode="&#x201d;" d="M162 225 q-8 -3 -14.5 -1.5 q-6.5 1.5 -9.5 5 q-3 3.5 -3 10.5 l0 5 q-1 4 -2.5 4.5 q-1.5 0.5 -5.5 -1.5 q-3 -2 -9 -8 q-6 -6 -12.5 -9.5 q-6.5 -3.5 -13.5 -4.5 q-9 -2 -14.5 0 q-5.5 2 -8.5 6.5 q-3 4.5 -2 11.5 l3 12 q1 6 0 13 q-1 3 -2.5 6 q-1.5 3 -7.5 9.5 q-6 6.5 -8.5 10 q-2.5 3.5 -5 11 q-2.5 7.5 -2.5 19 q0 11.5 3 20.5 q4 11 12.5 18.5 q8.5 7.5 16.5 12 q8 4.5 14 6 q6 1.5 15 1.5 q5 -1 10 -2 l18 -7 q3 -1 9 1 l14 5 q6 2 13 3 q12 1 23 -3.5 q11 -4.5 19 -12 q8 -7.5 11 -14.5 q3 -7 4.5 -15 q1.5 -8 1.5 -15 q-1 -15 -6 -27 q-5 -12 -16 -28.5 q-11 -16.5 -18.5 -24 q-7.5 -7.5 -15 -12 q-7.5 -4.5 -10.5 -5.5 ZM129 279 q1 3 1.5 4.5 q0.5 1.5 -9 11 q-9.5 9.5 -8.5 29.5 q0 5 1 8 l8 18 q0 1 0 3 q-1 2 -2.5 5.5 q-1.5 3.5 -17.5 3 q-16 -0.5 -27 -12 q-11 -11.5 -10 -26.5 q0 -10 4.5 -19 q4.5 -9 9.5 -11 l9 -6 q2 -3 2.5 -7 q0.5 -4 -2 -11 q-2.5 -7 -3 -13 q-0.5 -6 2.5 -8 q3 -2 9 -1 q5 0 10.5 4 q5.5 4 11.5 12 q6 8 10 16 ZM207 323 q0 8 -2 14.5 q-2 6.5 -11.5 16 q-9.5 9.5 -24.5 10 q-15 0.5 -25.5 -10.5 q-10.5 -11 -11.5 -24 q-1 -13 2 -19 q2 -7 6 -10.5 q4 -3.5 9.5 -7.5 q5.5 -4 7 -6.5 q1.5 -2.5 1.5 -8.5 q-1 -7 -5 -15 q-4 -8 -4.5 -11 q-0.5 -3 3.5 -7 q4 -4 13 1 q3 1 7 6 l7 9 l11 14 q4 6 9 17.5 q5 11.5 6 16.5 q1 5 2 15 Z" /><glyph glyph-name="" unicode="&#xff0c;" d="M120 -75 q-6 -2 -14 -0.5 q-8 1.5 -13 7 q-5 5.5 -5.5 11.5 q-0.5 6 2.5 14 q2 6 5 11 q3 5 3.5 8 q0.5 3 -3.5 8 l-10 8 q-8 5 -11.5 14 q-3.5 9 -3.5 23 q0 12 4 23 q4 11 16.5 23.5 q12.5 12.5 36.5 13 q24 0.5 41 -12.5 q11 -10 16 -22.5 q5 -12.5 5.5 -25.5 q0.5 -13 -2.5 -24 q-4 -14 -14 -30 q-10 -16 -20 -26.5 q-10 -10.5 -19 -16 q-9 -5.5 -14 -6.5 ZM168 26 q-1 5 -3 13.5 q-2 8.5 -11 17.5 q-9 9 -24.5 9.5 q-15.5 0.5 -26.5 -11 q-11 -11.5 -11.5 -24 q-0.5 -12.5 3.5 -18.5 q2 -6 7 -10.5 q5 -4.5 9 -8 q4 -3.5 6 -6 q2 -2.5 1 -7.5 q-1 -5 -6.5 -13.5 q-5.5 -8.5 -6 -14 q-0.5 -5.5 3.5 -8.5 q4 -3 13 1 q7 2 16 13 q9 11 12.5 17 q3.5 6 9 19 q5.5 13 7 19 q1.5 6 1.5 12 Z" /><glyph glyph-name="" unicode="&#xff0f;" d="M140 -25 q-15 0 -24 7.5 q-9 7.5 -11 21.5 q-2 14 6 34 q5 12 27.5 46 q22.5 34 34.5 51 q12 17 43 55 q31 38 59 69.5 q28 31.5 45.5 47.5 q17.5 16 31.5 21.5 q14 5.5 27 2.5 q11 -3 16.5 -10 q5.5 -7 8 -15.5 q2.5 -8.5 1.5 -17.5 q-3 -19 -19.5 -47 q-16.5 -28 -35 -55 q-18.5 -27 -43.5 -59.5 q-25 -32.5 -46 -57 q-21 -24.5 -53 -55 q-32 -30.5 -47 -35.5 q-15 -5 -21 -4 ZM129 22 q-4 -13 2 -20 q6 -7 21 -4 q7 1 16 8 q9 7 15.5 12.5 q6.5 5.5 21.5 22 q15 16.5 29 32.5 l27 33 l24 28 q4 5 30 41 l31 43 q6 9 18.5 30 q12.5 21 15.5 33.5 q3 12.5 -4 19.5 q-7 7 -21 4 q-11 -3 -27 -21 l-24 -25 q-11 -12 -30.5 -35.5 q-19.5 -23.5 -37.5 -45.5 q-18 -22 -32 -41 l-34 -45 q-21 -28 -30 -45 q-9 -17 -11 -25 Z" /><glyph glyph-name="" unicode="&#xff1a;" d="M86 55 q-8 7 -11.5 12 q-3.5 5 -6 13.5 q-2.5 8.5 -2.5 19.5 q0 12 4.5 22.5 q4.5 10.5 16.5 23.5 q12 13 39 13 q24 -1 41 -18.5 q17 -17.5 17.5 -40.5 q0.5 -23 -10.5 -37 l-10 -11 q-4 -4 -3 -6 q0 -2 6.5 -7 q6.5 -5 12 -14 q5.5 -9 5.5 -26 q-2 -26 -18.5 -43 q-16.5 -17 -42 -17.5 q-25.5 -0.5 -42 19 q-16.5 19.5 -16.5 42.5 q0 11 4.5 21 q4.5 10 9.5 15 l7 7 q3 3 2.5 5.5 q-0.5 2.5 -3.5 6.5 ZM125 64 q12 0 22.5 9 q10.5 9 10.5 26 q-1 14 -10.5 24 q-9.5 10 -23 10.5 q-13.5 0.5 -23 -10.5 q-9.5 -11 -9 -26.5 q0.5 -15.5 9.5 -24.5 q9 -9 23 -8 ZM125 -36 q12 -1 22.5 8.5 q10.5 9.5 10.5 26.5 q-1 13 -10.5 23 q-9.5 10 -23 10.5 q-13.5 0.5 -22.5 -10.5 q-9 -11 -9.5 -25.5 q-0.5 -14.5 9.5 -23.5 q10 -9 23 -9 Z" /><glyph glyph-name="" unicode="&#xff1f;" d="M51 246 q12 13 28 23 q16 10 35.5 15 q19.5 5 31.5 6 q12 1 31 1 q19 -1 28.5 -3 q9.5 -2 25 -6 q15.5 -4 27.5 -10.5 q12 -6.5 19.5 -12.5 q7.5 -6 12 -10.5 q4.5 -4.5 17 -20.5 q12.5 -16 13 -53.5 q0.5 -37.5 -13.5 -61.5 q-7 -11 -15 -19 q-8 -8 -16.5 -13 q-8.5 -5 -19.5 -9 q-11 -4 -21.5 -7.5 q-10.5 -3.5 -16 -6.5 q-5.5 -3 -7 -9.5 q-1.5 -6.5 2.5 -13.5 q1 -3 9.5 -13.5 q8.5 -10.5 12 -22 q3.5 -11.5 2.5 -23.5 q-2 -17 -9.5 -26 q-7.5 -9 -17 -14.5 q-9.5 -5.5 -24 -9 q-14.5 -3.5 -27.5 -3.5 q-17 -1 -29.5 3 q-12.5 4 -20.5 10 q-8 6 -14 17 q-6 11 -6.5 30 q-0.5 19 7.5 32 q2 4 8.5 11.5 q6.5 7.5 8.5 12.5 q0 2 -5.5 18.5 q-5.5 16.5 -3.5 30.5 q1 15 9.5 30.5 q8.5 15.5 30.5 24.5 l33 10 q15 7 16.5 17.5 q1.5 10.5 -6 17 q-7.5 6.5 -19.5 8.5 q-14 1 -21.5 -3.5 q-7.5 -4.5 -9.5 -12.5 l-1 -14 q-2 -9 -9 -19 q-7 -10 -19.5 -16 q-12.5 -6 -29.5 -5 q-16 0 -28.5 7.5 q-12.5 7.5 -18 18 q-5.5 10.5 -5.5 29.5 q0 19 7 35.5 q7 16.5 18 29.5 ZM154 42 q6 1 11 1 l11 -2 q4 0 8 13.5 q4 13.5 9 18 q5 4.5 13 8.5 l40 12 q15 5 23.5 13.5 q8.5 8.5 15.5 22.5 q7 14 8.5 35 q1.5 21 -3.5 37 q-5 14 -16 27 q-11 13 -25.5 21 q-14.5 8 -23.5 10.5 q-9 2.5 -25 5 q-16 2.5 -26 3.5 q-17 0 -35.5 -3 q-18.5 -3 -36 -11.5 q-17.5 -8.5 -27 -18.5 q-9.5 -10 -16 -23 q-6.5 -13 -8.5 -25 q-2 -12 2.5 -21.5 q4.5 -9.5 16 -15 q11.5 -5.5 25.5 0 q14 5.5 18 12 q4 6.5 4 15.5 l-1 9 q-1 4 1.5 11.5 q2.5 7.5 17.5 14.5 q15 7 34 6 q12 -1 24.5 -7 q12.5 -6 20.5 -18 q8 -12 5 -29 q-4 -15 -12.5 -22 q-8.5 -7 -21.5 -10 l-22 -6 q-17 -6 -24.5 -16.5 q-7.5 -10.5 -8.5 -22 q-1 -11.5 2 -30 q3 -18.5 9 -19 q6 -0.5 13 2.5 ZM165 -55 q27 2 35.5 13.5 q8.5 11.5 9 26 q0.5 14.5 -6.5 23.5 q-5 5 -12.5 8.5 q-7.5 3.5 -22.5 4.5 q-15 0 -26 -4 q-11 -4 -17.5 -12.5 q-6.5 -8.5 -7 -23 q-0.5 -14.5 6 -23 q6.5 -8.5 19 -11.5 q12.5 -3 22.5 -2 Z" /><glyph glyph-name="" unicode="&#x88ab;" d="M48 205 q-12 8 -14 11.5 q-2 3.5 -2.5 8.5 q-0.5 5 4.5 15 q8 18 21 30 l24 21 l15 21 q12 16 38 33 q26 17 52 17 q25 -1 33 -15.5 q8 -14.5 7 -22.5 l-1 -6 l0 -8 q15 15 25 19 l36 11 l9 22 q5 7 18 8 q29 0 54 -21 l27 -28 l29 -19 q10 -8 32 -29 q22 -21 29.5 -37 q7.5 -16 8.5 -35 q0 -9 -2 -14 l-8 -17 q0 -1 6 -10 q6 -9 6 -25 q-1 -18 -6 -31.5 q-5 -13.5 -13 -22.5 q-8 -9 -8 -10 l3 -8 q0 -2 0 -4 q-2 -13 -7 -24 q-5 -11 -26 -31.5 q-21 -20.5 -33.5 -30.5 q-12.5 -10 -22.5 -15.5 q-10 -5.5 -16 -6 q-6 -0.5 -6 0.5 l-10 3 q-2 0 -12 -8 q-4 -3 -17 -7 q-13 -4 -21 -4 q-10 -1 -15 3 l-18 11 q-2 -1 -12 -7.5 q-10 -6.5 -23 -6.5 q-19 -1 -26 6 l-16 14 q-1 -1 -11.5 -6.5 q-10.5 -5.5 -34.5 8.5 q-27 13 -53.5 47.5 q-26.5 34.5 -30 56.5 q-3.5 22 -4.5 24 l-20 10 q-9 4 -15.5 16 q-6.5 12 -6.5 26.5 q0 14.5 4 25.5 q2 5 6.5 13 q4.5 8 12 15.5 q7.5 7.5 11.5 12.5 ZM77 114 q20 0 40 15.5 q20 15.5 32 28.5 q12 13 28 42.5 q16 29.5 19 51.5 l1 14 q0 6 0 9 q-1 2 -5 9.5 q-4 7.5 -5.5 8 q-1.5 0.5 -11.5 -7.5 q-8 -6 -32 -7 l-16 -1 l-7 -1 q-5 -1 -18 10 q-38 -24 -34 -41 q1 -7 3.5 -9 q2.5 -2 9.5 -1 l5 0 l28 3 q8 -2 8 -9 q-1 -9 -9 -15 l-35 -21 q-16 -11 -23 -22.5 q-7 -11.5 -7.5 -21.5 q-0.5 -10 0.5 -11 q0 -6 5.5 -15.5 q5.5 -9.5 23.5 -8.5 ZM169 172 q-31 -39 -41.5 -47.5 q-10.5 -8.5 -25.5 -13.5 q-15 -5 -15.5 -6.5 q-0.5 -1.5 1.5 -7.5 l-1 -20 q0 -7 4 -16.5 q4 -9.5 14.5 -37.5 q10.5 -28 25.5 -36.5 q15 -8.5 24 -7.5 q25 2 24 51 q-1 49 -1 55 l-9 87 ZM111 295 q0 -13 25 -11 q42 1 49 14.5 q7 13.5 7.5 18 q0.5 4.5 -0.5 7.5 q-5 8 -23 8 q-28 -2 -43.5 -15 q-15.5 -13 -14.5 -22 ZM179 186 l3 -27 q13 3 18.5 10.5 q5.5 7.5 5 21.5 q-0.5 14 -11.5 23 l-15 -28 ZM182 152 q-1 -2 -0.5 -3 q0.5 -1 0 -4.5 q-0.5 -3.5 0.5 -3.5 q0 -18 2.5 -31.5 q2.5 -13.5 2 -19.5 q-0.5 -6 2.5 -5 q4 0 10.5 8 q6.5 8 6.5 25 q-1 21 -12 27 l-12 7 l0 0 ZM311 309 q-43 -5 -56.5 -20 q-13.5 -15 -19.5 -27.5 q-6 -12.5 -9 -22.5 q-3 -10 -4 -37 l-4 -69 q-3 -41 -9 -61 l-16 -41 q-4 -12 -4.5 -22.5 q-0.5 -10.5 6.5 -20.5 q11 -20 30 -20 q6 -1 11.5 2.5 q5.5 3.5 20.5 26.5 q15 23 22 91 l5 77 q0 10 3.5 42 q3.5 32 14.5 41 l11 8 q0 1 -1 5 q-1 2 -1 5 l1 38 l-1 5 l0 0 ZM352 -17 q-10 10 -18 22 l-13 21 q-4 5 -5.5 8 q-1.5 3 -5.5 2 l-13 -4 q-25 -9 -25.5 -26 q-0.5 -17 3.5 -22 q7 -14 29 -15 q18 -2 32.5 6 q14.5 8 15.5 8 ZM379 76 q36 -20 38.5 -20.5 q2.5 -0.5 7.5 6.5 l18 20 q15 18 15 44 q-1 13 -7 23 q-6 10 -21 19.5 q-15 9.5 -38 9.5 q-79 -3 -88 -12.5 q-9 -9.5 -10 -15.5 l-3 -27 q-2 -4 -1 -5 q0 -8 11 -9 q11 -1 14.5 -3 q3.5 -2 32 3.5 q28.5 5.5 33.5 6.5 q14 0 15 -9 q1 -9 0 -12 q-2 -4 -10 -11.5 q-8 -7.5 -7 -7.5 ZM301 102 q-1 -17 8.5 -39 q9.5 -22 31 -52 q21.5 -30 39.5 -30 q12 -1 33.5 15 q21.5 16 21.5 31 q-1 10 -14 19 l-43 21 q-28 14 -34.5 24.5 q-6.5 10.5 -6.5 11.5 l-15 -3 q-1 -1 -2 0 q-5 0 -19 2 ZM359 180 q28 -1 28.5 34.5 q0.5 35.5 -5.5 62.5 q-16 62 -45 62 q-10 -1 -13.5 -6 q-3.5 -5 -3 -12.5 q0.5 -7.5 -0.5 -25.5 q-1 -18 0 -27 q0 -10 3 -34 q3 -24 12.5 -39 q9.5 -15 23.5 -15 ZM396 246 q4 -1 6.5 -2.5 q2.5 -1.5 5 -5 q2.5 -3.5 4.5 -9.5 l6 -36 q5 -14 19 -14 q11 -1 16.5 7.5 q5.5 8.5 6.5 28 q1 19.5 -17 44.5 q-9 11 -33 26.5 q-24 15.5 -25 11 q-1 -4.5 3 -14.5 q2 -7 3 -9 l1 -7 l2 -9 q1 -11 2 -11 Z" /><glyph glyph-name="" unicode="&#x8868;" d="M454 237 q7 -13 8 -16 l1 -17 q0 -3 12.5 -11 q12.5 -8 16.5 -16 q4 -8 4.5 -21 q0.5 -13 -1.5 -17 l-9 -14 q-1 -3 2.5 -8.5 q3.5 -5.5 4 -7 q0.5 -1.5 -2.5 -8.5 l-12 -23 q-2 -2 -17 -20 q10 -9 10.5 -11 q0.5 -2 0.5 -4 q-1 -7 -7 -21 q-6 -14 -42 -43 q-36 -29 -58.5 -42 q-22.5 -13 -60.5 14 l-24 18 l-7 4 q-23 -26 -37.5 -34 q-14.5 -8 -38.5 -7 q-59 1 -84.5 32.5 q-25.5 31.5 -27.5 38.5 l-5 16 q-1 0 -18.5 9.5 q-17.5 9.5 -27.5 19 q-10 9.5 -14.5 16.5 q-4.5 7 -6 16.5 q-1.5 9.5 -1.5 12.5 q0 3 1 7 l10 17 l-9 17 q-2 5 -2 14 q1 27 14 39 l17 15 l1 19 l6 15 l-11 9 q-2 1 -2.5 4.5 q-0.5 3.5 4.5 12.5 q24 41 60.5 58.5 q36.5 17.5 54 22.5 q17.5 5 31.5 6.5 q14 1.5 19 4.5 l15 11 q12 8 33 9 q13 0 20.5 -3 q7.5 -3 22 -13 q14.5 -10 15.5 -10.5 q1 -0.5 38.5 -9 q37.5 -8.5 72.5 -39.5 q35 -31 38 -37.5 q3 -6.5 3 -9.5 q-1 -9 -10 -15 ZM258 116 l-27 -2 l-111 5 l-6 1 q-1 -1 -5.5 -4 q-4.5 -3 -8.5 -4 l-32 -5 q-21 -4 -20 -21 q0 -10 10 -28 q10 -18 52 -18 q36 -1 68.5 14 q32.5 15 47 28.5 q14.5 13.5 32.5 33.5 ZM163 125 l166 -4 q94 -3 110 8 q16 11 16.5 19 q0.5 8 -2.5 14 q-12 21 -63 26 l-61 5 l-85 4 q-15 0 -60 0 q-99 -2 -117.5 -14 q-18.5 -12 -17.5 -25 q0 -13 8.5 -20 q8.5 -7 44.5 -9 l61 -4 ZM217 324 q-75 -9 -103.5 -19.5 q-28.5 -10.5 -35 -20.5 q-6.5 -10 -5.5 -11 q0 -2 2 -6 q2 -4 6 -6.5 q4 -2.5 22 -0.5 l66 6 l32 2 q1 1 3 12 q2 11 13 44 ZM194 205 l7 56 q-19 0 -72.5 -5 q-53.5 -5 -51.5 -36 q0 -10 13.5 -16 q13.5 -6 30.5 -4 l73 5 ZM105 31 q5 -26 18 -47 q13 -21 58 -22 q45 -2 54.5 21.5 q9.5 23.5 9.5 28.5 q-1 7 -4 8.5 q-3 1.5 -4 2.5 l-20 1 q-6 0 -10 5.5 q-4 5.5 -6 25.5 q-18 -10 -31.5 -14 q-13.5 -4 -64.5 -10 ZM205 206 l78 -1 l18 0 q0 6 -0.5 33 q-0.5 27 -10.5 65 q-10 38 -33 38.5 q-23 0.5 -35 -20.5 q-12 -21 -14 -64 l-2 -41 l-1 -10 l0 0 ZM359 -32 q19 -1 38.5 10 q19.5 11 27.5 23.5 q8 12.5 8 19.5 q-1 11 -14 16 l-43 9 q-9 2 -18 7.5 q-9 5.5 -17 14.5 l-32 31 q-12 7 -22 8 q-22 0 -34 -15.5 q-12 -15.5 -7 -19.5 q0 -1 -1 -6 q-1 -5 10 -18 l24 -29 q46 -51 80 -51 ZM293 319 l15 -54 l90 -10 q25 -3 29 1 q2 2 2.5 6.5 q0.5 4.5 -2.5 10.5 q-13 22 -59.5 34 q-46.5 12 -74.5 12 ZM307 256 l5 -53 q5 0 8 0 l42 -2 l16 0 q44 -1 44.5 10.5 q0.5 11.5 -2.5 17.5 q-18 28 -113 28 l0 -1 ZM354 67 l10 -5 q20 -12 27 -12 q22 -2 41 16.5 q19 18.5 19 30.5 q-1 19 -32 18 q-22 -1 -39 -12.5 q-17 -11.5 -19 -15 q-2 -3.5 -4 -12.5 l-3 -8 l0 0 Z" /><glyph glyph-name="" unicode="&#x522b;" d="M147 278 q1 31 56 34 q39 1 38 -24 q-2 -26 -47 -25 q-35 0 -41.5 3.5 q-6.5 3.5 -5.5 11.5 ZM71 201 q-18 10 -22.5 18.5 q-4.5 8.5 -5 18.5 q-0.5 10 9.5 27 q15 27 63.5 66.5 q48.5 39.5 112.5 39.5 q29 -1 54 -12 q25 -11 38.5 -26 q13.5 -15 14.5 -15 l8 -1 q-1 6 0 20.5 q1 14.5 16 14.5 q36 -3 68 -45.5 q32 -42.5 49 -70.5 q17 -28 17 -88 q-1 -52 -20.5 -90 q-19.5 -38 -60 -78 q-40.5 -40 -60.5 -40 q-10 -1 -17 3 q-7 4 -15 23 q-20 -20 -33 -26 q-13 -6 -34 -5 q-32 1 -49 17.5 q-17 16.5 -15 17.5 l-20 -16 q-17 -12 -48 8 q-22 12 -51.5 39 q-29.5 27 -28.5 46 q0 4 3 8 l22 21 l5 7 q-7 1 -14.5 3 q-7.5 2 -16 8 q-8.5 6 -16.5 16 q-8 10 -8 27 q0 17 11 29.5 q11 12.5 14 15.5 l21 13 l8 6 l0 0 ZM110 109 l56 3 q58 3 68.5 -14.5 q10.5 -17.5 10.5 -26.5 q-1 -7 -4 -15 q-3 -8 -6 -9 q-3 -1 -14 -3 q-11 -2 -19 -7.5 q-8 -5.5 -7 -19.5 q0 -12 6 -23 q6 -11 20 -19 q14 -8 30 -8 q30 -1 50 26.5 q20 27.5 20.5 72 q0.5 44.5 -16.5 70.5 q-10 13 -33 27.5 q-23 14.5 -116 16.5 q-95 1 -101.5 -12.5 q-6.5 -13.5 -7 -23.5 q-0.5 -10 4.5 -17 q12 -21 58 -18 ZM198 101 q-7 -1 -9 0 l-17 2 q-1 0 -13 0 l-38 -1 q-1 -1 -2 -4 l-14 -25 l-5 -9 q-7 -11 -18.5 -20.5 q-11.5 -9.5 -12 -10.5 q-0.5 -1 -1 -4.5 q-0.5 -3.5 3.5 -8.5 q5 -10 21 -23 q16 -13 32 -13 q12 -1 18.5 4 q6.5 5 20 22.5 q13.5 17.5 18 31 q4.5 13.5 16.5 59.5 ZM79 257 q0 0 0.5 -0.5 q0.5 -0.5 2 -9.5 q1.5 -9 27.5 -20 q26 -11 97 -11 q73 -1 90 9.5 q17 10.5 21.5 27.5 q4.5 17 5 26 q0.5 9 -5.5 20 q-13 23 -47.5 33.5 q-34.5 10.5 -58.5 10.5 q-40 -1 -74 -19.5 q-34 -18.5 -52 -43 q-18 -24.5 -6 -23.5 ZM138 187 q12 0 27 1 q15 1 21 1 l18 -4 q1 0 6 23 q-21 -3 -70 0 q-1 -1 -1 -7 l0 -6 l-1 -8 l0 0 ZM350 67 q16 0 24 12.5 q8 12.5 13.5 39 q5.5 26.5 5.5 49.5 q-1 14 -3.5 35.5 q-2.5 21.5 -8 51 q-5.5 29.5 -32.5 30.5 q-16 0 -24 -36.5 q-8 -36.5 -8.5 -57 q-0.5 -20.5 0.5 -20.5 q0 -19 4.5 -52.5 q4.5 -33.5 10 -43 q5.5 -9.5 18.5 -8.5 ZM388 296 l13 -58 q5 -24 4.5 -60.5 q-0.5 -36.5 -4.5 -71 q-4 -34.5 -11.5 -45.5 q-7.5 -11 -12.5 -14 l-18 -8 q-16 -11 -15 -35 q0 -14 6 -25 q6 -11 16 -11 q22 -1 43.5 27 q21.5 28 37 54.5 q15.5 26.5 16 66 q0.5 39.5 -1.5 60.5 q-6 49 -17 73 q-11 24 -25 42 q-14 18 -28 20 q-2 -2 -3 -8 q-1 -6 0 -7 Z" /><glyph glyph-name="" unicode="&#x4e0d;" d="M87 223 q-27 5 -33 12.5 q-6 7.5 -6.5 15 q-0.5 7.5 7.5 21.5 q13 22 39.5 43 q26.5 21 56 38.5 q29.5 17.5 109.5 18.5 q73 0 129.5 -34 q56.5 -34 72 -60.5 q15.5 -26.5 15.5 -32.5 q-1 -10 -9.5 -15.5 q-8.5 -5.5 -43.5 -8.5 q46 -34 55 -51.5 q9 -17.5 9 -39.5 q-1 -29 -11.5 -47.5 q-10.5 -18.5 -33.5 -32.5 q-23 -14 -48 -13 q-7 0 -11 1 l-26 11 l-7 3 q-8 -30 -18 -57.5 q-10 -27.5 -24.5 -39 q-14.5 -11.5 -42 -21 q-27.5 -9.5 -54.5 12.5 q-4 2 -16.5 14.5 q-12.5 12.5 -17 18.5 q-4.5 6 -12 21 q-7.5 15 -10.5 27 q-3 12 -5 14 l-20 -1 q-3 0 -9 2 l-24 6 q-27 9 -47.5 26.5 q-20.5 17.5 -25.5 26 q-5 8.5 -5 31.5 q0 22 10.5 41.5 q10.5 19.5 56.5 48.5 ZM311 260 l-69 0 l-45 0 q-5 0 -7.5 -1 q-2.5 -1 -11.5 -14 q-9 -13 -26.5 -25.5 q-17.5 -12.5 -24.5 -15.5 l-47 -24 q-8 -7 -16 -20.5 q-8 -13.5 -8.5 -27 q-0.5 -13.5 6.5 -23.5 q7 -13 22 -21.5 q15 -8.5 31 -8.5 q32 -1 72.5 35.5 q40.5 36.5 70.5 68 q30 31.5 53 77.5 ZM227 267 l38 0 l78 -2 l43 -4 q12 -2 28 -1 q25 0 25 12 q-1 12 -19.5 28 q-18.5 16 -62 28 q-43.5 12 -92.5 13 q-77 0 -115.5 -14.5 q-38.5 -14.5 -47.5 -22.5 q-9 -8 -15 -18 q-6 -10 -5 -16 q0 -7 7 -9.5 q7 -2.5 30 -0.5 l108 7 ZM292 212 l-58 -68 q-9 -10 -26 -24 q-17 -14 -19 -18 q-2 -4 -3 -10.5 q-1 -6.5 7 -39.5 l9 -43 q13 -38 48 -39 q26 -1 39 17.5 q13 18.5 16.5 46 q3.5 27.5 4 69.5 q0.5 42 -2.5 71 q-4 24 -15 38 ZM401 71 q31 -1 41.5 17 q10.5 18 10.5 35 q-1 36 -36 61 q-35 25 -52 24 q-15 -2 -21 -5 q-6 -3 -12 -13.5 q-6 -10.5 -5 -25.5 q0 -29 15 -54.5 q15 -25.5 27.5 -32 q12.5 -6.5 31.5 -6.5 Z" /><glyph glyph-name="" unicode="&#x957f;" d="M436 229 q61 -15 62 -46 q1 -31 -10 -47 q-19 -28 -65 -40 q4 -3 25 -11.5 q21 -8.5 24.5 -13 q3.5 -4.5 3.5 -10.5 q-1 -27 -51.5 -69 q-50.5 -42 -74.5 -42 q-34 -2 -62 30 q-23 -33 -33.5 -38 q-10.5 -5 -32.5 -4 l-2 0 l-11 -1 q-29 0 -59 18.5 q-30 18.5 -45 39.5 q-15 21 -26 47.5 q-11 26.5 -12 40.5 q-1 14 -2 17 l-25 10 q-10 4 -19 18.5 q-9 14.5 -9 29.5 q0 15 9 33 q9 16 31 28 q22 12 23 14 q1 2 6 19.5 q5 17.5 24.5 51 q19.5 33.5 40.5 49.5 q21 16 50 16 q22 -1 36.5 -19 q14.5 -18 19 -19.5 q4.5 -1.5 30.5 5.5 l53 14 q24 6 45.5 -7 q21.5 -13 48.5 -35 q27 -22 34 -38 q7 -16 7 -18 q-1 -3 -2.5 -5 q-1.5 -2 -31.5 -18 ZM167 131 l159 -3 q33 -1 77.5 4 q44.5 5 50.5 15 q6 10 6 19 q-1 34 -68 40 l-61 5 l-84 2 l-132 -7 q-54 -3 -60.5 -16 q-6.5 -13 -7 -21.5 q-0.5 -8.5 4.5 -15.5 q9 -18 44 -19 l71 -3 ZM204 125 l-80 1 l-19 1 q0 -2 -0.5 -7 q-0.5 -5 0.5 -5 q0 -19 3 -44.5 q3 -25.5 24 -64 q21 -38.5 70 -38.5 q19 -1 36 9.5 q17 10.5 17.5 33 q0.5 22.5 -6.5 30.5 q-5 4 -12 6 l-22 4 q-4 2 -8 10 q-4 8 -3 38 l0 18 l0 8 l0 0 ZM111 212 l105 8 q0 10 -0.5 20 q-0.5 10 0 40 q0.5 30 -10.5 47 q-8 10 -21 11 q-24 0 -40 -22 q-16 -22 -22 -45 q-6 -23 -11 -59 ZM223 294 l4 -50 l82 4 l90 5 q32 1 33 13.5 q1 12.5 -4 22.5 q-10 16 -28.5 25.5 q-18.5 9.5 -40.5 5.5 l-58 -13 q-15 -4 -28 -5 l-42 -4 l-8 -1 l0 -3 ZM237 123 q-1 -1 0 -1 q1 -1 0.5 -8.5 q-0.5 -7.5 5.5 -14.5 q3 -5 12.5 -20.5 q9.5 -15.5 21.5 -30.5 q12 -15 11 -14 q-1 1 -20 23.5 q-19 22.5 52 -52.5 q11 -11 19 -17.5 q8 -6.5 22 -7.5 q16 -2 39.5 10.5 q23.5 12.5 30.5 26.5 q7 14 7.5 20.5 q0.5 6.5 -2.5 11.5 q-4 5 -14 9 l-42 13 q-15 5 -27 14 q-12 9 -20 22 q-8 13 -8 14 l-5 0 l-83 2 Z" /><glyph glyph-name="" unicode="&#x6210;" d="M469 218 q5 -6 6.5 -9.5 q1.5 -3.5 3 -11 q1.5 -7.5 2 -15 q0.5 -7.5 -3.5 -21.5 q-8 -24 -26 -53 q29 0 30.5 -18.5 q1.5 -18.5 -12.5 -40.5 q-12 -18 -51 -61.5 q-39 -43.5 -79 -42.5 q-6 0 -23 8 q-2 -1 -12 -11 q-10 -10 -37 -13 q-13 -2 -19 0 q-6 2 -16.5 9 q-10.5 7 -13.5 8 q-3 1 -12 -3 q-9 -4 -22 2 q-12 4 -21 12.5 q-9 8.5 -7 9.5 l-9 -6 q-4 -2 -8 -2 q-19 -1 -55 30 q-36 31 -46.5 48 q-10.5 17 -10.5 29 q0 5 2 12 q2 7 3.5 11 q1.5 4 1.5 19 l-1 62 q-1 39 14 66 q15 27 41.5 52.5 q26.5 25.5 67.5 38.5 q41 13 55.5 13.5 q14.5 0.5 16.5 1 q2 0.5 12.5 17.5 q10.5 17 37.5 18 q11 0 20 -4 l28 -17 l14 1 q0 0 1 0 q15 -1 41 -17.5 q26 -16.5 39 -30.5 q13 -14 16 -17 l5 -10 l19 -19 q2 -4 9 -14.5 q7 -10.5 7 -16.5 q-1 -6 -8 -14 ZM353 247 l67 -10 q13 -3 18 1 q1 1 2.5 3 q1.5 2 2 4 q0.5 2 -2.5 8 q-15 21 -29 25 q-1 0 -14 -0.5 q-13 -0.5 -25.5 4 q-12.5 4.5 -24 11 q-11.5 6.5 -15.5 8 q-4 1.5 -35 5.5 q-31 4 -47 4 q-27 -1 -69 -9.5 q-42 -8.5 -66 -27.5 q-24 -19 -32 -33 q-8 -14 -12 -37 q-4 -23 -4.5 -33 q-0.5 -10 0.5 -11 l3 -53 q0 -6 -5.5 -26.5 q-5.5 -20.5 -4.5 -29.5 q1 -19 20 -40 q19 -21 34 -21 q20 -1 19 29.5 q-1 30.5 -1 36.5 l-6 68 q-1 10 1.5 33 q2.5 23 9.5 45 q7 22 30 35 q23 13 71 15 q48 2 54 2 l61 -6 ZM134 132 q31 2 32 2 q26 -1 29.5 -18 q3.5 -17 5 -33 q1.5 -16 -0.5 -21 q-6 -16 -10.5 -16.5 q-4.5 -0.5 -4.5 0.5 l-14 4 q-1 0 -2 0 q-10 -1 -13.5 -9 q-3.5 -8 -4 -21 q-0.5 -13 7.5 -24 q12 -22 36 -21 q17 0 28.5 16 q11.5 16 19 47.5 q7.5 31.5 8.5 43 q1 11.5 1.5 26.5 q0.5 15 -4.5 40 q-8 29 -20.5 41.5 q-12.5 12.5 -35.5 12.5 q-8 -1 -26 -5 q-18 -4 -23.5 -12 q-5.5 -8 -6.5 -30.5 q-1 -22.5 -2 -22.5 ZM240 -16 q0 -20 20 -21 q17 -2 56 28 q39 30 63 65 q24 35 45.5 74.5 q21.5 39.5 20.5 57.5 q-1 9 -5.5 16.5 q-4.5 7.5 -13.5 12.5 q-9 5 -14 6 q-7 0 -12.5 -4.5 q-5.5 -4.5 -11.5 -13.5 l-25 -50 q-9 -16 -17.5 -26.5 q-8.5 -10.5 -31.5 -28.5 q-23 -18 -24.5 -19.5 q-1.5 -1.5 -16 -18.5 q-14.5 -17 -21 -27 q-6.5 -10 -10 -25 q-3.5 -15 -2.5 -26 ZM259 317 q33 -2 62 -7 q-4 16 -8.5 26 q-4.5 10 -22 10.5 q-17.5 0.5 -23.5 -11.5 l-4 -10 l-4 -8 l0 0 ZM264 247 q-1 -2 -1.5 -3.5 q-0.5 -1.5 0.5 -5.5 l5 -52 q2 -17 11.5 -55 q9.5 -38 14.5 -37 q5 0 20 16 l22 21 q1 1 9.5 13.5 q8.5 12.5 8.5 14.5 q-1 0 -6.5 10 q-5.5 10 -7 39 q-1.5 29 -8.5 34 q-4 2 -50 4 l-18 1 l0 0 ZM395 68 q-5 -9 -14 -19 q-9 -10 -12.5 -15 q-3.5 -5 -3.5 -6 l-35 -34 q2 -19 23 -18 q30 0 60.5 32.5 q30.5 32.5 30.5 49.5 q-1 12 -14 13 q-3 0 -5 -1 q-2 -1 -17 -10 q-2 -1 -13 8 ZM402 285 q8 -1 8.5 3.5 q0.5 4.5 -1.5 8.5 q-8 12 -25 21.5 q-17 9.5 -38 10.5 q-10 0 -9 -7 q0 -16 16.5 -26 q16.5 -10 48.5 -11 Z" /><glyph glyph-name="" unicode="&#x8fbe;" d="M203 312 q5 3 9 4 l33 8 l8 20 q4 10 15 17 q11 7 25 7 q10 -1 18 -5 q8 -4 21 -15 q13 -11 18 -17 l15 -22 q3 -4 16.5 -9 q13.5 -5 38.5 -20 q25 -15 38.5 -34 q13.5 -19 12.5 -30 q-1 -4 -2 -7 l-12 -21 l16 -25 q5 -10 5 -28 q-1 -24 -5 -32 q-4 -8 -26 -40 q2 -4 3.5 -6.5 q1.5 -2.5 2.5 -7 q1 -4.5 -5 -15.5 q-20 -34 -62.5 -64 q-42.5 -30 -68.5 -32.5 q-26 -2.5 -49 3.5 l-59 13 q-3 0 -9 -1 q-6 -1 -22 -6 q-16 -5 -39 9 q-16 8 -49.5 35.5 q-33.5 27.5 -39 46 q-5.5 18.5 -6 22.5 q-0.5 4 1.5 8 l8 15 q2 6 2.5 13 q0.5 7 -1.5 16 q-3 9 -5 15 l-17 27 q-5 10 -5 20.5 q0 10.5 1 17.5 q1 9 7 19.5 q6 10.5 16.5 18.5 q10.5 8 12.5 12 q2 4 -4.5 10.5 q-6.5 6.5 9.5 26.5 q20 26 31.5 39.5 q11.5 13.5 32 25.5 q20.5 12 34.5 12 q30 -2 35 -44 ZM221 -19 l52 -14 q73 -20 112 15.5 q39 35.5 39.5 43.5 q0.5 8 -0.5 11 q-2 1 -13.5 7.5 q-11.5 6.5 -45.5 2.5 l-49 -6 q-81 -10 -102 1 q-21 11 -24 15 l-10 11 q-5 3 -5 4 l-5 10 l-4 6 q-2 2 -3.5 9 q-1.5 7 -3 12 q-1.5 5 -1.5 9 l-3 63 q-2 31 -10 42.5 q-8 11.5 -26 12.5 q-15 0 -32 -9.5 q-17 -9.5 -21.5 -16 q-4.5 -6.5 -7.5 -17 q-3 -10.5 -2 -16.5 q0 -12 8 -23 l19 -27 q1 -5 4 -17.5 q3 -12.5 3.5 -21 q0.5 -8.5 -1.5 -14.5 q-2 -4 -3 -7 l-10 -15 q-2 -4 -3 -9.5 q-1 -5.5 8 -19.5 q17 -28 38.5 -39 q21.5 -11 32.5 -9 q1 0 21.5 6.5 q20.5 6.5 47.5 -0.5 ZM90 265 q0 -5 1 -7.5 q1 -2.5 8.5 -6 q7.5 -3.5 17.5 -3.5 q14 -1 35 11 q21 12 21.5 33.5 q0.5 21.5 -3.5 28.5 q-6 8 -15 9 q-10 0 -28.5 -10 q-18.5 -10 -28 -26 q-9.5 -16 -8.5 -29 ZM318 215 l76 -5 q21 -2 33 5 q12 7 12 17 q-1 14 -37 37 q-36 23 -123 24 q-57 0 -79.5 -12.5 q-22.5 -12.5 -26 -19 q-3.5 -6.5 -4 -11.5 q-0.5 -5 4.5 -10 q11 -17 50 -19 l94 -6 ZM343 208 l-15 -1 l-79 4 q-3 0 -4.5 -1.5 q-1.5 -1.5 -3.5 -9 q-2 -7.5 -6 -12.5 l-31 -28 q-12 -12 -17 -24.5 q-5 -12.5 -5.5 -25 q-0.5 -12.5 5.5 -21.5 q12 -23 50 -23 q20 -1 34.5 6.5 q14.5 7.5 29.5 28.5 q15 21 20 32 q5 11 12.5 35 q7.5 24 9.5 40 ZM267 300 q42 0 78 -8 q-2 5 -3.5 11 q-1.5 6 -4.5 14 q-3 8 -21 18.5 q-18 10.5 -29 2.5 q-11 -8 -14 -16 l-4 -15 l-2 -7 l0 0 ZM404 65 q27 -1 36.5 25 q9.5 26 9.5 40 q-1 13 -9.5 28 q-8.5 15 -24.5 24 q-16 9 -30 9 q-14 -1 -22.5 -10.5 q-8.5 -9.5 -9 -27 q-0.5 -17.5 0.5 -18.5 q0 -33 12.5 -51.5 q12.5 -18.5 36.5 -18.5 Z" /><glyph glyph-name="" unicode="&#x4f46;" d="M260 228 q0 9 5.5 20 q5.5 11 20 19.5 q14.5 8.5 31.5 9.5 q25 0 53.5 -15.5 q28.5 -15.5 28.5 -40.5 q-1 -11 -9.5 -26 q-8.5 -15 -47.5 -16 q-56 -3 -69.5 16 q-13.5 19 -12.5 33 ZM286 231 q0 -28 50 -28 q27 -1 31.5 7.5 q4.5 8.5 5 12.5 q0.5 4 -2.5 10 q-12 21 -44 22 q-41 0 -40 -24 ZM227 346 q36 21 60 21 q25 -1 48.5 -10 q23.5 -9 66.5 -40.5 q43 -31.5 58 -58 q15 -26.5 20.5 -39.5 q5.5 -13 6 -33 q0.5 -20 -7.5 -39 q-11 -26 -40 -54 q32 -9 35.5 -14.5 q3.5 -5.5 4 -11.5 q0.5 -6 -5.5 -16 q-18 -29 -71 -71.5 q-53 -42.5 -107 -40.5 q-25 0 -43 6 l-27 11 q-13 4 -16.5 7 q-3.5 3 -5 3.5 q-1.5 0.5 -8.5 -7.5 q-7 -8 -21 -7 q-47 1 -81.5 48 q-34.5 47 -42.5 59.5 q-8 12.5 -10.5 25.5 q-2.5 13 -3.5 24.5 q-1 11.5 -1.5 23.5 q-0.5 12 2.5 19 q3 7 4 8 l-15 18 q-3 4 -3 15 q1 24 13 45 q12 21 68.5 76.5 q56.5 55.5 94.5 51.5 q18 -3 28 -20 ZM76 185 q19 -1 50 18 q31 19 51.5 54.5 q20.5 35.5 20.5 57.5 q-1 21 -20 21 q-31 -1 -65.5 -35.5 q-34.5 -34.5 -44 -49 q-9.5 -14.5 -13.5 -30 q-4 -15.5 -3 -17.5 q0 -19 24 -19 ZM157 219 q-12 -12 -16 -15 q-4 -3 -21 -13 q-17 -10 -23 -10 l-22 -2 q-2 -2 -5 -21 q-3 -19 -3.5 -26.5 q-0.5 -7.5 0.5 -15.5 q1 -46 19 -77.5 q18 -31.5 39.5 -43.5 q21.5 -12 32.5 -11 q23 0 25 28 q2 28 2 52 q-1 19 -1.5 29.5 q-0.5 10.5 -6.5 51.5 q-6 41 -11 54 l-6 13 l-3 7 ZM330 91 q80 -1 102.5 36 q22.5 37 22.5 67 q-1 28 -20 62 q-19 34 -61.5 58 q-42.5 24 -77.5 25 q-65 0 -84 -45.5 q-19 -45.5 -20 -57 q-1 -11.5 -1.5 -20.5 q-0.5 -9 0.5 -12 q0 -12 4.5 -33.5 q4.5 -21.5 22 -50.5 q17.5 -29 112.5 -29 ZM298 -31 q57 1 92.5 22 q35.5 21 44 34 q8.5 13 8.5 21 q-1 9 -10 14.5 q-9 5.5 -44 7.5 l-92 -6 q-50 -3 -63.5 -13 q-13.5 -10 -21 -23.5 q-7.5 -13.5 -4.5 -15.5 q0 -1 -0.5 -4 q-0.5 -3 4.5 -7 q9 -12 35 -21.5 q26 -9.5 51 -8.5 Z" /><glyph glyph-name="" unicode="&#x7684;" d="M86 143 q-1 4 2 8 l18 19 l3 31 q1 6 9 20.5 q8 14.5 33 14.5 q15 -1 21 -9 q6 -8 6.5 -32 q0.5 -24 4.5 -29 l11 -14 q3 -7 3.5 -20 q0.5 -13 -2.5 -18 q-2 -3 -3 -4 l-14 -13 q-2 -3 -1.5 -20.5 q0.5 -17.5 -3.5 -24.5 q-7 -12 -21 -11 q-20 0 -28.5 11.5 q-8.5 11.5 -10.5 18.5 l-8 30 l-12 14 q-4 5 -6 21 l-1 7 l0 0 ZM146 97 q26 0 34 12 q8 12 8.5 22 q0.5 10 -5.5 20 q-10 15 -42 14 q-36 -2 -41.5 -11.5 q-5.5 -9.5 -6 -15.5 q-0.5 -6 0.5 -7 q0 -7 9.5 -21 q9.5 -14 42.5 -13 ZM230 335 q4 3 11 11 q7 8 9.5 9.5 q2.5 1.5 21 10.5 q18.5 9 30.5 9 q9 -1 14.5 -3 q5.5 -2 17 -11.5 q11.5 -9.5 14.5 -12.5 l9 -13 q1 -2 17.5 -8 q16.5 -6 32.5 -16.5 q16 -10.5 39.5 -36.5 q23.5 -26 33 -45.5 q9.5 -19.5 13.5 -42.5 q4 -23 4.5 -53.5 q0.5 -30.5 -23.5 -74.5 q-15 -27 -59 -73.5 q-44 -46.5 -78 -44.5 q-23 1 -36 19.5 q-13 18.5 -16 29.5 q-3 11 -4 28 q-4 -15 -6.5 -20.5 q-2.5 -5.5 -11 -21.5 q-8.5 -16 -18 -30 q-9.5 -14 -39.5 -14 q-29 -1 -59.5 16.5 q-30.5 17.5 -67.5 55.5 q-37 38 -52 64.5 q-15 26.5 -15 61.5 q0 35 2 49 q6 38 36.5 79 q30.5 41 73.5 77.5 q43 36.5 72 35.5 q20 -1 24 -8.5 q4 -7.5 10 -26.5 ZM175 -31 q12 -1 44 15 q32 16 30 161 q-1 36 -4 70 q-3 34 -17.5 57 q-14.5 23 -47.5 24 q-49 1 -79 -21 q-30 -22 -42.5 -63.5 q-12.5 -41.5 -9.5 -68.5 q0 -3 2.5 -28 q2.5 -25 7 -40.5 q4.5 -15.5 23.5 -47 q19 -31.5 47.5 -45 q28.5 -13.5 45.5 -13.5 ZM100 279 q23 14 46 18.5 q23 4.5 24 5.5 q1 0 3 0 l16 -3 q6 0 8.5 9 q2.5 9 2.5 13 q-2 12 -18 14 q-8 0 -28 -8.5 q-20 -8.5 -54 -48.5 ZM270 228 q31 -1 47.5 37 q16.5 38 16.5 54 q-1 15 -11.5 20.5 q-10.5 5.5 -20.5 5.5 q-14 -1 -21 -6.5 q-7 -5.5 -17 -23.5 l-10 -17 q-4 -7 -8 -23 q-4 -16 -4.5 -21 q-0.5 -5 0.5 -5 q0 -10 9.5 -15.5 q9.5 -5.5 18.5 -5.5 ZM346 71 q34 -2 33 45 q-1 16 -4.5 30 q-3.5 14 -20 42.5 q-16.5 28.5 -41.5 28.5 q-14 -1 -20 -9 q-6 -8 -6.5 -18.5 q-0.5 -10.5 0.5 -12.5 q0 -4 4 -20 l9 -43 q13 -42 46 -43 ZM317 249 q38 1 55.5 -10 q17.5 -11 26.5 -40 q9 -29 9.5 -50 q0.5 -21 -2.5 -50 q-3 -27 -9.5 -33.5 q-6.5 -6.5 -11.5 -8.5 l-33 -8 q-26 -10 -26.5 -31 q-0.5 -21 6.5 -31 q7 -14 23 -14 q20 -1 41.5 17 q21.5 18 45 59 q23.5 41 23.5 99 q-1 34 -11.5 67.5 q-10.5 33.5 -38 61.5 q-27.5 28 -69.5 28 q-3 -1 -4.5 -1.5 q-1.5 -0.5 -2 -6.5 q-0.5 -6 -10.5 -27 q-10 -21 -12 -21 Z" /><glyph glyph-name="" unicode="&#x5b9a;" d="M428 75 q5 -2 20 -4.5 q15 -2.5 18.5 -4.5 q3.5 -2 3.5 -7 q-1 -18 -37.5 -57 q-36.5 -39 -69.5 -56 q-33 -17 -75 -16 q-39 0 -73 11 q-34 11 -41.5 17 q-7.5 6 -9 6.5 q-1.5 0.5 -8.5 -5 q-7 -5.5 -13 -5.5 q-12 -2 -26 5.5 q-14 7.5 -45 34.5 q-31 27 -36.5 41 q-5.5 14 -4.5 18 q0 6 9 19.5 q9 13.5 12 20.5 l10 38 q7 11 7 14 q-1 1 -7.5 5 q-6.5 4 -14 15 q-7.5 11 3 11.5 q10.5 0.5 -2.5 19.5 l-12 7 q-6 4 -6 16 q0 15 9 28.5 q9 13.5 37.5 40 q28.5 26.5 57 36 q28.5 9.5 33.5 13.5 l12 13 q25 25 62 26 q23 0 37 -6 q14 -6 20 -9 l25 -22 q2 -2 19 -6 q17 -4 57 -22 q40 -18 60 -50.5 q20 -32.5 19 -43.5 q-1 -5 -3 -9 l-10 -15 l0 -18 q-1 -5 -5.5 -12 q-4.5 -7 -5.5 -8 l-14 -14 l8 -17 q1 -3 1 -8 q-1 -9 -3.5 -17.5 q-2.5 -8.5 -10.5 -16 q-8 -7.5 -7 -7.5 ZM85 224 q1 -1 15 1 q14 2 26 9 l30 24 q26 17 84 17 q76 -1 94.5 -9.5 q18.5 -8.5 23.5 -11.5 l16 -17 q22 -24 49 -23 q19 0 20.5 14.5 q1.5 14.5 -11.5 30.5 q-27 32 -66.5 40 q-39.5 8 -44 10.5 q-4.5 2.5 -4.5 3.5 l-8 -12 q-3 -4 -23 -9 q-20 -5 -47 -4 q-17 0 -32.5 5 q-15.5 5 -22.5 11.5 q-7 6.5 -6 7.5 q-1 -1 -5.5 -3 q-4.5 -2 -14.5 -4 q-10 -2 -31.5 -11.5 q-21.5 -9.5 -41 -20.5 q-19.5 -11 -20.5 -23.5 q-1 -12.5 0 -12.5 q1 -13 20 -13 ZM119 -13 q17 -1 28 18.5 q11 19.5 15 36.5 q4 17 4.5 49 q0.5 32 -6.5 44 q-10 14 -27 14 q-23 -1 -33 -21 l-11 -40 l-22 -46 q-4 -9 -1 -9 q3 -1 11 -23 q4 -12 20.5 -17.5 q16.5 -5.5 21.5 -5.5 ZM191 164 l92 -3 l90 -1 q44 -1 50.5 10.5 q6.5 11.5 7 17 q0.5 5.5 -3.5 11.5 q-5 5 -26 14 l-21 9 q-9 2 -27 4 l-65 4 l-37 0 q-167 0 -166 -34 q0 -6 5.5 -15.5 q5.5 -9.5 34.5 -11.5 l66 -5 ZM173 57 q-10 -37 -14 -43.5 q-4 -6.5 -3 -8.5 q1 -5 40.5 -22.5 q39.5 -17.5 100.5 -17.5 q49 -1 91 20 q42 21 43.5 32.5 q1.5 11.5 1.5 15.5 q-2 17 -47 9 l-56 -11 q-18 -4 -52.5 0 q-34.5 4 -53 8.5 q-18.5 4.5 -51.5 17.5 ZM240 295 q54 -4 61 7 q7 11 7.5 13.5 q0.5 2.5 -1.5 6.5 q-16 25 -64 25 q-45 -1 -50 -15.5 q-5 -14.5 -4 -17.5 q0 -4 10.5 -11 q10.5 -7 40.5 -8 ZM301 35 q3 34 3.5 60.5 q0.5 26.5 -0.5 34.5 q-4 22 -4 23 l-4 0 l-81 2 l-1 -86 q-1 -10 -0.5 -12.5 q0.5 -2.5 0 -4.5 q-0.5 -2 0.5 -2 q0 -2 4 -1.5 q4 0.5 15.5 -3.5 q11.5 -4 67.5 -10 ZM312 82 q71 -3 87 7 q16 10 15 23 q-1 7 -10.5 14 q-9.5 7 -91.5 8 l0 -52 Z" /><glyph glyph-name="" unicode="&#x61c2;" d="M183 338 q5 1 16.5 3 q11.5 2 14.5 5 l14 19 q7 7 22 7 q10 -1 22 -5.5 q12 -4.5 16 -7.5 l10 -12 l14 -2 l14 -3 q4 0 8.5 6 q4.5 6 6.5 6 q25 -5 43 -22 l17 -17 l23 -15 l21 -23 q6 -7 7 -9 q0 -2 -0.5 -6.5 q-0.5 -4.5 1.5 -8.5 l9 -14 q2 -5 3 -11 q0 -11 -8 -21 q30 -18 30 -36 q-1 -5 -2 -8 l-8 -15 l8 -11 q1 -4 1.5 -11.5 q0.5 -7.5 -5.5 -22.5 q-7 -17 -17.5 -22 q-10.5 -5 -10.5 -6 l3 -13 q0 -2 0 -3 q-1 -4 -1 -5 l-12 -16 l5 -4 q2 -4 -1 -9 q-8 -13 -45 -47 q-37 -34 -71 -39 q-34 -5 -73 -5 q-18 -1 -25.5 0.5 q-7.5 1.5 -25.5 7.5 q-18 6 -23 11 q-5 5 -6 6 l-14 -5 q-1 -1 -2 0 q-30 2 -51.5 27.5 q-21.5 25.5 -34 45 q-12.5 19.5 -18.5 37 q-6 17.5 -7 20.5 l-16 17 q-13 17 -13 50 q0 22 6.5 36 q6.5 14 12.5 22 l17 22 l19 44 q7 14 33 45 q26 31 52 32 q16 0 21 -14 ZM110 125 l7 76 q0 1 -1 14.5 q-1 13.5 -13 15.5 q-21 1 -33 -20.5 q-12 -21.5 -15.5 -32.5 q-3.5 -11 -4 -33 q-0.5 -22 5.5 -30 q9 -15 27 -15 q13 -1 19.5 8.5 q6.5 9.5 7.5 16.5 ZM86 232 q12 6 19 6 q9 -1 13.5 -8.5 q4.5 -7.5 5 -25.5 q0.5 -18 -4.5 -62 q-4 -26 -7.5 -33.5 q-3.5 -7.5 -8.5 -11 q-5 -3.5 -24 -5.5 q0 -1 -0.5 -1.5 q-0.5 -0.5 0 -0.5 q0.5 0 2.5 0 q2 0 1 -16 q-1 -16 8 -30 l18 -32 q16 -23 35 -21 q8 0 11 5 q3 5 4 14 l-2 44 l-3 101 q-1 5 -0.5 17.5 q0.5 12.5 3 63.5 q2.5 51 2.5 63 q-2 20 -12 20 q-14 -1 -27.5 -18 q-13.5 -17 -18.5 -30 l-10 -28 l-4 -11 l0 0 ZM160 128 l0 -7 q11 7 13.5 11.5 q2.5 4.5 3.5 14 q1 9.5 0.5 17.5 q-0.5 8 -3.5 16 l-8 12 l-6 10 l0 -74 ZM221 283 q-6 12 -2 13 q1 0 0.5 4.5 q-0.5 4.5 1.5 12.5 l2 11 q-9 -2 -16 -3 q-7 -1 -11.5 -2 q-4.5 -1 -11 -5.5 q-6.5 -4.5 -7.5 -7.5 q-1 -3 -1.5 -9.5 q-0.5 -6.5 8 -10 q8.5 -3.5 37.5 -3.5 ZM223 210 l90 -4 q78 -4 102 8.5 q24 12.5 24 22.5 q-1 5 -3 8.5 q-2 3.5 -11 11 q-9 7.5 -10.5 8 q-1.5 0.5 -11.5 -9.5 q-3 -3 -12 -3.5 q-9 -0.5 -19 7 q-10 7.5 -10 8.5 l-8 -1 l-129 -14 q-23 -3 -29.5 -7 q-6.5 -4 -7.5 -7 q-1 -3 -1.5 -15 q-0.5 -12 36.5 -13 ZM314 12 l-98 -4 q-20 -1 -24.5 -7.5 q-4.5 -6.5 -5 -9.5 q-0.5 -3 3.5 -8 q7 -12 32.5 -19 q25.5 -7 52.5 -6 q43 0 87.5 16 q44.5 16 53.5 29 q9 13 9 16 q-2 6 -22 4 l-89 -11 ZM288 200 q-3 -1 -38 1 q-50 1 -57.5 -12 q-7.5 -13 -2.5 -19 q5 -9 19 -9 q0 -1 33 -0.5 q33 0.5 40 6.5 q1 0 2 2 l3 23 l1 8 ZM278 76 q-24 0 -26 2 q-2 1 -4.5 5 q-2.5 4 -3 6.5 q-0.5 2.5 1.5 4.5 q4 7 23 8 q4 0 12 -1 l0 11 q-7 -2 -15 -1 q-18 0 -21 5.5 q-3 5.5 -3.5 7 q-0.5 1.5 1.5 4.5 q5 10 22 12 q7 0 17 -1 l2 19 q-25 1 -54.5 -11 q-29.5 -12 -35.5 -23.5 q-6 -11.5 -6.5 -22 q-0.5 -10.5 4.5 -17.5 q8 -15 40 -23.5 q32 -8.5 44 -4.5 q1 0 2 4 l0 11 l0 5 l0 0 ZM273 17 l2 33 q-30 3 -52 3 q-30 -1 -29 -17 q0 -7 10 -13.5 q10 -6.5 69 -5.5 ZM227 292 q-1 -12 3 -18 q4 -6 20 -6 q22 -1 28 17.5 q6 18.5 6 30.5 q-1 13 -7 23 q-6 10 -19 10 q-21 -1 -25.5 -17 q-4.5 -16 -5.5 -40 ZM282 17 l74 5 q3 0 3.5 0.5 q0.5 0.5 1 4 q0.5 3.5 2.5 11 q2 7.5 4 27.5 l3 33 q0 10 1 20 l0 32 q0 6 0 9 q-1 3 -2 14 q-1 11 -2 29 q-6 -1 -28.5 -3 q-22.5 -2 -27.5 -1 q-11 1 -13 1 q-2 -1 -2.5 -6 q-0.5 -5 -0.5 -12 l-7 -74 l-6 -90 ZM284 281 q35 -3 71 -3 q-2 5 -2 8 l-5 17 q-1 3 -1.5 8 q-0.5 5 -2 7.5 q-1.5 2.5 -10 3 q-8.5 0.5 -21 3 q-12.5 2.5 -25.5 2.5 q1 -6 1.5 -9 q0.5 -3 1.5 -9 q1 -6 -7 -28 ZM390 258 q6 0 9 5 q3 5 3.5 9 q0.5 4 -0.5 9 q-2 7 -12 29 q-10 22 -29 21 q-9 -1 -8 -11 q0 -3 1 -9.5 q1 -6.5 1.5 -16 q0.5 -9.5 3 -18.5 q2.5 -9 13 -14 q10.5 -5 18.5 -4 ZM368 24 q46 4 54 14 q8 10 8 13 q-2 9 -15 10 q-2 0 -3 0 l-27 -4 q-11 1 -11 -1 q-1 -1 0 -1 l-3 -13 l-1 -10 q-3 -9 -2 -8 ZM374 64 q62 9 74.5 25.5 q12.5 16.5 12.5 25.5 q-1 13 -16.5 24 q-15.5 11 -65.5 18 l0 -16 q2 -1 4.5 -0.5 q2.5 0.5 3.5 0.5 q14 -2 14.5 -9.5 q0.5 -7.5 -0.5 -8.5 q-4 -7 -23 -8 l-1 -14 q7 1 11 1 q7 -1 10 -4.5 q3 -3.5 3 -5.5 q-1 -2 -6 -9.5 q-5 -7.5 -20 -5.5 l-1 -13 ZM375 199 l2 -16 q0 -18 1 -19 l48 -7 l12 -2 q13 -1 17.5 6 q4.5 7 5 10 q0.5 3 -1.5 7 q-10 17 -42.5 21 q-32.5 4 -37.5 2 l-4 -2 ZM399 301 q7 -12 7.5 -20.5 q0.5 -8.5 3 -11 q2.5 -2.5 13.5 -1.5 q6 0 7 1.5 q1 1.5 1 4.5 q-1 3 -2 6.5 q-1 3.5 -17 14 q-16 10.5 -13 6.5 Z" /><glyph glyph-name="" unicode="&#x90fd;" d="M150 63 q-1 5 5.5 16 q6.5 11 41.5 11 q41 -2 50 -16 q9 -14 9 -21 q-1 -26 -43 -24 q-35 0 -45 6.5 q-10 6.5 -14 14.5 q-4 8 -4 13 ZM164 60 q0 0 0 -0.5 q0 -0.5 2.5 -10.5 q2.5 -10 44.5 -10 q31 -1 30 16 q-2 18 -43 21 q-15 0 -22 -2.5 q-7 -2.5 -11 -8.5 q-4 -6 -1 -5 ZM66 242 q-5 4 -5.5 6 q-0.5 2 0.5 6 q1 15 11.5 33 q10.5 18 37 31 q26.5 13 29.5 15 l14 16 q6 7 20 15.5 q14 8.5 23 8.5 q14 -1 22 -11 l3 -7 l3 -7 q21 10 41 12 q11 0 21.5 -6 q10.5 -6 11.5 -5 l14 11 q18 11 60 -13 q43 -27 64.5 -56 q21.5 -29 27 -39 q5.5 -10 7.5 -26.5 q2 -16.5 2.5 -20 q0.5 -3.5 0.5 -5.5 l-2 -23 q-1 -1 0 -1 q0 -2 1 -4 l11 -21 q2 -6 3.5 -16 q1.5 -10 2 -26 q0.5 -16 -12.5 -41 q-13 -25 -33.5 -43.5 q-20.5 -18.5 -26.5 -22.5 l-21 -13 l-21 -27 q-23 -29 -49 -29 q-10 -1 -22 4 q-12 5 -14 14 q-37 -14 -57 -14 q-43 -2 -76.5 19.5 q-33.5 21.5 -53.5 43 q-20 21.5 -27 35.5 q-7 14 -7 15 l-20 13 q-12 7 -20.5 24 q-8.5 17 -8.5 35 q0 8 7 22.5 q7 14.5 7 15.5 l-4 9 q-2 4 -2.5 13 q-0.5 9 6.5 24 q4 10 7.5 14 q3.5 4 24.5 22 ZM214 161 l-101 2 l-27 2 q-2 -1 -19 -17 q-17 -16 -16 -36 q0 -8 4.5 -17 q4.5 -9 10.5 -13.5 q6 -4.5 8 -5.5 l8 1 q3 -1 4 0 q0 0 -0.5 1 q-0.5 1 0.5 3 q0 4 6 21.5 q6 17.5 21.5 27 q15.5 9.5 28.5 11.5 l56 5 q2 1 16 15 ZM124 170 l63 0 q79 0 90.5 7 q11.5 7 12 19.5 q0.5 12.5 -2.5 18.5 q-14 24 -114 23 q-64 -2 -81.5 -12 q-17.5 -10 -23.5 -19.5 q-6 -9.5 -5 -15.5 q0 -5 3 -9.5 q3 -4.5 22.5 -8 q19.5 -3.5 35.5 -3.5 ZM148 308 q-34 -5 -44.5 -18.5 q-10.5 -13.5 -11 -19.5 q-0.5 -6 1.5 -7 q1 -3 10.5 -6 q9.5 -3 18.5 -2 q4 0 7 2 q3 2 4 12.5 q1 10.5 7 24 q6 13.5 7 14.5 ZM224 -33 q23 -1 48.5 13 q25.5 14 26 27.5 q0.5 13.5 0.5 16.5 l1 67 q-1 1 -8.5 15 q-7.5 14 -21 23 q-13.5 9 -75.5 9 q-55 -1 -77.5 -15 q-22.5 -14 -23.5 -33 q-1 -19 0 -22 q1 -30 23.5 -53.5 q22.5 -23.5 44 -35.5 q21.5 -12 62.5 -12 ZM134 241 q31 3 70 4 q0 6 1 9 l1 48 q1 25 -4 33 q-11 15 -30 1 q-9 -7 -15.5 -19 q-6.5 -12 -14 -36.5 q-7.5 -24.5 -8.5 -39.5 ZM213 312 l1 -45 q22 -1 29.5 4.5 q7.5 5.5 8.5 23.5 q1 18 -39 18 l0 -1 ZM214 244 q13 -2 23 -2.5 q10 -0.5 17.5 -2 q7.5 -1.5 8.5 -0.5 q7 0 18 23.5 q11 23.5 10 39.5 q-2 14 -12 19.5 q-10 5.5 -17 6.5 q-13 0 -26 -11 q24 -10 24.5 -26.5 q0.5 -16.5 -9 -22.5 q-9.5 -6 -15.5 -7 l-14 -1 l-8 -1 l0 -15 ZM312 178 l-6 -141 l0 -20 q-1 -32 6 -41 q6 -11 18 -10 q24 0 31.5 19.5 q7.5 19.5 7.5 23.5 q-1 2 -1 4 l-9 11 q-3 4 -3.5 14.5 q-0.5 10.5 3.5 18.5 q1 3 7.5 11.5 q6.5 8.5 7.5 11.5 q1 3 1 21 l0 41 l-10 18 q-4 6 -5.5 19.5 q-1.5 13.5 1.5 19.5 l7 14 q0 0 -3 10 q-1 2 -1 15 l-1 15 q-1 0 0 8 q0 5 4.5 8.5 q4.5 3.5 13.5 -1.5 q4 -4 6.5 -15 q2.5 -11 2.5 -13 q-1 -6 -3 -11 l-12 -19 q-7 -12 -6 -26 q0 -18 8.5 -32 q8.5 -14 19.5 -23.5 q11 -9.5 11 -18.5 q-1 -13 -4 -18 q-3 -5 -9 -9 l-17 -10 q-15 -12 -14 -32 q0 -10 4.5 -19 q4.5 -9 17.5 -9 q29 -1 50.5 37 q21.5 38 21.5 61 q-1 9 -3.5 18.5 q-2.5 9.5 -4.5 14.5 l-9 16 q-2 3 -3.5 10.5 q-1.5 7.5 -0.5 10.5 q0 1 3 14 q3 13 2 37 q-2 22 -14 43 q-12 21 -41.5 38.5 q-29.5 17.5 -43.5 16.5 q-28 -3 -31 -34 l-1 -17 l-2 -20 l3 -81 Z" /><glyph glyph-name="" unicode="&#x8bfb;" d="M418 136 l1 -8 q6 -1 34.5 -3 q28.5 -2 28 -22.5 q-0.5 -20.5 -13.5 -34.5 q14 -7 14 -14 q-1 -18 -38.5 -53 q-37.5 -35 -55.5 -46.5 q-18 -11.5 -34 -10.5 q-11 0 -17 5 l-9 8 l-6 5 q-33 -28 -42.5 -31.5 q-9.5 -3.5 -30.5 -2.5 q-13 0 -25.5 5.5 q-12.5 5.5 -15.5 8.5 l-22 18 q-2 0 -13 -3 q-11 -3 -26 5 l-13 6 q-23 11 -48.5 43 q-25.5 32 -30 53 q-4.5 21 -5.5 40.5 q-1 19.5 -1 26.5 l0 17 q-1 0 -0.5 1 q0.5 1 0.5 2 q-1 1 -8.5 3.5 q-7.5 2.5 -13.5 12 q-6 9.5 -6 17.5 q0 8 1 14 q1 8 3.5 14 q2.5 6 8.5 13 l24 28 q0 1 1 2 l-1 6 q-1 0 0 1 q0 11 15.5 31 q15.5 20 45 45.5 q29.5 25.5 53.5 24.5 q6 -1 14 -3.5 q8 -2.5 11 -4.5 l8 -7 q0 -1 21 6 l31 4 l10 13 q6 7 21 7 q20 -1 32.5 -6.5 q12.5 -5.5 18.5 -10.5 l9 -10 q1 -1 17.5 -6.5 q16.5 -5.5 40.5 -21.5 q24 -16 36 -33.5 q12 -17.5 12 -24.5 l-4 -11 l24 -20 q6 -7 10.5 -22 q4.5 -15 4.5 -26 q-1 -16 -7.5 -27 q-6.5 -11 -19.5 -18.5 q-13 -7.5 -26 -7.5 q-7 -1 -18 3 ZM149 106 l3 83 q0 1 -0.5 21 q-0.5 20 -8 32.5 q-7.5 12.5 -26.5 13.5 q-17 0 -35.5 -9.5 q-18.5 -9.5 -26.5 -25 q-8 -15.5 -7 -24.5 q0 -9 4.5 -14.5 q4.5 -5.5 12.5 -7.5 l16 -3 q2 -1 3 -4 q0 -2 -2.5 -11 q-2.5 -9 -2 -14 q0.5 -5 0 -16 q-0.5 -11 0.5 -13 q0 -35 4 -53.5 q4 -18.5 15 -38 q11 -19.5 26 -28 q15 -8.5 24 -7.5 q23 2 29.5 29.5 q6.5 27.5 6.5 40.5 q-1 13 -5 20.5 q-4 7.5 -8 9.5 q-3 0 -9 -0.5 q-6 -0.5 -6 0.5 q-4 0 -6 5 q-2 5 -2.5 9 q-0.5 4 0.5 5 ZM93 281 q0 -13 18 -13 q12 -1 31.5 5.5 q19.5 6.5 23.5 13.5 q4 7 6.5 16.5 q2.5 9.5 2.5 15.5 q-1 15 -17 17 q-21 1 -43.5 -19.5 q-22.5 -20.5 -21.5 -35.5 ZM272 206 l56 6 q42 4 56 -9 q2 -3 4 -5 l8 -22 q8 -19 31 -18 q18 0 25 11.5 q7 11.5 7.5 23 q0.5 11.5 -6.5 24.5 q-9 14 -24 23.5 q-15 9.5 -68 17.5 q-53 8 -76 8 q-109 -1 -110 -19.5 q-1 -18.5 0 -18.5 q0 -8 19.5 -18.5 q19.5 -10.5 77.5 -3.5 ZM234 99 q28 0 35 11.5 q7 11.5 7 17.5 q-1 2 -3.5 8 q-2.5 6 -5.5 7 q-1 0 -10 -0.5 q-9 -0.5 -28 5.5 q-19 6 -24 5 q-20 -4 -20.5 -14 q-0.5 -10 0.5 -10 q0 -32 49 -30 ZM357 37 q-7 0 -9 0 l-61 -4 q-7 -1 -10 0 l-21 2 q-2 -1 -9.5 -3 q-7.5 -2 -8.5 -2 l-26 0 q-11 -3 -17.5 -11.5 q-6.5 -8.5 -7 -16 q-0.5 -7.5 5.5 -15.5 q17 -30 62 -29 q28 0 54 23 q26 23 44 50 l4 6 l0 0 ZM270 328 q-46 -1 -61.5 -9.5 q-15.5 -8.5 -16 -19 q-0.5 -10.5 1.5 -12.5 q5 -12 34.5 -11.5 q29.5 0.5 30.5 -0.5 q1 -1 2 0 q1 0 2 3 q0 0 -0.5 4 q-0.5 4 2.5 15 q2 10 3 13 l1 10 l1 8 ZM345 100 l-72 -3 l-4 1 l-13 -5 q-4 -2 -22 -2 q-2 -1 -8.5 1.5 q-6.5 2.5 -9.5 2.5 q-5 -1 -11.5 -7 q-6.5 -6 -9 -9 q-2.5 -3 -1.5 -11 q0 -7 9 -20.5 q9 -13.5 114 -8.5 q118 5 125.5 21.5 q7.5 16.5 8 23 q0.5 6.5 -1.5 10.5 q-6 10 -35 9 l-69 -3 ZM255 151 q38 -1 38.5 13.5 q0.5 14.5 -2.5 19.5 q-2 2 -10.5 8 q-8.5 6 -10.5 6.5 q-2 0.5 -22 0.5 l-27 1 q-20 -5 -20.5 -14 q-0.5 -9 0.5 -9 q0 -25 54 -26 ZM269 271 q49 0 90 -5 q-2 11 -6.5 31 q-4.5 20 -15 35 q-10.5 15 -29 15.5 q-18.5 0.5 -25 -8.5 q-6.5 -9 -9.5 -33 l-4 -26 l-1 -9 l0 0 ZM292 104 q28 3 56 2.5 q28 -0.5 30 1.5 q0 0 -0.5 1 q-0.5 1 0 4 q0.5 3 1.5 12 q1 9 1 23 q-1 25 -10.5 41 q-9.5 16 -29.5 17 q-6 0 -12.5 -3 q-6.5 -3 -16 -16 q-9.5 -13 -12.5 -39 q-3 -26 -5.5 -35.5 q-2.5 -9.5 -1.5 -8.5 ZM332 -5 q22 -22 38 -23 q12 -1 35.5 11.5 q23.5 12.5 33 28 q9.5 15.5 9.5 21.5 q-1 6 -14 8 q-5 0 -7 0 l-20 -4 l-15 4 q-2 0 -14.5 -2 q-12.5 -2 -14.5 -3 q-2 -1 -26 -35 l-5 -6 l0 0 ZM350 322 q11 -29 12.5 -39 q1.5 -10 7.5 -10 q17 -2 27 -3.5 q10 -1.5 19 -0.5 q7 0 8 7 q1 7 -9 19 q-5 5 -12 10.5 q-7 5.5 -30.5 11 q-23.5 5.5 -22.5 5.5 Z" /><glyph glyph-name="" unicode="&#x591a;" d="M45 211 q-6 4 -9.5 10.5 q-3.5 6.5 7.5 25.5 q17 31 63.5 65.5 q46.5 34.5 70.5 48.5 q24 14 55 14 q5 -1 19 -5.5 q14 -4.5 16 -4.5 l13 -11 q1 -1 30.5 -1.5 q29.5 -0.5 85.5 -30.5 q56 -30 69 -55.5 q13 -25.5 13.5 -36 q0.5 -10.5 -4.5 -18.5 q-7 -10 -14 -17 l-13 -8 l-8 -5 q40 -23 42 -52 q2 -29 -13 -55 q-15 -27 -79 -86 q-64 -59 -151 -58 q-49 0 -105 29.5 q-56 29.5 -76.5 62 q-20.5 32.5 -19.5 37.5 q0 1 1.5 5.5 q1.5 4.5 3.5 6.5 l11 12 q-1 0 -3 5 q-2 5 -2 9 q-2 11 9 31 q-9 3 -16 7.5 q-7 4.5 -11.5 13 q-4.5 8.5 -4.5 16.5 q0 8 5 21 q5 13 15 24 ZM243 301 q10 -1 27.5 0 q17.5 1 21.5 1 q11 -1 27 -10 q16 -9 16 -25 q-1 -14 -18 -24 q-17 -10 -54 -9 q-39 0 -44.5 9.5 q-5.5 9.5 -5.5 22.5 l0 9 q-33 -20 -54 -27 q5 -7 4 -14.5 q-1 -7.5 -22 -14.5 l-49 -13 q-20 -7 -26.5 -16 q-6.5 -9 -5.5 -15 q0 -4 4 -10.5 q4 -6.5 18 -11 q14 -4.5 57 -0.5 l62 5 l86 12 q37 5 90 25 q53 20 59.5 31.5 q6.5 11.5 6.5 20.5 q-1 29 -30 45 q-29 16 -58.5 22.5 q-29.5 6.5 -36.5 7.5 l-39 0 q-15 1 -18 -1 l-12 -14 l-6 -6 l0 0 ZM86 241 q45 2 59 8 q14 6 48 24.5 q34 18.5 46.5 30 q12.5 11.5 11.5 23.5 q-1 3 -5.5 10 q-4.5 7 -20.5 8 q-25 0 -58 -17.5 q-33 -17.5 -57.5 -37.5 q-24.5 -20 -29.5 -29 q-5 -9 -5.5 -15 q-0.5 -6 11.5 -5 ZM321 158 q3 -9 3 -13 q-1 -6 -3 -12.5 q-2 -6.5 -2 -7.5 l-6 -6 l-7 -8 q21 2 41 2 q31 -1 31 -21 q-1 -18 -19 -28.5 q-18 -10.5 -49 -10.5 q-27 -1 -39.5 5.5 q-12.5 6.5 -13.5 9.5 q-1 3 -1.5 6.5 q-0.5 3.5 3.5 9.5 l-33 -9 l-76 -11 q5 -7 4.5 -11 q-0.5 -4 -6.5 -8.5 q-6 -4.5 -12 -3.5 q-17 2 -33.5 5.5 q-16.5 3.5 -22.5 -0.5 q-2 -2 -3.5 -4 q-1.5 -2 -2 -7 q-0.5 -5 4.5 -12 q9 -17 49.5 -39 q40.5 -22 95.5 -21 q67 1 122.5 31.5 q55.5 30.5 75.5 63 q20 32.5 19 56.5 q-1 11 -11 27.5 q-10 16.5 -74 18.5 q-18 0 -35 -2 ZM221 154 l-76 -7 q-7 -1 -12 -5 l-27 -11 q-25 -14 -23 -32 q0 -5 7 -17 q7 -12 49 -10 q94 4 135 27.5 q41 23.5 41 43.5 q-1 5 -6 13.5 q-5 8.5 -18 7.5 l-70 -10 Z" /><glyph glyph-name="" unicode="&#x65b9;" d="M417 191 q43 -36 43.5 -68 q0.5 -32 -3.5 -46 q-5 -18 -29.5 -61 q-24.5 -43 -65 -64.5 q-40.5 -21.5 -60.5 -21.5 q-39 -1 -53 22 q-14 23 -14.5 41 q-0.5 18 2.5 26 q2 7 8 17.5 q6 10.5 15 16.5 l21 12 q3 3 3.5 7 q0.5 4 -1.5 8 q-7 10 -24 11 q-13 0 -15 -13 l-12 -54 q-7 -27 -24.5 -54.5 q-17.5 -27.5 -37.5 -28.5 q-18 -1 -46 20 q-28 21 -43 39.5 q-15 18.5 -20 27.5 q-5 9 -5.5 16 q-0.5 7 3.5 16 q1 3 12.5 25 q11.5 22 15.5 36 l3 14 l15 63 q-53 6 -56 14.5 q-3 8.5 -3 13.5 q0 12 9.5 26 q9.5 14 31 31 q21.5 17 38.5 24 l36 13 l28 29 q26 26 63 27 q20 0 45.5 -11.5 q25.5 -11.5 39.5 -28.5 q14 -17 16 -18.5 q2 -1.5 24.5 -8 q22.5 -6.5 55.5 -33.5 q33 -27 33 -50 q-1 -8 -6 -17 q-5 -9 -43 -18 ZM309 229 l76 -6 q50 -4 50.5 9.5 q0.5 13.5 -4.5 21.5 q-9 12 -44 23.5 q-35 11.5 -57 14.5 l-21 -11 q-10 -5 -43 -3 q-64 3 -72 11 q-8 8 -9 8 q-12 -4 -33 -4.5 q-21 -0.5 -45.5 -15.5 q-24.5 -15 -25.5 -23.5 q-1 -8.5 1 -10.5 q3 -6 11 -7.5 q8 -1.5 48 -3.5 l44 1 l124 -4 ZM145 226 l-8 -60 q-3 -17 -13.5 -48.5 q-10.5 -31.5 -22.5 -53 q-12 -21.5 -13.5 -27.5 q-1.5 -6 -2 -11 q-0.5 -5 5.5 -14 q11 -19 28.5 -29 q17.5 -10 29.5 -9 q15 1 26 16.5 q11 15.5 16 41.5 l12 71 l3 26 l2 11 l5 61 q0 4 0.5 5.5 q0.5 1.5 0.5 8.5 q-1 9 -2.5 10 q-1.5 1 -7.5 0 q-6 -1 -32 0 l-18 1 l-9 0 l0 0 ZM192 306 q0 -22 92 -20 q39 0 39.5 13 q0.5 13 -3.5 20 q-16 25 -70 25 q-44 -1 -51.5 -18.5 q-7.5 -17.5 -6.5 -19.5 ZM213 121 q18 1 26 2 q8 1 10 2 q7 0 39 -3 q32 -3 39.5 -14.5 q7.5 -11.5 8 -26.5 q0.5 -15 -1.5 -21 q-5 -13 -11.5 -17.5 q-6.5 -4.5 -11.5 -5.5 l-17 -2 q-7 -2 -11 -10 q-4 -8 -4.5 -13 q-0.5 -5 0.5 -14 q0 -19 4.5 -27.5 q4.5 -8.5 24.5 -8.5 q55 -1 88 51.5 q33 52.5 31 90.5 q-5 55 -52.5 71.5 q-47.5 16.5 -83.5 16.5 l-46 -1 q-19 -1 -20 -1.5 q-1 -0.5 -2.5 -12 q-1.5 -11.5 -2.5 -18.5 l-5 -30 l-2 -8 l0 0 Z" /><glyph glyph-name="" unicode="&#x4e2a;" d="M362 135 q0 -8 0.5 -14 q0.5 -6 0.5 -18 q-1 -29 -6 -58 q-5 -29 -30 -73 q-25 -44 -73 -44 q-27 -1 -45.5 14.5 q-18.5 15.5 -40.5 53.5 q-22 38 -22 92 q-1 19 3 47 q-10 -2 -26 -1 q-70 1 -84 26.5 q-14 25.5 -14 37.5 q0 12 6 28 q10 28 37.5 50.5 q27.5 22.5 48.5 32.5 l50 23 q6 2 38.5 23.5 q32.5 21.5 56.5 22.5 q11 0 22.5 -6 q11.5 -6 23 -16.5 q11.5 -10.5 14.5 -16.5 q3 -6 4.5 -7.5 q1.5 -1.5 12.5 -6.5 l69 -33 q37 -19 55.5 -46.5 q18.5 -27.5 17.5 -49.5 q-1 -15 -16 -41 q-15 -26 -64 -27 q-20 -1 -39 7 ZM183 312 l-54 -22 q-42 -17 -58 -41 q-16 -24 -15 -38 q0 -18 18.5 -29 q18.5 -11 45.5 -10 q44 1 95.5 27 q51.5 26 61.5 45 q10 19 17.5 40.5 q7.5 21.5 7.5 29.5 q-1 6 -9 20.5 q-8 14.5 -38 13.5 q-8 -1 -17 -5 q-9 -4 -29.5 -16.5 q-20.5 -12.5 -25.5 -14.5 ZM253 -39 q34 0 51 27 q17 27 22.5 66.5 q5.5 39.5 5.5 59.5 q-1 39 -18.5 67.5 q-17.5 28.5 -45.5 30.5 q-17 1 -41.5 -13.5 q-24.5 -14.5 -33 -27 q-8.5 -12.5 -11.5 -46.5 q-3 -34 -2 -43 q0 -6 3 -35.5 q3 -29.5 23 -58 q20 -28.5 47 -27.5 ZM280 241 q37 -37 66.5 -56.5 q29.5 -19.5 59.5 -17.5 q26 1 35 16.5 q9 15.5 9.5 28.5 q0.5 13 -9.5 29 q-14 21 -46 36 l-58 22 q-16 5 -27 14 q-6 -26 -11.5 -42 q-5.5 -16 -18.5 -30 Z" /><glyph glyph-name="" unicode="&#x679c;" d="M141 238 q-1 5 5 16.5 q6 11.5 35 12.5 q22 0 22.5 -12.5 q0.5 -12.5 -2.5 -16.5 q-5 -8 -23 -11.5 q-18 -3.5 -21 -2.5 q-11 0 -13.5 5.5 q-2.5 5.5 -2.5 8.5 ZM148 293 q1 11 14.5 18.5 q13.5 7.5 28.5 7.5 q18 -1 18.5 -11 q0.5 -10 -1.5 -13 q-8 -13 -43 -13 q-16 -1 -17 4.5 q-1 5.5 0 6.5 ZM299 298 q1 15 19 17 q8 0 21 -7 q13 -7 13.5 -12.5 q0.5 -5.5 -0.5 -7.5 q-4 -8 -20 -8 q-18 -1 -25.5 4.5 q-7.5 5.5 -8 9 q-0.5 3.5 0.5 4.5 ZM300 241 q1 16 27 18 q15 0 25 -6.5 q10 -6.5 10 -13.5 q-1 -4 -5 -10.5 q-4 -6.5 -20 -6.5 q-39 -1 -37 19 ZM68 172 q-21 9 -27 20.5 q-6 11.5 -6.5 24 q-0.5 12.5 11.5 34.5 q16 28 66.5 74.5 q50.5 46.5 138.5 46.5 q90 -1 150.5 -55.5 q60.5 -54.5 66.5 -71.5 q6 -17 6 -24 q-1 -14 -7 -26 q-6 -12 -22 -25 q26 -15 31.5 -25.5 q5.5 -10.5 6 -28.5 q0.5 -18 -24.5 -38 q4 -4 7 -8 q3 -4 3.5 -10 q0.5 -6 -4.5 -16 q-16 -28 -47 -50.5 q-31 -22.5 -49.5 -30.5 q-18.5 -8 -22.5 -7 q-2 0 -4 1 l-18 7 l-17 -16 q-5 -4 -18 -9.5 q-13 -5.5 -28 -4.5 q-23 0 -33 7 q-10 7 -35 37 q-16 -12 -34 -12 q-23 -1 -60.5 20 q-37.5 21 -49 43.5 q-11.5 22.5 -11.5 31.5 q-1 10 9 19 q-5 4 -9.5 9 q-4.5 5 -7.5 14.5 q-3 9.5 -3 19.5 q0 10 6.5 21 q6.5 11 35.5 28 ZM334 146 l-123 -1 l-106 -2 q-25 -1 -32.5 -6 q-7.5 -5 -12.5 -12.5 q-5 -7.5 -4 -10.5 q0 -3 6 -11.5 q6 -8.5 34.5 -25 q28.5 -16.5 172.5 -13.5 q46 0 113.5 9 q67.5 9 68 38 q0.5 29 -53.5 32 l-63 3 ZM197 59 q-37 -1 -64 6 l-34 9 l-8 2 q-2 -6 -3 -7.5 q-1 -1.5 -11 -8.5 q-10 -7 -11 -10.5 q-1 -3.5 -1.5 -7.5 q-0.5 -4 4.5 -11 q9 -18 28.5 -29 q19.5 -11 40.5 -9 q28 1 39.5 16 q11.5 15 14.5 23 l3 18 l2 9 l0 0 ZM203 189 l-3 -38 l81 1 l40 -1 q1 6 1 10 l-2 17 l0 8 q74 -1 89.5 7 q15.5 8 20.5 18 q5 10 5.5 24 q0.5 14 -8.5 32 q-15 27 -61 52.5 q-46 25.5 -116 26.5 q-74 0 -127 -30.5 q-53 -30.5 -52 -75.5 q0 -48 62 -50.5 q62 -2.5 70 -0.5 ZM318 60 q-30 -4 -58 -4 q-44 -1 -51 1.5 q-7 2.5 -7.5 -2.5 q-0.5 -5 0.5 -7 q1 -24 7.5 -49.5 q6.5 -25.5 53.5 -25.5 q17 -1 33.5 9 q16.5 10 18.5 28.5 q2 18.5 3 49.5 ZM361 -14 q24 1 44.5 15 q20.5 14 25 24 q4.5 10 4.5 14 q-1 2 -6 10.5 q-5 8.5 -31 10.5 q-52 2 -63 -17 q-11 -19 -11.5 -24.5 q-0.5 -5.5 0.5 -5.5 q0 -7 8.5 -17.5 q8.5 -10.5 28.5 -9.5 Z" /><glyph glyph-name="" unicode="&#x597d;" d="M192 319 q12 22 30.5 36.5 q18.5 14.5 61.5 15.5 q33 0 56.5 -13 q23.5 -13 50 -35 q26.5 -22 33.5 -30.5 q7 -8.5 16 -23.5 q9 -15 8 -26 q-1 -5 -2.5 -8 q-1.5 -3 -18.5 -24 q43 -13 52 -27.5 q9 -14.5 9.5 -32 q0.5 -17.5 -11.5 -33.5 q-6 -8 -16 -16.5 q-10 -8.5 -38 -17.5 q-1 -2 -0.5 -10 q0.5 -8 -3.5 -21 q-9 -27 -17 -40.5 q-8 -13.5 -25 -33 q-17 -19.5 -35 -31.5 q-18 -12 -48 -12 q-15 -1 -27 7 l-10 6 q-11 5 -14.5 8.5 q-3.5 3.5 -3.5 4.5 l-22 -11 q-6 -3 -18 -1 q-14 1 -36 13 l-15 -6 q-2 -1 -3 0 q-28 2 -72.5 44.5 q-44.5 42.5 -44.5 67.5 q-1 7 4.5 15 q5.5 8 5.5 9 q-1 1 -5.5 7.5 q-4.5 6.5 -8.5 21.5 q-4 15 -4 21.5 q0 6.5 1 21.5 q0 9 2 13 l7 19 l-7 13 q-2 2 -1 7 q0 31 42 67 l27 22 l16 20 q6 7 23.5 21 q17.5 14 32.5 14 q6 -1 16 -6.5 q10 -5.5 12 -16.5 l0 -14 l1 -5 l0 0 ZM121 210 q-6 -1 -8.5 0 q-2.5 1 -2.5 2 q-1 0 -6 -2.5 q-5 -2.5 -20.5 -1 q-15.5 1.5 -19.5 -1.5 q-3 -3 -7 -15 l-4 -12 q-3 -9 -2 -21 q0 -37 16.5 -65.5 q16.5 -28.5 54 -68.5 q37.5 -40 74.5 -41 q21 -1 22 15.5 q1 16.5 -5 36.5 q-6 20 -31 39 l-37 27 q-22 15 -28 29 q-6 14 -6 35 q-1 17 3 26 l7 18 l0 0 ZM184 85 q12 34 17 53 q5 19 5 65 q-1 25 -7.5 57 q-6.5 32 -61.5 33 q-44 0 -56.5 -14 q-12.5 -14 -21.5 -28.5 q-9 -14.5 -7 -22.5 q3 -14 14 -14 l0 0 l57 4 q14 -1 19.5 -11 q5.5 -10 6 -18.5 q0.5 -8.5 -0.5 -12.5 l-6 -20 q-5 -16 -9 -20.5 q-4 -4.5 -3 -5.5 q0 -3 11.5 -15.5 q11.5 -12.5 35.5 -25.5 l7 -4 l0 0 ZM141 3 q-43 35 -69 74 q-10 -11 -12 -15 q-2 -4 -1 -10 q0 -13 6 -24 q6 -11 23 -26 q17 -15 33 -15 q8 -1 20 16 ZM99 291 q39 9 46 9 q1 -1 8.5 -2 q7.5 -1 8.5 0 q0 0 1 4 l4 18 q0 1 0 4 q-1 15 -10 15 q-9 -1 -20.5 -6.5 q-11.5 -5.5 -37.5 -41.5 ZM385 203 q-2 7 -1.5 13.5 q0.5 6.5 3.5 11 q3 4.5 15 13.5 q12 9 13.5 11 q1.5 2 1.5 9 q-1 9 -3.5 18 q-2.5 9 -30.5 37.5 q-28 28.5 -85 29.5 q-38 0 -56 -11 q-18 -11 -21.5 -17.5 q-3.5 -6.5 -4 -18.5 q-0.5 -12 3.5 -17 q7 -14 29 -14 q3 -1 28 2.5 q25 3.5 32 3.5 q19 -1 20 -12.5 q1 -11.5 -1 -13.5 q-2 -2 -5 -3 l-19 -7 q-10 -5 -14.5 -10.5 q-4.5 -5.5 -5 -13 q-0.5 -7.5 9.5 -7.5 l78 -1 l13 -3 ZM321 102 q140 0 140 45 q-1 7 -7 17.5 q-6 10.5 -25 23.5 q-19 13 -119 12 q-51 -1 -66 -11 q-15 -10 -21 -23.5 q-6 -13.5 -4 -18.5 q3 -15 12 -30.5 q9 -15.5 90 -14.5 ZM388 98 l-12 -1 l-79 -2 q0 -8 1.5 -17.5 q1.5 -9.5 1.5 -11.5 q-2 -15 -14 -16 l-16 2 l-1 0 q-9 -1 -14 -9.5 q-5 -8.5 -6 -19.5 q-1 -11 11 -29 q9 -17 19 -22.5 q10 -5.5 26 -4.5 q42 1 55.5 22.5 q13.5 21.5 21.5 45.5 q8 24 8 41 q-1 6 -2 22 Z" /><glyph glyph-name="" unicode="&#x540e;" d="M325 88 q33 2 44.5 -5.5 q11.5 -7.5 12 -14 q0.5 -6.5 -2.5 -11.5 q-14 -23 -57 -24 q-43 -2 -51.5 11 q-8.5 13 -4.5 14 q0 0 0.5 0 q0.5 0 2.5 12.5 q2 12.5 56 17.5 ZM447 242 q29 -25 29 -50 q-1 -8 -5.5 -16.5 q-4.5 -8.5 -22.5 -21.5 q30 -17 30.5 -46 q0.5 -29 -10.5 -50 q-9 -17 -37 -44.5 q-28 -27.5 -62 -54 q-34 -26.5 -90 -25.5 q-27 0 -53.5 9 q-26.5 9 -34.5 17 q-8 8 -9 8.5 q-1 0.5 -8 -10.5 q-6 -9 -19 -9 q-30 -1 -78 48.5 q-48 49.5 -48 71.5 l0 5 l16 60 q3 11 4.5 40 q1.5 29 9 57.5 q7.5 28.5 40.5 63.5 q33 35 69 55.5 q36 20.5 97 21.5 q53 0 82 -15.5 q29 -15.5 68 -49.5 q39 -34 39 -53 q-1 -7 -7 -12 ZM163 26 l-4 80 q-1 1 0 28 l0 41 q1 31 11 52.5 q10 21.5 15 26.5 q5 5 27.5 17 q22.5 12 63.5 12 q38 -1 71 -7 l59 -12 q20 -5 21 2 q1 7 -4 16 q-15 22 -52.5 43 q-37.5 21 -105.5 22 q-57 0 -106 -28.5 q-49 -28.5 -60.5 -61.5 q-11.5 -33 -14 -48 q-2.5 -15 -2.5 -22 l0 -28 q-1 -10 -3 -24 q-2 -14 -6 -25 l-13 -31 q-2 -7 -2.5 -20.5 q-0.5 -13.5 10.5 -31.5 q10 -19 33 -35.5 q23 -16.5 34 -15.5 q11 0 19 13.5 q8 13.5 8.5 24 q0.5 10.5 0.5 12.5 ZM169 180 l5 1 l91 1 l134 -3 q31 -1 37 4 q7 6 7.5 15.5 q0.5 9.5 -2.5 16.5 q-12 21 -73 28 l-63 7 q-8 0 -22.5 -0.5 q-14.5 -0.5 -40 0 q-25.5 0.5 -35 -2.5 q-9.5 -3 -13.5 -2.5 q-4 0.5 -5 0.5 q-4 -3 -12.5 -26.5 q-8.5 -23.5 -7.5 -30.5 l0 -8 l0 0 ZM294 -37 q98 3 128.5 55.5 q30.5 52.5 29.5 70.5 q-2 22 -19 33.5 q-17 11.5 -60 19.5 q-43 8 -56 9 q-76 1 -107 -19.5 q-31 -20.5 -36 -34 q-5 -13.5 -5.5 -24.5 q-0.5 -11 0.5 -14 q0 -17 5.5 -34 q5.5 -17 21 -41 q15.5 -24 98.5 -21 Z" /><glyph glyph-name="" unicode="&#x4f1a;" d="M122 320 l43 19 q6 2 35.5 19 q29.5 17 49.5 15 q2 -1 5 -1 l19 -6 l11 3 q1 0 4 0 q20 -2 92 -43.5 q72 -41.5 82 -63 q10 -21.5 12 -28.5 q2 -7 2.5 -12 q0.5 -5 -4.5 -14 q-5 -8 -9 -10 l-19 -10 q-1 -2 0 -5 q0 -6 1 -7 l29 -19 q9 -7 11 -16 q2 -9 2 -13 q-1 -6 -3 -14.5 q-2 -8.5 -3 -10.5 l-12 -17 l7 -15 q0 -2 0 -4 q-1 -8 -3.5 -19.5 q-2.5 -11.5 -39.5 -46.5 q-37 -35 -49 -41.5 q-12 -6.5 -26 -7.5 q-2 -1 -3 0 l-16 8 l-3 -3 q-3 -3 -9.5 -4 q-6.5 -1 -33 -11 q-26.5 -10 -56.5 -9 q-32 0 -81 18 q-49 18 -74.5 58.5 q-25.5 40.5 -25.5 48.5 q-1 0 0 1 l3 15 q-1 1 -14 9.5 q-13 8.5 -18.5 21 q-5.5 12.5 -5.5 22.5 q1 20 23 32 l28 9 q0 0 0.5 0.5 q0.5 0.5 0.5 5.5 l0 5 q-1 1 -14 7 q-13 6 -19.5 15 q-6.5 9 -7.5 21.5 q-1 12.5 12 31.5 q14 22 37.5 40.5 q23.5 18.5 39.5 25.5 ZM323 155 l-88 0 l-94 -3 q-53 -2 -64 -9 q-11 -7 -17 -15 q-6 -8 -5 -11 q0 -3 5.5 -11 q5.5 -8 16 -15 q10.5 -7 56.5 -13 q46 -6 81 -5 q84 0 156 10.5 q72 10.5 77 20 q5 9.5 5.5 14.5 q0.5 5 -7 18 q-7.5 13 -57.5 16 l-65 3 ZM141 221 l60 12 q0 0 33.5 17.5 q33.5 17.5 43.5 35 q10 17.5 10 29.5 q-1 17 -18.5 26.5 q-17.5 9.5 -47.5 -2.5 l-48 -20 q-6 -3 -43.5 -16 q-37.5 -13 -50.5 -33 q-13 -20 -13.5 -29.5 q-0.5 -9.5 5.5 -15.5 q2 -3 12.5 -10 q10.5 -7 25.5 -6 q2 0 13 5 q11 5 18 7 ZM355 -5 q-11 23 -10 32 l2 11 l1 10 l-75 -12 q-41 -7 -57.5 1 q-16.5 8 -15.5 16 q0 3 4 13 q-31 -1 -61 3 q-30 4 -36.5 6.5 q-6.5 2.5 -7.5 2.5 q-2 -1 -3 -3 l-4 -6 q-3 -5 -3.5 -15 q-0.5 -10 9.5 -26 q14 -25 48.5 -44 q34.5 -19 80.5 -19 q58 -1 128 30 ZM256 166 l108 -3 q36 -2 40 4 q4 6 4 14 l0 4 q-1 12 -18.5 21.5 q-17.5 9.5 -44 16 q-26.5 6.5 -84.5 6.5 q-96 -2 -120.5 -15.5 q-24.5 -13.5 -27 -18 q-2.5 -4.5 -3 -8.5 q-0.5 -4 2.5 -8 q7 -15 41 -14 l102 1 ZM288 337 q7 -13 7.5 -24.5 q0.5 -11.5 -3.5 -17.5 l-12 -19 l0 -2 q-1 -2 0 -2 q0 -7 19 -18 l13 -9 l22 -10 q12 -6 13 -6 l34 -9 q16 -9 19 -8 q11 0 25 7 q14 7 14.5 18 q0.5 11 -9.5 27 q-10 16 -36 30 l-70 35 q-18 8 -36 8 ZM380 -17 q4 0 23 8.5 q19 8.5 29.5 27.5 q10.5 19 10.5 31 q-2 26 -41 26 q-25 -1 -33.5 -7.5 q-8.5 -6.5 -13 -19 q-4.5 -12.5 -3.5 -18.5 q0 -2 2.5 -16.5 q2.5 -14.5 8.5 -23.5 q6 -9 17 -8 Z" /><glyph glyph-name="" unicode="&#x5df1;" d="M83 223 q-25 6 -29 11 q-4 5 -4.5 13 q-0.5 8 6.5 20 q5 9 49.5 57.5 q44.5 48.5 150.5 48.5 q58 -1 93.5 -21 q35.5 -20 74 -55.5 q38.5 -35.5 48.5 -56.5 q10 -21 10.5 -38.5 q0.5 -17.5 -2.5 -26.5 q-4 -12 -29 -42 q22 -13 32 -28 q10 -15 -9 -47 q-13 -22 -44.5 -53 q-31.5 -31 -67.5 -52 q-36 -21 -93 -20 q-48 0 -96 18.5 q-48 18.5 -95 70 q-47 51.5 -50 72 q-3 20.5 -3 31.5 q0 16 4 30 q4 14 15.5 30 q11.5 16 38.5 38 ZM270 137 l65 -2 q53 -2 76 13 q22 14 29.5 35 q7.5 21 7.5 36 q-1 15 -16 42.5 q-15 27.5 -61 54 q-46 26.5 -118 26.5 q-80 -1 -119 -24 q-39 -23 -44.5 -33.5 q-5.5 -10.5 -6 -15 q-0.5 -4.5 2.5 -6.5 q7 -11 40 -7 l78 9 q27 3 85.5 2.5 q58.5 -0.5 57.5 -32.5 q-1 -9 -7.5 -12.5 q-6.5 -3.5 -46.5 -4.5 l-81 -2 q-2 -1 -49.5 -7.5 q-47.5 -6.5 -66 -18.5 q-18.5 -12 -26.5 -28 q-8 -16 -9.5 -24 q-1.5 -8 -2 -32 q-0.5 -24 15.5 -49 q20 -36 72.5 -64.5 q52.5 -28.5 126.5 -27.5 q119 1 148.5 49 q29.5 48 28.5 63 q-2 15 -16.5 22.5 q-14.5 7.5 -20.5 7.5 q-12 -1 -23 -7.5 q-11 -6.5 -15 -10.5 l-20 -24 q-22 -20 -79 -19 q-71 0 -94 13 q-23 13 -23.5 27 q-0.5 14 3.5 20 q4 8 26.5 20 q22.5 12 81.5 11 Z" /><glyph glyph-name="" unicode="&#x5047;" d="M208 267 q-1 6 6 18.5 q7 12.5 22 12.5 q13 -1 17.5 -9.5 q4.5 -8.5 5 -15 q0.5 -6.5 -3.5 -12.5 q-9 -15 -23 -14 q-15 0 -19.5 9.5 q-4.5 9.5 -4.5 10.5 ZM176 -42 q-7 -9 -16 -9 q-28 -2 -65.5 40.5 q-37.5 42.5 -44.5 55 q-7 12.5 -15.5 33.5 q-8.5 21 -9.5 34 l4 51 q-1 10 2 14 l3 5 l-9 13 q-2 3 -2 15.5 q0 12.5 14 37.5 q15 27 42.5 55 q27.5 28 53.5 44 q26 16 40 15 l15 -6 l22 15 q8 5 31 5.5 q23 0.5 33.5 -8.5 q10.5 -9 11 -9.5 q0.5 -0.5 14 5 q13.5 5.5 20.5 6.5 q40 0 102.5 -58.5 q62.5 -58.5 63.5 -85 q1 -26.5 -1 -34.5 q-2 -6 -7 -12.5 q-5 -6.5 -5 -7.5 l9 -15 q2 -4 3 -15 q1 -11 1 -14 q-1 -8 -3.5 -19.5 q-2.5 -11.5 -13.5 -25.5 l7 -16 q3 -10 -4 -24 q-7 -13 -46.5 -53.5 q-39.5 -40.5 -57.5 -39.5 l-9 2 q-4 -1 -8.5 -6.5 q-4.5 -5.5 -21 -11 q-16.5 -5.5 -24.5 -4.5 q-20 0 -30 7 l-9 8 l-21 -13 q-5 -3 -15 -2 q-31 1 -54 28 ZM73 207 q2 -1 21.5 4 q19.5 5 30.5 16 q11 11 20 26 q9 15 12 23 l6 23 q5 16 4 21 q-3 10 -14 11 q-11 1 -28 -10 q-36 -23 -53 -54 q-17 -31 -17.5 -38.5 q-0.5 -7.5 0.5 -7.5 q0 -6 6.5 -10 q6.5 -4 11.5 -4 ZM137 225 q-39 -22 -53 -23 q-14 -1 -15.5 -3.5 q-1.5 -2.5 -6 -21 q-4.5 -18.5 -5 -28 q-0.5 -9.5 0.5 -20.5 q0 -27 6 -53.5 q6 -26.5 29.5 -60.5 q23.5 -34 41.5 -35 q12 -1 11.5 13.5 q-0.5 14.5 0.5 16.5 l1 19 q0 4 0 8 l-1 10 l-7 82 l-3 96 ZM232 95 q-28 8 -28.5 23.5 q-0.5 15.5 2.5 22.5 q2 6 5.5 10.5 q3.5 4.5 7.5 6.5 l21 8 l1 20 q0 9 10 15 l22 10 q20 12 24 34 q4 22 4 31 q-1 17 -11.5 35 q-10.5 18 -19.5 25.5 q-9 7.5 -27 8.5 q-16 0 -33.5 -10.5 q-17.5 -10.5 -30.5 -30.5 q-13 -20 -20.5 -58 q-7.5 -38 -8.5 -51 q-1 -13 -1.5 -25 q-0.5 -12 1.5 -27 l5 -60 q0 -3 4 -30 q4 -27 6 -35 q2 -8 15.5 -32.5 q13.5 -24.5 35.5 -24.5 q18 -1 28.5 17 q10.5 18 11 28.5 q0.5 10.5 -0.5 14.5 q-1 1 -2 2 q-1 1 -16 4 q-15 3 -23.5 14.5 q-8.5 11.5 -9 19.5 q-0.5 8 6.5 18 q7 10 21 16 ZM257 101 q23 0 28.5 10.5 q5.5 10.5 6 15.5 q0.5 5 -2.5 11 q-4 5 -14.5 10.5 q-10.5 5.5 -22.5 6.5 q-26 1 -33 -11 q-7 -12 -6 -16 q0 -2 1.5 -7 q1.5 -5 5.5 -13 q4 -8 37 -7 ZM253 35 q14 0 27.5 7 q13.5 7 13.5 19 q-1 5 -7 16 q-6 11 -37 12 q-21 0 -27.5 -8 q-6.5 -8 -7.5 -19 q-1 -11 10 -19.5 q11 -8.5 28 -7.5 ZM452 123 q0 29 -25.5 43 q-25.5 14 -60.5 15 q-12 0 -31.5 -3.5 q-19.5 -3.5 -29 -10 q-9.5 -6.5 -10.5 -12.5 l8 -18 l0 -10 q2 -12 24 -13 q4 -1 29 1.5 q25 2.5 31 -1.5 q5 -5 5.5 -12 q0.5 -7 -3.5 -14 q-6 -11 -21 -23.5 q-15 -12.5 -29 -19.5 l-38 -20 q-12 -8 -17 -16 q-5 -8 -5.5 -19.5 q-0.5 -11.5 3.5 -16.5 q8 -14 27 -13 q32 0 75 44.5 q43 44.5 55 70.5 q12 26 13 48 ZM302 315 q0 0 0.5 -0.5 q0.5 -0.5 3.5 -11 q3 -10.5 40 -16 q37 -5.5 37 -22.5 q-1 -6 -4 -9 q-3 -3 -13 -1.5 q-10 1.5 -25 0.5 q-35 -4 -34 -26 q0 -16 16.5 -27 q16.5 -11 73.5 -11 q20 -1 29 4 q9 5 14.5 15 q5.5 10 6.5 24 q1 14 -11 36 q-18 32 -33 41 q-15 9 -37.5 17 q-22.5 8 -38.5 8 q-10 -1 -14.5 -3 q-4.5 -2 -11 -10.5 q-6.5 -8.5 0.5 -7.5 ZM323 44 l13 7 q18 9 25 16.5 q7 7.5 7 8.5 q-1 0 -4 2.5 q-3 2.5 -8.5 15.5 q-5.5 13 -6.5 14 l-18 -2 l-20 3 q-6 -6 -6.5 -15.5 q-0.5 -9.5 0.5 -11.5 q0 -14 7 -26.5 q7 -12.5 11 -11.5 ZM369 -18 q9 -3 12 -3 q7 -1 21 7.5 q14 8.5 27.5 26.5 q13.5 18 13.5 27 q-1 4 -5 7 q-4 3 -5 3 q-3 -1 -18 -19 q-15 -18 -16 -19 l-18 -16 l-12 -14 l0 0 Z" /><glyph glyph-name="" unicode="&#x89e3;" d="M459 202 q19 -11 23 -19.5 q4 -8.5 4.5 -20 q0.5 -11.5 -2.5 -20.5 q-5 -15 -25 -23 q19 -10 23 -16.5 q4 -6.5 4 -13.5 q-1 -17 -17 -35.5 q-16 -18.5 -27 -25.5 l-20 -13 l-23 -31 q-9 -11 -32 -29.5 q-23 -18.5 -38 -16.5 q-12 0 -18.5 9 q-6.5 9 -8.5 34 l-1 11 q-2 -1 -3 -1 l-12 1 q-2 -1 -6.5 -13.5 q-4.5 -12.5 -22.5 -25 q-18 -12.5 -34 -12.5 q-5 -1 -7 1 l-9 4 l-16 -9 q-2 -1 -4 -1 q-1 -1 -12.5 1 q-11.5 2 -22 14.5 q-10.5 12.5 -13.5 12.5 l-12 -3 q-1 -1 -1 0 q-15 0 -46.5 29 q-31.5 29 -37.5 41 q-6 12 -13 44.5 q-7 32.5 -7 59 q0 26.5 1 34.5 l3 17 q2 19 7.5 25 q5.5 6 6.5 8 l-8 10 q-1 0 -1.5 1.5 q-0.5 1.5 -2 6.5 q-1.5 5 8.5 20 q18 30 62 68.5 q44 38.5 66 36.5 l8 -3 q1 -1 11 1.5 q10 2.5 16 3.5 q15 0 27.5 -3.5 q12.5 -3.5 13.5 -3.5 l30 11 q7 2 19 2 q65 -2 112 -45.5 q47 -43.5 59.5 -63.5 q12.5 -20 12.5 -32 q-1 -15 -15 -27 ZM123 44 l-4 27 q-28 2 -27 30 q0 11 5 21 q5 10 20 5 q-1 8 -0.5 11.5 q0.5 3.5 0 8 q-0.5 4.5 0.5 6.5 q0 3 1.5 8 q1.5 5 1.5 6 q-1 2 -12 8 q-11 6 -11.5 11.5 q-0.5 5.5 0.5 8.5 q0 7 10.5 25 q10.5 18 68.5 17 q20 -1 25.5 -11 q5.5 -10 6 -16.5 q0.5 -6.5 -6.5 -20.5 q-6 -12 -9 -11 l-9 -1 l-2 -47 q10 4 16 0 q6 -4 8.5 -8 q2.5 -4 3.5 -21 q1 -17 -6 -27 q-6 -8 -21 -5 l1 -27 q17 0 20.5 -7 q3.5 -7 4 -10 q0.5 -3 -0.5 -4 q-1 -1 -2 -2 l-14 -9 q-2 -2 -2.5 -2.5 q-0.5 -0.5 0.5 -3.5 l0 -5 q0 -4 6 -13.5 q6 -9.5 24 -9.5 q15 -1 24 14 q9 15 12 27 l3 24 q1 14 2 16 l2 63 q0 1 0 6 l0 17 q-1 3 -3 43.5 q-2 40.5 -9 51.5 q-7 11 -25.5 21 q-18.5 10 -44.5 11 q-24 0 -54 -9.5 q-30 -9.5 -39.5 -18.5 q-9.5 -9 -17 -22 q-7.5 -13 -12 -30 q-4.5 -17 -3 -34.5 q1.5 -17.5 1.5 -18.5 l0 -16 l13 -93 q1 -9 7 -17 q6 -8 14.5 -12.5 q8.5 -4.5 13.5 -3.5 q6 0 7 7 q0 0 0 1 l-3 36 q0 0 -0.5 1 q-0.5 1 2.5 3 q2 1 13 1 ZM76 253 q2 -1 16 6 q14 7 21 14 l23 31 q14 18 12 26 q-2 5 -7 5 q-8 -1 -28.5 -18.5 q-20.5 -17.5 -33 -36.5 q-12.5 -19 -9.5 -21 q0 -1 -0.5 -2 q-0.5 -1 2.5 -2.5 q3 -1.5 4 -1.5 ZM177 17 l-3 69 q-1 0 -1 13 l6 123 q0 1 0 3 q-1 4 -2 5 q-1 0 -3.5 -0.5 q-2.5 -0.5 -9.5 0 q-7 0.5 -11 0.5 q-14 -3 -17.5 -5.5 q-3.5 -2.5 -5.5 -14.5 q-2 -12 -2 -20 l-4 -64 q-2 -21 1 -21 l11 -92 q1 -13 9.5 -24.5 q8.5 -11.5 17.5 -11.5 q4 -1 8.5 8 q4.5 9 5 19 q0.5 10 0.5 13 ZM134 290 q21 6 22 6 q7 -1 8.5 -4 q1.5 -3 2.5 -10 l-4 -7 q6 0 13 1 q2 0 3 0 l36 -4 q2 2 8.5 16.5 q6.5 14.5 6.5 24.5 q-1 9 -8 14.5 q-7 5.5 -28 8.5 q-14 1 -39 -9 l-17 -30 l-4 -7 l0 0 ZM287 304 l47 -3 q24 -2 37.5 -9.5 q13.5 -7.5 15.5 -12 q2 -4.5 2.5 -10.5 q0.5 -6 -0.5 -8 q-2 -4 -5 -5 l-10 0 q-6 -1 -8.5 -6 q-2.5 -5 -3 -11 q-0.5 -6 3.5 -11 q8 -14 34 -15 q26 -2 31.5 6.5 q5.5 8.5 6.5 17 q1 8.5 1.5 14 q0.5 5.5 -6.5 20.5 q-25 44 -70.5 59 q-45.5 15 -68.5 15 q-24 -1 -31 -11.5 q-7 -10.5 -6 -16.5 q0 -6 5.5 -9 q5.5 -3 24.5 -4 ZM294 216 q22 0 32 6 q10 6 19.5 19 q9.5 13 10 24 q0.5 11 3.5 12 l-1 12 l0 3 q-1 2 -17 3 l-35 2 q-1 -1 -5.5 -8.5 q-4.5 -7.5 -8.5 -11.5 l-22 -20 q-4 -3 -4.5 -5.5 q-0.5 -2.5 -1 -5.5 q-0.5 -3 0.5 -3 q0 -10 7 -19 q7 -9 22 -8 ZM284 109 q15 -1 26 20 q11 21 14 31 l5 20 q2 7 2 11 q-1 15 -19 16 q-19 0 -31.5 -19 q-12.5 -19 -13 -31.5 q-0.5 -12.5 0.5 -14.5 q0 -22 3.5 -27.5 q3.5 -5.5 12.5 -5.5 ZM325 27 q44 -1 84.5 9 q40.5 10 40.5 39 q-1 5 -5 7.5 q-4 2.5 -30 5.5 q-1 0 -61 -4 l-31 -2 q-35 -5 -44 -17.5 q-9 -12.5 -8 -15.5 q1 -22 54 -22 ZM318 127 q14 4 23 -1 l8 58 q-9 2 -11 -1 q-2 -3 -3.5 -14 q-1.5 -11 -16.5 -42 ZM394 28 q-6 -2 -10 -2.5 q-4 -0.5 -24 -2.5 q-20 -2 -23 -3 q-2 -1 -2.5 -6 q-0.5 -5 -1.5 -13 q-1 -8 -1.5 -13 q-0.5 -5 3.5 -9 q2 -4 8 -4 q5 -1 23.5 7.5 q18.5 8.5 22.5 26.5 q4 18 5 19 ZM349 91 q51 -1 60 3 q1 0 0.5 4 q-0.5 4 2 4.5 q2.5 0.5 1.5 33.5 q-1 2 1.5 19.5 q2.5 17.5 -9.5 36.5 q-11 15 -23 16 q-22 0 -27 -36 l-5 -42 q-3 -21 -2 -29 l1 -10 ZM417 183 q3 -17 3.5 -24.5 q0.5 -7.5 0.5 -10.5 l0 -5 l0 -10 q15 3 22.5 6.5 q7.5 3.5 7 15 q-0.5 11.5 -5.5 18.5 q-5 7 -28 10 Z" /><glyph glyph-name="" unicode="&#x754c;" d="M184 272 q20 1 25 -7 q5 -8 5 -11 q-1 -12 -24.5 -17.5 q-23.5 -5.5 -26.5 -4.5 q-11 1 -13.5 7 q-2.5 6 -0.5 7 q1 1 3 12 q0 5 11.5 9 q11.5 4 20.5 5 ZM155 291 q0 3 6.5 15.5 q6.5 12.5 30.5 13.5 q27 0 27.5 -9 q0.5 -9 -2.5 -13 q-8 -12 -24.5 -15 q-16.5 -3 -28.5 -1 q-6 0 -8 4 q-2 4 -1 5 ZM305 301 q-2 14 20 15 q12 0 25 -7 q13 -7 12 -17 q-2 -11 -16 -11 q-39 -3 -41 20 ZM310 252 q0 4 2.5 10.5 q2.5 6.5 27.5 5.5 q21 -2 27 -11 q6 -9 6 -13 q-1 -14 -23 -14 q-22 -1 -31 6.5 q-9 7.5 -9.5 10.5 q-0.5 3 0.5 5 ZM57 190 q-13 10 -17 17 q-4 7 -4.5 17 q-0.5 10 9.5 27 q18 31 69.5 75 q51.5 44 137.5 44 q67 -1 109 -25 q42 -24 78 -59 q36 -35 35 -61 q-1 -9 -4.5 -15.5 q-3.5 -6.5 -19.5 -19.5 q48 -20 48 -62 q-1 -10 -3 -14.5 q-2 -4.5 -6 -10.5 q-4 -6 -11 -13.5 q-7 -7.5 -16.5 -12.5 q-9.5 -5 -11 -6.5 q-1.5 -1.5 -3 -8 q-1.5 -6.5 -5.5 -17.5 l-9 -21 q-8 -16 -40.5 -53.5 q-32.5 -37.5 -64.5 -34.5 q-16 1 -22.5 10 q-6.5 9 -11 39 q-4.5 30 -3.5 35 q0 5 1 16 q1 11 1.5 16 q0.5 5 4 10 q3.5 5 3.5 7 q-1 0 -2.5 3 q-1.5 3 -11 6.5 q-9.5 3.5 -15.5 9.5 l-35 -11 l-8 -2 q5 -20 5 -39 q-1 -41 -16.5 -68 q-15.5 -27 -35.5 -27 q-22 -1 -52 19.5 q-30 20.5 -36 28.5 q-6 8 -16 23.5 q-10 15.5 -8 23.5 q0 1 1 3 l9 12 q0 2 0 11 q-1 4 -2 6 q-1 2 -12 5 q-11 3 -25 11.5 q-14 8.5 -21.5 19 q-7.5 10.5 -7.5 24.5 q0 14 5 25 q9 19 40 37 ZM48 137 q-1 -8 4 -16 q5 -8 20.5 -16.5 q15.5 -8.5 42.5 -9.5 q56 -3 120 22 q64 25 69.5 34 q5.5 9 5.5 19 q-1 24 -30 27 q-8 0 -26.5 -3 q-18.5 -3 -21.5 -3 l-33 -13 q-19 -7 -43 -7 q-2 -1 -3 0 l-46 4 q-59 -10 -59 -38 ZM193 207 l110 -3 q37 -2 88.5 5.5 q51.5 7.5 52 24 q0.5 16.5 -5.5 28.5 q-17 29 -61.5 55.5 q-44.5 26.5 -120.5 25.5 q-57 -1 -105 -19.5 q-48 -18.5 -63.5 -45 q-15.5 -26.5 -14.5 -38.5 q0 -11 8 -20.5 q8 -9.5 46 -10.5 l66 -2 ZM160 -27 q9 -1 19 10 q10 11 13.5 21.5 q3.5 10.5 3.5 37.5 q-1 13 -2 22 q-1 9 -7.5 18 q-6.5 9 -10.5 10.5 q-4 1.5 -20 -1.5 l-23 -2 q-11 -3 -13.5 -8 q-2.5 -5 -2.5 -11 q-1 -2 0 -3 l3 -20 l-12 -19 q-1 -3 -1.5 -6.5 q-0.5 -3.5 0.5 -4.5 q0 -10 12.5 -27 q12.5 -17 40.5 -17 ZM287 126 q12 -11 22 -16 q10 -5 46.5 -12 q36.5 -7 52.5 -6 q42 2 50 16.5 q8 14.5 8.5 20.5 q0.5 6 -2.5 13 q-10 18 -44 23 l-70 10 l-33 7 q1 -6 1.5 -9 q0.5 -3 2 -13.5 q1.5 -10.5 -33.5 -33.5 ZM416 88 q-10 -3 -17 -3.5 q-7 -0.5 -65 1.5 q-58 2 24 5 l-9 -5 q-7 -4 -12 -25.5 q-5 -21.5 -6 -34.5 q-1 -13 -1.5 -24.5 q-0.5 -11.5 6.5 -20.5 q4 -7 13 -7 q22 -1 44 29.5 q22 30.5 24 67.5 q0 6 -1 11 q-1 5 0 6 Z" /><glyph glyph-name="" unicode="&#x5c31;" d="M115 192 q1 29 42 29 q42 -1 42 -23 q-1 -10 -15 -17.5 q-14 -7.5 -33 -6.5 q-37 0 -36 18 ZM282 333 q9 39 37 41 q9 0 18.5 -4 q9.5 -4 13.5 -7 l12 -11 l20 -5 q8 -3 32 -20 q24 -17 40.5 -37.5 q16.5 -20.5 15.5 -28.5 q-1 -7 -9 -14 q14 -12 16.5 -20 q2.5 -8 3 -20 q0.5 -12 -5.5 -20 q-6 -8 -40 -16 q4 -15 4.5 -25.5 q0.5 -10.5 1.5 -13.5 q1 -3 1 -4 l-2 -10 l34 -11 q5 -3 9.5 -10 q4.5 -7 5 -16 q0.5 -9 -6.5 -23 q-13 -24 -53.5 -68 q-40.5 -44 -67.5 -41 l-20 14 l-7 5 q-31 -37 -71 -36 q-7 0 -11 2 l-21 14 q-1 -1 -12 -7 q-11 -6 -20 -6 q-15 -1 -33 10 q-18 11 -31 24 q-13 13 -14 14 l-15 5 q-10 3 -31 20 q-21 17 -31 31.5 q-10 14.5 -13.5 27.5 q-3.5 13 -2.5 19 q0 5 2 14 q2 9 6.5 15 q4.5 6 4.5 7 q-1 0 -7 6 q-6 6 -11 19.5 q-5 13.5 -5 25 q0 11.5 2 18.5 q2 6 9.5 17.5 q7.5 11.5 10 14 q2.5 2.5 3 4 q0.5 1.5 -5.5 8.5 q-3 2 -3.5 3.5 q-0.5 1.5 -1 4 q-0.5 2.5 2.5 8.5 q5 13 10 22 q5 9 20 22 q15 13 24 19 l26 15 l20 22 q22 22 60 23 q14 0 19.5 -3.5 q5.5 -3.5 8.5 -5.5 l12 -12 l20 -5 q2 -1 26 -15 ZM226 254 l-77 -6 l-42 0 q-9 -3 -32.5 -19 q-23.5 -16 -24 -39 q-0.5 -23 7.5 -35 q12 -22 39.5 -31.5 q27.5 -9.5 80.5 -7.5 q43 1 55.5 8 q12.5 7 21.5 21 q9 14 10 39 q1 25 1 29 q-1 12 -7 21 q-6 9 -15.5 14.5 q-9.5 5.5 -17.5 5.5 ZM92 18 q8 -1 14 10 q6 11 8 23 q2 12 2.5 29.5 q0.5 17.5 -2.5 23.5 q-7 11 -23 11 q-31 -1 -32 -23.5 q-1 -22.5 0 -23.5 q0 -17 10 -33.5 q10 -16.5 23 -16.5 ZM120 303 q-40 -16 -48 -22 q-8 -6 -6 -17 q1 -11 25 -11 q15 -1 83 3.5 q68 4.5 84 14 q16 9.5 16 22.5 q-1 5 -6.5 12.5 q-5.5 7.5 -41.5 15.5 q-2 -1 -13.5 -19 q-11.5 -18 -54.5 -17 q-18 0 -26.5 3.5 q-8.5 3.5 -9.5 9 q-1 5.5 -2 5.5 ZM206 110 q-19 -3 -37 -3 q-11 -1 -32 2 q-1 -8 -0.5 -27.5 q0.5 -19.5 3 -30 q2.5 -10.5 3 -12.5 q0.5 -2 -0.5 -3 q-2 -3 -4 -3 l-6 0 q-9 -1 -8 -12 q0 -6 5.5 -18 q5.5 -12 25.5 -22.5 q20 -10.5 31 -9.5 q10 0 17 12.5 q7 12.5 7.5 43.5 q0.5 31 0.5 33 q-1 13 -5 50 ZM128 308 q0 -3 4 -9.5 q4 -6.5 27.5 -6 q23.5 0.5 32.5 4 q9 3.5 14 11.5 q5 8 5 16 q-1 10 -10 15 q-9 5 -19 6 q-12 0 -29 -7 q-17 -7 -21.5 -17 q-4.5 -10 -3.5 -13 ZM247 32 q15 -1 21.5 11 q6.5 12 6.5 27 q-1 25 -11 31 q-10 6 -23 7 q-22 1 -21 -31 q0 -45 27 -45 ZM317 197 l-22 -112 q-8 -37 -23 -55 l-23 -26 q-6 -9 -5 -18 q0 -6 5 -15 q5 -9 26 -8 q8 0 17 3.5 q9 3.5 29 34 q20 30.5 24 54.5 l7 51 q3 26 10.5 46.5 q7.5 20.5 8 26.5 q0.5 6 1 7.5 q0.5 1.5 1 3 q0.5 1.5 -18.5 3.5 l-29 4 l-8 0 l0 0 ZM271 240 q-1 -13 13 -21 q14 -8 33 -15 q19 -7 89 -5 q39 0 39.5 13 q0.5 13 -2.5 20 q-10 20 -54 33 q-44 13 -84 11 q-20 -2 -27 -14 q-7 -12 -7 -22 ZM321 283 l51 -6 q0 5 -0.5 11 q-0.5 6 -2 17 q-1.5 11 -10.5 23.5 q-9 12.5 -23.5 13 q-14.5 0.5 -14 -10 q0.5 -10.5 0.5 -11.5 l-1 -25 l0 -12 l0 0 ZM359 102 l-8 -61 q-1 -1 0 -8 l0 -6 q0 -2 1 -13 q1 -11 3 -14 l4 -8 q10 -26 42 -6 q27 16 42 41.5 q15 25.5 14 39.5 q-2 13 -15 14 q-4 0 -5 -1 q-1 -1 -10.5 -12 q-9.5 -11 -18.5 -3 q-7 4 -6 12 l5 32 q1 6 1 12 l-1 17 q-1 2 -0.5 11.5 q0.5 9.5 -2.5 15.5 q-5 7 -13 7 q-9 -1 -14.5 -7.5 q-5.5 -6.5 -11.5 -34 q-6 -27.5 -6 -28.5 ZM429 267 q10 0 10 11 q-1 10 -8 18 q-7 8 -20.5 16 q-13.5 8 -20.5 7 q-4 -1 -7 -5 q-3 -4 -1 -6 q0 -1 0.5 -1.5 q0.5 -0.5 3.5 -13 q3 -12.5 20 -20 q17 -7.5 23 -6.5 Z" /><glyph glyph-name="" unicode="&#x770b;" d="M229 99 q0 3 2.5 9.5 q2.5 6.5 33.5 9.5 q31 3 42 3 q48 -4 47 -23 q-2 -18 -44 -20 q-83 -4 -81 21 ZM229 53 q0 0 2.5 6.5 q2.5 6.5 27.5 8.5 l57 0 q37 0 36 -14 q-2 -25 -68 -23 q-56 1 -55 22 ZM236 8 q0 7 8 12 q8 5 66 5 q33 -1 33.5 -8.5 q0.5 -7.5 -0.5 -9.5 q-3 -5 -14.5 -11 q-11.5 -6 -32.5 -5 q-39 0 -49.5 3.5 q-10.5 3.5 -11 7 q-0.5 3.5 0.5 6.5 ZM57 254 q-4 1 -4.5 2.5 q-0.5 1.5 -1 5 q-0.5 3.5 4.5 11.5 q17 30 81.5 63.5 q64.5 33.5 128.5 34.5 q79 0 128.5 -38.5 q49.5 -38.5 56.5 -51 q7 -12.5 6 -13.5 l-4 -5 q21 -22 22 -34 l0 -1 l-4 -13 q0 -1 6.5 -6.5 q6.5 -5.5 10 -14 q3.5 -8.5 3.5 -16.5 q-2 -23 -32 -35 q16 -12 20.5 -20.5 q4.5 -8.5 5.5 -24 q1 -15.5 -16 -43.5 q-22 -35 -78 -78 q-56 -43 -126 -42 q-58 0 -100.5 27 q-42.5 27 -56.5 43.5 q-14 16.5 -18 26.5 l-10 22 q-2 1 -22.5 11.5 q-20.5 10.5 -30 28.5 q-9.5 18 -9.5 31 q0 3 2 11 q2 8 3 10 l12 15 q-1 0 -5.5 7 q-4.5 7 -5 16 q-0.5 9 4.5 15 l12 15 l-2 10 q-1 0 0 1 q0 12 18 29 ZM259 167 l-76 -2 q-17 -1 -37.5 0.5 q-20.5 1.5 -28.5 1.5 q-6 -1 -12 -4 l-30 -11 q-27 -12 -26 -33 q0 -8 6.5 -19.5 q6.5 -11.5 26.5 -11.5 q5 -1 14 1 q9 2 12 4 l9 14 q3 5 19.5 15 q16.5 10 42.5 16 l60 13 l20 16 ZM166 174 l113 2 l103 -4 q60 -3 66.5 2 q6.5 5 8.5 8.5 q2 3.5 2.5 5.5 q0.5 2 -1.5 7 q-12 19 -62 25 l-60 7 l-81 5 q-6 0 -71.5 -2 q-65.5 -2 -86.5 -9 q-21 -7 -26 -10.5 q-5 -3.5 -9 -10 q-4 -6.5 -4.5 -15.5 q-0.5 -9 28.5 -9 l80 -2 ZM217 281 q-95 -11 -115 -16.5 q-20 -5.5 -25 -13.5 q-5 -8 -4 -10 q1 -13 33 -10 l77 7 l18 1 q6 3 16 42 ZM100 277 l75 12 q8 1 68.5 6.5 q60.5 5.5 105.5 -0.5 l55 -8 q16 -3 19 -1 q4 2 -1 10 q-15 18 -51.5 33 q-36.5 15 -89.5 16 q-35 0 -85.5 -10 q-50.5 -10 -81.5 -29.5 q-31 -19.5 -29 -26.5 q0 -5 15 -2 ZM110 69 q-1 -8 3.5 -25 q4.5 -17 15.5 -29 q11 -12 49 -32.5 q38 -20.5 89 -19.5 q75 0 116 28 q41 28 50 44.5 q9 16.5 13 37 q4 20.5 -1 30.5 q-4 6 -35 23 q-31 17 -107 18 q-26 0 -85.5 -5.5 q-59.5 -5.5 -77.5 -19 q-18 -13.5 -24 -29.5 q-6 -16 -6 -21 ZM213 240 l79 -1 l4 -1 q1 -1 3 11 q0 2 2.5 10 q2.5 8 3.5 13 l0 13 q0 3 -0.5 4.5 q-0.5 1.5 -4.5 2.5 l-8 -1 q-1 -1 -3 -0.5 q-2 0.5 -15 0.5 q-5 -1 -10.5 -0.5 q-5.5 0.5 -6.5 0.5 l-24 -2 l-1 0 q-7 -1 -8 -5 q-1 -1 1 -10 l-7 -19 l-5 -15 l0 0 ZM306 241 l99 -10 q34 -4 35.5 -1 q1.5 3 1.5 6 q-2 9 -27.5 27 q-25.5 18 -101.5 18 q-3 -23 -4 -29 l-3 -11 l0 0 Z" /><glyph glyph-name="" unicode="&#x53ef;" d="M155 148 q-1 9 5 19.5 q6 10.5 42 9.5 q20 -1 26.5 -5 q6.5 -4 11.5 -12.5 q5 -8.5 5 -16.5 q-1 -24 -38 -24 q-25 -1 -38.5 7 q-13.5 8 -13.5 22 ZM80 222 q-20 4 -24 9.5 q-4 5.5 -4.5 11 q-0.5 5.5 4.5 14.5 q9 17 61 63.5 q52 46.5 146 47.5 q109 0 159.5 -53.5 q50.5 -53.5 51.5 -62.5 q1 -9 1 -10 q-1 -6 -9.5 -15 q-8.5 -9 -8.5 -6 q0 -2 2.5 -6.5 q2.5 -4.5 7 -18 q4.5 -13.5 5 -21.5 q0.5 -8 0.5 -19 q-2 -39 -9.5 -79 q-7.5 -40 -54 -90 q-46.5 -50 -97.5 -49 q-49 0 -64.5 24.5 q-15.5 24.5 -14.5 46.5 l0 11 q-27 -4 -92.5 18.5 q-65.5 22.5 -81 48.5 q-15.5 26 -19.5 37.5 q-4 11.5 -4 28 q0 16.5 7.5 31 q7.5 14.5 16.5 22.5 l15 11 l6 5 l0 0 ZM242 56 q60 0 72.5 18.5 q12.5 18.5 18 31 q5.5 12.5 7.5 20.5 q2 8 2.5 24 q0.5 16 -7.5 33 q-10 17 -31 32 q-21 15 -102 15 q-49 -1 -82 -18.5 q-33 -17.5 -41.5 -31.5 q-8.5 -14 -9 -25 q-0.5 -11 0.5 -14 q0 -17 23.5 -52 q23.5 -35 148.5 -33 ZM206 252 l68 2 l120 -4 q39 -2 47.5 4 q8.5 6 -2.5 22 q-15 19 -57.5 43.5 q-42.5 24.5 -116.5 24.5 q-74 -1 -122.5 -26.5 q-48.5 -25.5 -55.5 -38 q-7 -12.5 -6 -17.5 q0 -5 5 -10 q5 -5 44 -3 l76 3 ZM322 -35 q63 1 85 50 q22 49 26.5 72 q4.5 23 5.5 70.5 q1 47.5 -12 68.5 q-13 20 -41 20 q-26 -1 -35 -11 q-9 -10 -9.5 -20 q-0.5 -10 0.5 -14 q0 -9 3.5 -32 q3.5 -23 4 -26.5 q0.5 -3.5 -0.5 -9.5 q-4 -19 -12 -41 q-8 -22 -9.5 -25 q-1.5 -3 -7.5 -7 l-37 -18 q-10 -6 -14.5 -13.5 q-4.5 -7.5 -5 -15.5 q-0.5 -8 0.5 -10 q1 -19 20.5 -29 q19.5 -10 37.5 -9 Z" /><glyph glyph-name="" unicode="&#x6765;" d="M454 95 q14 -11 14.5 -26.5 q0.5 -15.5 -8.5 -32.5 q-12 -21 -42.5 -49 q-30.5 -28 -41 -32.5 q-10.5 -4.5 -21.5 -4.5 q-13 -1 -19.5 5.5 q-6.5 6.5 -15.5 23.5 q-20 -28 -36 -40 q-16 -12 -37 -12 q-12 -1 -29.5 5.5 q-17.5 6.5 -29 20.5 q-11.5 14 -13.5 14.5 q-2 0.5 -13.5 -8 q-11.5 -8.5 -36.5 7.5 q-30 17 -59.5 49.5 q-29.5 32.5 -29.5 59.5 q-1 6 2 11 l8 16 q-1 1 -11.5 10.5 q-10.5 9.5 -11.5 28 q-1 18.5 0 22.5 q1 2 11 11.5 q10 9.5 10 12.5 l-7 11 q-2 2 -2.5 6 q-0.5 4 6.5 20 q1 4 3 6 l10 13 l-3 4 q-2 2 -2.5 6 q-0.5 4 5.5 14 q19 32 41.5 46.5 q22.5 14.5 54.5 28.5 q32 14 45.5 13.5 q13.5 -0.5 16.5 2.5 q0 0 1 1 l10 11 q9 8 25 8 q8 -1 16 -3.5 q8 -2.5 15 -7.5 l14 -12 q2 -2 29 -4 q27 -2 59 -22.5 q32 -20.5 45 -31.5 q13 -11 20.5 -24 q7.5 -13 8.5 -14 l0 -1 l-1 -12 l14 -18 q5 -8 6 -20 q0 -6 -5.5 -16.5 q-5.5 -10.5 -4.5 -10.5 q0 -1 11 -8 q11 -7 11 -29 q-1 -11 -4 -17.5 q-3 -6.5 -28 -32.5 ZM245 96 l76 2 q55 1 82.5 8 q27.5 7 34 12 q6.5 5 11 13.5 q4.5 8.5 5 12.5 q0.5 4 -0.5 8 q-9 22 -88.5 31.5 q-79.5 9.5 -128.5 8.5 l-78 -2 q-15 -1 -59 -11 q-44 -10 -44.5 -24 q-0.5 -14 3.5 -20 q10 -21 51 -29.5 q41 -8.5 75 -8.5 l61 -1 ZM137 -15 q8 -1 13 2 q5 3 11.5 14 q6.5 11 7.5 15 q1 4 4 19.5 q3 15.5 3 21.5 q-2 7 -8.5 17.5 q-6.5 10.5 -16 16.5 q-9.5 6 -30.5 7 q-24 0 -31.5 -5 q-7.5 -5 -17 -16 q-9.5 -11 -10 -17.5 q-0.5 -6.5 0.5 -6.5 q0 -12 19.5 -39 q19.5 -27 54.5 -29 ZM115 196 q75 0 75 33 q-1 4 -2.5 10.5 q-1.5 6.5 -6 13.5 q-4.5 7 -32.5 7 q-61 -1 -71.5 -17 q-10.5 -16 -9.5 -21 q0 -8 11.5 -17.5 q11.5 -9.5 35.5 -8.5 ZM203 271 q0 7 1.5 20.5 q1.5 13.5 11.5 41.5 q-57 -7 -93.5 -22.5 q-36.5 -15.5 -41 -25.5 q-4.5 -10 -5 -13.5 q-0.5 -3.5 0.5 -3.5 q4 -6 28 -4 l98 7 ZM307 90 q-29 -3 -48 -3 q-8 -1 -31.5 0 q-23.5 1 -25 2 q-1.5 1 -1.5 0 q-1 -1 -0.5 -1.5 q0.5 -0.5 0 -1 q-0.5 -0.5 0.5 -2.5 l0 -19 l2 -26 q1 -29 3 -39 q2 -10 13.5 -27.5 q11.5 -17.5 30.5 -16.5 q11 0 31 11.5 q20 11.5 23 46.5 q3 35 3 63 l0 4 q-1 8 0 9 ZM203 198 q16 2 33 2 q13 -1 36 -2.5 q23 -1.5 37 -0.5 l-8 85 q-5 48 -23.5 58.5 q-18.5 10.5 -28.5 11.5 q-16 0 -24.5 -12.5 q-8.5 -12.5 -15.5 -62.5 q-7 -50 -6 -69 l0 -10 l0 0 ZM296 330 q6 -17 8 -25 l3 -17 q1 -8 0.5 -13.5 q-0.5 -5.5 1.5 -5.5 q0 -1 1.5 -0.5 q1.5 0.5 2.5 0.5 q4 -1 33.5 -3.5 q29.5 -2.5 67.5 -1.5 q17 0 8 16 q-22 36 -74 42.5 q-52 6.5 -52 7.5 ZM330 211 q-1 -3 1.5 -7 q2.5 -4 9.5 -7.5 q7 -3.5 46 -4.5 q40 -2 48.5 14 q8.5 16 2.5 28 q-11 19 -54 19 q-23 -1 -28.5 -4 q-5.5 -3 -15.5 -15 q-10 -12 -10 -23 ZM371 -21 q35 0 54.5 31.5 q19.5 31.5 19.5 42.5 q-1 5 -4.5 11 q-3.5 6 -22.5 17 q-19 11 -36 12 q-28 0 -40 -18 l-6 -16 q-8 -19 -3 -23 q0 -1 -1 -5 q-1 -4 4 -13 q7 -16 9 -21.5 q2 -5.5 6.5 -12 q4.5 -6.5 19.5 -5.5 Z" /><glyph glyph-name="" unicode="&#x91cc;" d="M440 137 q11 -12 12.5 -15.5 q1.5 -3.5 1.5 -9.5 q-1 -17 -4.5 -24 q-3.5 -7 -28.5 -28 q27 -4 31.5 -7 q4.5 -3 5 -9.5 q0.5 -6.5 -3.5 -14.5 q-6 -10 -34 -33 l-23 -20 q-49 -38 -135 -38 q-51 -1 -80 8.5 q-29 9.5 -74.5 34 q-45.5 24.5 -54 44.5 q-8.5 20 -9 24.5 q-0.5 4.5 1.5 7.5 q1 2 19 13 q-8 4 -11.5 8 q-3.5 4 -6.5 11.5 q-3 7.5 -3.5 18 q-0.5 10.5 2.5 15.5 l8 8 l6 6 q-30 23 -34.5 35.5 q-4.5 12.5 -4.5 28 q0 15.5 14 41.5 q11 19 43.5 50 q32.5 31 71 53.5 q38.5 22.5 102.5 22.5 q58 -1 100.5 -24.5 q42.5 -23.5 78 -56 q35.5 -32.5 47 -51.5 q11.5 -19 11.5 -37 q-1 -15 -9.5 -29 q-8.5 -14 -39.5 -33 ZM198 144 q0 5 -0.5 10.5 q-0.5 5.5 0.5 8.5 q0 13 2 28 q-16 -5 -31 -5 q-34 -3 -40.5 8.5 q-6.5 11.5 -5.5 17.5 q0 5 6.5 17.5 q6.5 12.5 41.5 11.5 q13 -1 31 -5 l0 39 q-32 -10 -53 -8 q-12 0 -14.5 4 q-2.5 4 -3 7 q-0.5 3 3.5 8 q21 31 112 30 q81 -1 104 -14 q23 -13 23.5 -18.5 q0.5 -5.5 -0.5 -6.5 q-4 -6 -15 -6 q-13 -1 -47 8 l4 -42 q16 5 29 6 q28 0 36.5 -13 q8.5 -13 8.5 -18 q-1 -5 -6.5 -15 q-5.5 -10 -34.5 -10 q-17 -1 -34 10 l3 -54 l68 9 q47 6 58 25.5 q11 19.5 11.5 32.5 q0.5 13 -9.5 32 q-10 16 -53 58 q-43 42 -146 44 q-66 0 -112.5 -27.5 q-46.5 -27.5 -63 -55.5 q-16.5 -28 -15.5 -47 q0 -15 8.5 -30.5 q8.5 -15.5 30.5 -24.5 q22 -9 41 -10 l61 -5 l1 0 ZM296 30 l-93 1 l-79 6 q-41 3 -42 3 q-3 -1 -4.5 -1.5 q-1.5 -0.5 -2 -2 q-0.5 -1.5 -1 -4 q-0.5 -2.5 3.5 -7.5 q9 -17 29 -26.5 q20 -9.5 46.5 -20.5 q26.5 -11 97.5 -10 q121 1 147 24.5 q26 23.5 26.5 26.5 q0.5 3 0.5 5 q-1 10 -24 10 l-105 -4 ZM197 59 q-1 8 -1.5 13 q-0.5 5 -0.5 7 q-1 0 0 1 l1 34 q-1 3 -2 4.5 q-1 1.5 -6 2.5 l-31 3 q-4 0 -10 0 q-53 -2 -58.5 -11.5 q-5.5 -9.5 -6 -13.5 q-0.5 -4 2.5 -8 q5 -12 19.5 -18 q14.5 -6 53.5 -10.5 q39 -4.5 39 -3.5 ZM207 36 l68 1 q26 0 26.5 0.5 q0.5 0.5 2 10 q1.5 9.5 2.5 14.5 q1 5 1 31 l0 13 l-1 63 l-4 113 l-1 18 q0 5 -1 7 q-2 1 -7 2 q-7 0 -27 1 l-11 0 q-11 0 -16 -1 q-5 -1 -13 -0.5 q-8 0.5 -8 -5.5 l-10 -87 l-1 -98 l0 -82 ZM314 57 q14 0 23 -0.5 q9 -0.5 13 0.5 q27 1 45.5 13 q18.5 12 19 22 q0.5 10 -1.5 14 q-5 7 -19.5 12 q-14.5 5 -30.5 7 l-36 2 l-9 1 q-1 -9 -0.5 -16 q0.5 -7 0.5 -9 l-2 -22 l-1 -14 l-1 -10 l0 0 Z" /><glyph glyph-name="" unicode="&#x8bba;" d="M481 197 q10 -12 10.5 -24 q0.5 -12 -2.5 -20 q-6 -16 -23 -32 q15 -13 21 -26.5 q6 -13.5 -9 -41.5 q-11 -20 -59 -70.5 q-48 -50.5 -118 -49.5 q-47 0 -83 32 q-23 -20 -35 -20 q-17 -2 -41 12 q-24 14 -49 40.5 q-25 26.5 -32.5 47.5 q-7.5 21 -11 41.5 q-3.5 20.5 -1.5 29.5 q2 9 2 11 q-1 1 -13 9 q-12 8 -17 19 q-5 11 -5 20.5 q0 9.5 1 15.5 q1 8 9 23.5 q8 15.5 22.5 24 q14.5 8.5 15.5 12.5 l0 8 q0 3 4 14.5 q4 11.5 21 32.5 q17 21 42 40 q25 19 45 18 q7 -1 12 -4 q5 -3 12.5 -14.5 q7.5 -11.5 13.5 -11.5 q1 -1 9 2 l20 5 q3 1 7 4 l28 23 q7 5 18 5 q17 -1 32 -6.5 q15 -5.5 27 -16.5 l32 -34 l46 -23 q28 -16 43.5 -40.5 q15.5 -24.5 15.5 -35.5 q-1 -10 -10 -20 ZM163 116 l2 58 q0 0 0 6 l0 8 q-1 7 -3 22.5 q-2 15.5 -8.5 26 q-6.5 10.5 -24.5 10.5 q-34 -1 -53.5 -13 q-19.5 -12 -26 -22.5 q-6.5 -10.5 -7 -19.5 q-0.5 -9 6.5 -18 q3 -5 7 -7 l22 -10 q0 -3 1 -11 l-1 -17 q-2 -23 4 -55 q2 -17 9.5 -41.5 q7.5 -24.5 34 -41 q26.5 -16.5 38.5 -15.5 q21 1 29.5 24 q8.5 23 9 33 q0.5 10 -3.5 16 q-3 3 -7 6 l-21 7 q-7 4 -8 13 q-1 9 -1 17 l1 24 l0 0 ZM119 256 q38 0 45 10.5 q7 10.5 12 24 q5 13.5 5 17.5 q-1 6 -6.5 15.5 q-5.5 9.5 -19.5 10.5 q-18 0 -34.5 -15.5 q-16.5 -15.5 -21 -23.5 q-4.5 -8 -5 -14.5 q-0.5 -6.5 0.5 -7.5 q0 -18 24 -17 ZM232 201 q34 1 69.5 19.5 q35.5 18.5 46 37 q10.5 18.5 11 27 q0.5 8.5 -1.5 16.5 q-12 40 -43 41 q-8 0 -11.5 -2 q-3.5 -2 -5.5 -3 l-26 -25 q-11 -8 -23 -10 l-30 -3 q-26 -6 -34 -21 q-8 -15 -8.5 -21 q-0.5 -6 0.5 -7 q0 -6 10 -28.5 q10 -22.5 46 -20.5 ZM206 98 q0 -56 13 -77.5 q13 -21.5 32 -39 q19 -17.5 49 -17.5 q7 -1 36.5 3 q29.5 4 48.5 14.5 q19 10.5 44 36.5 q25 26 25 52 q-1 8 -7.5 19.5 q-6.5 11.5 -27.5 11.5 q-10 -1 -17 -5 q-7 -4 -10 -8 l-15 -24 q-12 -15 -31 -14 q-27 0 -33 10.5 q-6 10.5 -9 24.5 q-3 14 -3.5 16.5 q-0.5 2.5 0.5 4.5 l3 40 q0 3 0 7 l-2 28 q-1 13 -5.5 18 q-4.5 5 -8.5 5 l-29 -7 q-30 -6 -37 -10 q-7 -4 -12 -33.5 q-5 -29.5 -4 -55.5 ZM343 94 q34 -2 73.5 21 q39.5 23 39.5 49 q-1 10 -8 21.5 q-7 11.5 -29 11.5 q-85 -4 -96 -34.5 q-11 -30.5 -11.5 -37 q-0.5 -6.5 0.5 -7.5 q0 -12 9.5 -18 q9.5 -6 21.5 -6 ZM365 304 q0 -7 -0.5 -18.5 q-0.5 -11.5 -3.5 -19.5 l-7 -13 q-1 -3 -1.5 -4.5 q-0.5 -1.5 1.5 -3.5 q4 -11 26 -22.5 q22 -11.5 42 -10.5 q16 0 26.5 5.5 q10.5 5.5 11 14 q0.5 8.5 -3.5 16.5 q-5 6 -16 15.5 q-11 9.5 -19 14.5 l-39 16 q-17 9 -17 10 Z" /><glyph glyph-name="" unicode="&#x4e48;" d="M328 319 q17 2 25 2 q39 -1 72.5 -27 q33.5 -26 40 -40.5 q6.5 -14.5 7 -29.5 q0.5 -15 -8.5 -28 q-5 -8 -9.5 -11 q-4.5 -3 -36.5 -22 q49 -22 56 -49 q7 -27 7.5 -41 q0.5 -14 -10.5 -33 q-6 -10 -13.5 -19 q-7.5 -9 -32.5 -32 q-25 -23 -36 -28 q-11 -5 -24 -5 q-8 -1 -12 2 l-17 9 q-1 -1 -4 -2.5 q-3 -1.5 -42.5 -15.5 q-39.5 -14 -72.5 -12 q-78 2 -127 55.5 q-49 53.5 -50 79.5 q-2 23 23 52 q-28 19 -32 28 q-4 9 -4 20 q0 14 8.5 31 q8.5 17 50.5 60.5 q42 43.5 95 75 q53 31.5 83 30.5 q28 -2 44 -18.5 q16 -16.5 20 -31.5 ZM154 178 l77 54 q57 40 62.5 52.5 q5.5 12.5 5.5 20.5 q-1 9 -7.5 20.5 q-6.5 11.5 -25.5 12.5 q-24 1 -91 -38 q-67 -39 -88 -72 q-21 -33 -20 -46 q0 -8 4 -14.5 q4 -6.5 7.5 -9 q3.5 -2.5 17.5 -1.5 q14 0 33 8.5 q19 8.5 25 12.5 ZM349 6 q-2 5 -2 8 l-4 11 q-1 0 -4 20 l-3 14 l-1 8 q-38 -10 -68.5 -10.5 q-30.5 -0.5 -35.5 4.5 q-2 1 -3 3 l-7 11 q-5 6 -4.5 8 q0.5 2 5 10 q4.5 8 21.5 18 l57 34 l96 49 q30 15 37.5 26 q7.5 11 7.5 22 q-1 8 -6 17 q-5 9 -21 18.5 q-16 9.5 -35 9.5 q-20 -1 -70.5 -22.5 q-50.5 -21.5 -85.5 -49.5 l-49 -39 q-5 -4 -20 -18 l-29 -26 q-18 -16 -24 -25 q-6 -9 -15.5 -28 q-9.5 -19 -8.5 -29 q0 -14 12 -29.5 q12 -15.5 40.5 -32 q28.5 -16.5 83.5 -15.5 q25 0 52.5 5 q27.5 5 83.5 28 ZM382 -11 q35 0 50 25.5 q15 25.5 15.5 42 q0.5 16.5 -10.5 36.5 q-14 22 -30 31.5 q-16 9.5 -27 9.5 q-9 -1 -19.5 -5.5 q-10.5 -4.5 -15 -9 q-4.5 -4.5 -3.5 -25.5 l0 -9 q0 -58 14.5 -77.5 q14.5 -19.5 25.5 -18.5 Z" /><glyph glyph-name="" unicode="&#x4eec;" d="M288 -25 q-4 -7 -15 -22.5 q-11 -15.5 -20 -19.5 q-9 -4 -23 -4 q-36 -2 -59 41 q-2 -7 -4 -10 q-2 -3 -10.5 -6 q-8.5 -3 -12.5 -3 q-22 -1 -56.5 37 q-34.5 38 -44.5 55.5 q-10 17.5 -15 35.5 q-5 18 -6 28.5 q-1 10.5 1 43.5 q0 11 1 15 q1 4 2 5 l-11 17 q-3 5 -3 17 q0 8 3 24 q3 16 63.5 79 q60.5 63 100.5 62 q3 -1 6 -1 l11 -7 q0 -1 15.5 7 q15.5 8 23.5 8 q2 -1 12 -2 q10 -1 15 -3 l21 -17 l20 8 q2 0 6 1 q20 1 63.5 -26 q43.5 -27 77 -85 q33.5 -58 32.5 -112 q-2 -40 -19.5 -74 q-17.5 -34 -62 -78 q-44.5 -44 -76.5 -44 q-26 -1 -36 30 ZM64 196 q33 3 54.5 20 q21.5 17 43 52 q21.5 35 19.5 56 q-3 19 -17 20 q-21 0 -55.5 -28.5 q-34.5 -28.5 -50.5 -56.5 q-16 -28 -16.5 -36.5 q-0.5 -8.5 0.5 -8.5 q0 -5 5 -12.5 q5 -7.5 17 -5.5 ZM143 228 q-46 -39 -64 -40 l-22 -1 q-3 -3 -4 -11 q-1 -8 -2.5 -19 q-1.5 -11 -2 -33 q-0.5 -22 7.5 -50 q7 -27 20.5 -50.5 q13.5 -23.5 32 -34.5 q18.5 -11 25.5 -10 q15 0 17.5 21.5 q2.5 21.5 2.5 41.5 l-3 76 l-2 32 q-1 10 -1.5 30.5 q-0.5 20.5 -3 30 q-2.5 9.5 -1.5 11.5 l0 6 l0 0 ZM168 100 q0 -73 19 -104.5 q19 -31.5 42 -31.5 q20 -1 30.5 17 q10.5 18 14.5 63.5 q4 45.5 4.5 58 q0.5 12.5 -0.5 33.5 q-4 52 -19 78 q-15 26 -37 27 q-19 0 -37 -28.5 q-18 -28.5 -17 -105.5 l0 -7 l0 0 ZM186 291 q-1 -18 13.5 -27 q14.5 -9 33.5 -8 q32 1 36.5 12.5 q4.5 11.5 5 26 q0.5 14.5 -0.5 22.5 q-4 17 -17 24.5 q-13 7.5 -22 8.5 q-11 0 -30 -12 q-19 -12 -19 -47 ZM383 163 q0 -32 -6 -55.5 q-6 -23.5 -24 -39.5 l-22 -13 q-7 -6 -13.5 -17.5 q-6.5 -11.5 -7 -26.5 q-0.5 -15 7.5 -25 q8 -13 22 -14 q11 -2 38.5 14.5 q27.5 16.5 45.5 48 q18 31.5 24 55 q6 23.5 6 57.5 q-1 39 -8.5 63.5 q-7.5 24.5 -27 59 q-19.5 34.5 -48.5 51 q-29 16.5 -46 15.5 q-32 -3 -31 -35 q0 -18 7 -27 q7 -9 16 -13 l34 -12 q17 -9 24.5 -29 q7.5 -20 8.5 -57 Z" /><glyph glyph-name="" unicode="&#x9762;" d="M109 138 q-1 33 8 38.5 q9 5.5 18.5 6.5 q9.5 1 12.5 0 q6 -5 8.5 -24 q2.5 -19 2 -43.5 q-0.5 -24.5 0.5 -40.5 q1 -16 -4 -23 q-5 -7 -12 -7 q-22 -2 -27.5 23.5 q-5.5 25.5 -6 34.5 q-0.5 9 -0.5 35 ZM201 179 q0 11 9.5 17 q9.5 6 33.5 7.5 q24 1.5 35 -5.5 q6 -5 6.5 -14 q0.5 -9 -2.5 -14 q-10 -17 -51 -14 q-32 1 -31 23 ZM204 115 q0 17 33 17 q42 -1 45.5 -8 q3.5 -7 3.5 -11 q-1 -24 -25 -24 q-42 -1 -50 6 q-8 7 -7 20 ZM206 44 q1 20 25 19 q40 -3 46.5 -7.5 q6.5 -4.5 7 -11 q0.5 -6.5 -1.5 -9.5 q-8 -13 -32 -12 q-32 0 -38.5 5.5 q-6.5 5.5 -7 10 q-0.5 4.5 0.5 5.5 ZM345 88 l3 51 q1 20 3.5 32 q2.5 12 17.5 12 q25 -1 25.5 -34.5 q0.5 -33.5 0.5 -36.5 q-1 -36 -12 -51.5 q-11 -15.5 -20 -14.5 q-17 0 -18 20 q-1 20 0 22 ZM81 241 q-21 4 -24.5 9 q-3.5 5 -4 11 q-0.5 6 5.5 17 q12 22 59.5 57 q47.5 35 128.5 35 q70 -1 120.5 -28 q50.5 -27 64 -49.5 q13.5 -22.5 13.5 -27.5 q-1 -4 -3.5 -8.5 q-2.5 -4.5 -23.5 -12.5 q43 -25 56.5 -54.5 q13.5 -29.5 14 -51.5 q0.5 -22 -7.5 -44 q-15 -40 -76.5 -99 q-61.5 -59 -146.5 -59 q-56 -1 -89.5 17.5 q-33.5 18.5 -63.5 41.5 q-30 23 -43 39 q-13 16 -25 35.5 q-12 19.5 -15 31.5 q-3 12 -3 29 q0 34 8.5 51 q8.5 17 13 22.5 q4.5 5.5 41.5 37.5 ZM252 -30 q130 5 164 64.5 q34 59.5 34 93.5 q-1 50 -46.5 86 q-45.5 36 -132.5 36 q-121 -1 -144 -13.5 q-23 -12.5 -45 -29 q-22 -16.5 -27 -35.5 q-5 -19 -5.5 -27 q-0.5 -8 0.5 -9 q0 -49 26.5 -82 q26.5 -33 73.5 -60 q47 -27 102 -24 ZM130 278 l99 6 q14 0 72 -2 l65 -4 q13 -1 22 -1 q18 -1 18.5 5 q0.5 6 -0.5 9 q-4 9 -39 26 q-35 17 -123 18 q-85 0 -119.5 -19.5 q-34.5 -19.5 -35 -26 q-0.5 -6.5 1.5 -7.5 q3 -7 39 -4 ZM181 253 q59 5 84.5 4 q25.5 -1 28.5 0 l-3 16 q-1 0 -27 1 q-12 0 -25.5 1 q-13.5 1 -18.5 1 q-8 -1 -14.5 -3 q-6.5 -2 -24.5 -20 Z" /><glyph glyph-name="" unicode="&#x5462;" d="M85 160 q0 35 9.5 49.5 q9.5 14.5 16.5 15.5 q18 0 17.5 -18.5 q-0.5 -18.5 0 -38.5 q0.5 -20 -4.5 -34 q-7 -19 -16 -18 q-9 0 -16.5 10 q-7.5 10 -6.5 34 ZM280 280 q2 20 42 21 q28 0 46 -10.5 q18 -10.5 18 -21.5 q-1 -18 -28 -17 q-64 1 -71.5 12.5 q-7.5 11.5 -6.5 15.5 ZM189 320 q13 16 32.5 31.5 q19.5 15.5 68.5 16.5 q27 0 66.5 -14.5 q39.5 -14.5 77.5 -60.5 q38 -46 38 -65 q-1 -4 -1 -6 l-10 -15 q-1 -1 15 -15 q6 -7 9 -18 q3 -11 3 -19 q-1 -8 -3.5 -17 q-2.5 -9 -29.5 -36 q12 -9 15 -15 q3 -6 3.5 -15 q0.5 -9 -6.5 -22 q-8 -15 -41 -49 q-33 -34 -59.5 -48.5 q-26.5 -14.5 -48.5 -14.5 q-37 -1 -54 32 q-18 -24 -25 -27.5 q-7 -3.5 -14 -3.5 q-13 -1 -31 6 q-18 7 -25.5 17 q-7.5 10 -12.5 11 l-11 -1 l0 0 l-27 9 q-6 2 -13 10 l-35 31 q-13 13 -30.5 45.5 q-17.5 32.5 -17.5 77.5 q0 45 15 79 q14 30 51.5 72.5 q37.5 42.5 71.5 43.5 q7 0 10.5 -2 q3.5 -2 18.5 -18 ZM166 88 l6 76 l3 90 q0 2 -0.5 14 q-0.5 12 -2 23 q-1.5 11 -14 17.5 q-12.5 6.5 -16.5 7.5 q-6 0 -32 -15 q-26 -15 -41 -58.5 q-15 -43.5 -17.5 -58 q-2.5 -14.5 -1.5 -34.5 q0 -42 6.5 -64.5 q6.5 -22.5 21 -47.5 q14.5 -25 37 -37 q22.5 -12 32.5 -1 q2 1 4 10 l15 78 ZM177 110 l-15 -86 q-1 -5 -1.5 -12 q-0.5 -7 6.5 -17 q13 -22 39 -21 q25 0 34 13 q9 13 13 22 q4 9 4 14 q-1 1 -3 9.5 q-2 8.5 -1 34.5 l0 28 q0 10 3 43.5 q3 33.5 12.5 51 q9.5 17.5 20 24 q10.5 6.5 38.5 5.5 l64 -4 q41 -3 47.5 10 q6.5 13 7 20 q0.5 7 -5.5 19 q-10 17 -48.5 48.5 q-38.5 31.5 -90.5 31.5 q-35 -1 -63 -16 q-28 -15 -36.5 -29.5 q-8.5 -14.5 -14 -38 q-5.5 -23.5 -5.5 -37.5 l-5 -113 ZM324 -36 q35 1 67.5 23 q32.5 22 38 32.5 q5.5 10.5 11 23 q5.5 12.5 5.5 20.5 q-1 8 -9.5 13.5 q-8.5 5.5 -19.5 5.5 q-3 -1 -4 -1.5 q-1 -0.5 -6.5 -6.5 q-5.5 -6 -16.5 -11.5 q-11 -5.5 -14 -5.5 q-4 -1 -11 3 q-7 4 -9 7.5 q-2 3.5 -2 7.5 l-2 18 l-12 12 q-5 5 -4 17 q0 8 2 14 l10 28 q-1 3 -9.5 17 q-8.5 14 -9.5 14.5 q-1 0.5 -11 3 q-10 2.5 -17 -1.5 q-16 -10 -27.5 -43.5 q-11.5 -33.5 -12 -63.5 q-0.5 -30 0.5 -31 q0 -19 5 -39.5 q5 -20.5 9 -26 q4 -5.5 18.5 -18 q14.5 -12.5 29.5 -11.5 ZM374 97 q19 0 39.5 10.5 q20.5 10.5 31 29 q10.5 18.5 10.5 32.5 q-2 24 -27 25 q-31 0 -54.5 -18.5 q-23.5 -18.5 -26 -34.5 q-2.5 -16 -3 -19 q-0.5 -3 0.5 -3 q0 -6 5 -14.5 q5 -8.5 24 -7.5 Z" /><glyph glyph-name="" unicode="&#x80fd;" d="M120 151 q-1 5 4.5 14 q5.5 9 27.5 10 q24 0 30 -10.5 q6 -10.5 6.5 -16 q0.5 -5.5 -1.5 -8.5 q-7 -12 -35 -12 q-23 -1 -27.5 8.5 q-4.5 9.5 -4.5 14.5 ZM124 90 q-1 3 3 10 q4 7 24 8 q28 0 35 -10.5 q7 -10.5 7 -14.5 q-1 -9 -7.5 -14 q-6.5 -5 -23.5 -5.5 q-17 -0.5 -27 8.5 q-10 8 -11 18 ZM55 194 q-4 4 -10 10.5 q-6 6.5 -7 10.5 q-1 4 -1.5 12.5 q-0.5 8.5 10.5 28.5 q9 17 50.5 64 q41.5 47 73.5 48.5 q32 1.5 37 -1.5 q1 -2 5.5 -7.5 q4.5 -5.5 6.5 -5.5 l10 -1 l8 -2 q1 -1 12 7.5 q11 8.5 28 9.5 q14 0 22.5 -2.5 q8.5 -2.5 13.5 -5.5 l17 -13 l17 1 q15 0 44 -18 q29 -18 44 -37.5 q15 -19.5 16 -26.5 l0 -2 l-5 -13 q0 -2 10 -7 q10 -5 14.5 -19 q4.5 -14 5.5 -18 q1 -4 1.5 -8.5 q0.5 -4.5 -1.5 -14.5 q-3 -8 -10 -20 l11 -18 q2 -6 2 -16 q-1 -7 -2 -10 l-12 -20 l8 -18 q4 -12 -8 -31 q-34 -52 -84 -81.5 q-50 -29.5 -79 -25.5 q-9 0 -26 8.5 q-17 8.5 -18 8.5 q-3 -1 -15 -13 q-12 -12 -28 -12 q-12 -1 -29 6.5 q-17 7.5 -22.5 15 q-5.5 7.5 -6.5 8.5 q-3 0 -11 -3 q-8 -3 -24 8 q-52 33 -72 70 q-20 37 -20 85 q0 30 5.5 42 q5.5 12 12 18.5 q6.5 6.5 6.5 7.5 ZM124 -8 q6 -1 8.5 3.5 q2.5 4.5 2 22 q-0.5 17.5 0.5 18.5 q6 12 20 12 q13 -1 17 -8 q4 -7 4 -11 q-1 -3 -1.5 -4 q-0.5 -1 -1.5 -2 l-13 -9 q-5 -4 -4 -10 q0 -8 8.5 -21.5 q8.5 -13.5 30.5 -13.5 q10 -1 30 11.5 q20 12.5 24.5 38.5 q4.5 26 5.5 59 q1 33 1 40 q-1 12 -5.5 26 q-4.5 14 -10.5 25 q-6 11 -33 25.5 q-27 14.5 -56 14.5 q-28 -1 -47 -12.5 q-19 -11.5 -29.5 -27.5 q-10.5 -16 -11 -41 q-0.5 -25 0.5 -27 q0 -52 16 -75.5 q16 -23.5 28.5 -28.5 q12.5 -5 15.5 -5 ZM198 235 q-9 15 -10 20 q-1 5 -3 28 q-16 -10 -23 -8 q-9 1 -8 9 q0 8 8 16 l23 16 q9 8 9 17 q-1 7 -12 9 q-9 1 -26 -5.5 q-17 -6.5 -28 -12.5 q-11 -6 -35 -32 q-24 -26 -22 -46 q1 -31 52 -30 q14 0 33.5 4 q19.5 4 24.5 6 l10 6 l7 3 l0 0 ZM193 270 q-1 -25 4.5 -32.5 q5.5 -7.5 20.5 -6.5 q39 2 39.5 28.5 q0.5 26.5 -8.5 43.5 q-12 20 -28 20 q-16 -1 -22 -13 q-6 -12 -6 -40 ZM261 242 q0 -13 12.5 -50.5 q12.5 -37.5 103.5 -37.5 q43 -1 54 18 q11 19 11.5 32 q0.5 13 -6.5 24 q-5 7 -14.5 14 q-9.5 7 -14.5 7 q-3 -1 -6 -2 l-19 -13 q-6 -3 -11 -3 q-10 -1 -24 7 q-14 8 -19 19 q-5 11 -6 21.5 q-1 10.5 -1.5 12 q-0.5 1.5 0.5 2.5 l3 18 q0 0 0 1 q-1 2 -8.5 14.5 q-7.5 12.5 -23.5 12.5 q-17 -1 -24 -12.5 q-7 -11.5 -7.5 -17 q-0.5 -5.5 0.5 -6.5 l2 -24 l-2 -37 l0 0 ZM265 115 l-3 -63 q-1 -4 -0.5 -17.5 q0.5 -13.5 4 -26 q3.5 -12.5 20 -21 q16.5 -8.5 35.5 -8.5 q21 -1 52 9 q31 10 48.5 35.5 q17.5 25.5 16.5 35.5 q-2 13 -18 14 q-7 0 -10.5 -2 q-3.5 -2 -6.5 -4 l-14 -13 q-10 -8 -20 -8 q-9 -1 -17.5 4 q-8.5 5 -11 10.5 q-2.5 5.5 -2.5 10.5 l0 48 q-2 18 -12.5 24.5 q-10.5 6.5 -18.5 7.5 q-11 0 -22.5 -6.5 q-11.5 -6.5 -15.5 -12.5 q-4 -6 -4 -17 ZM371 264 q45 -2 45.5 10.5 q0.5 12.5 -2.5 18.5 q-14 24 -46 24 q-31 -1 -36 -11.5 q-5 -10.5 -5.5 -13.5 q-0.5 -3 0.5 -3 q0 -5 5.5 -12.5 q5.5 -7.5 13.5 -10 q8 -2.5 25 -2.5 ZM355 106 q0 -6 4.5 -14.5 q4.5 -8.5 19.5 -8.5 q5 -1 21 3 q16 4 24 8.5 q8 4.5 13 13 q5 8.5 5 14.5 q-1 3 -4.5 10 q-3.5 7 -19.5 8 q-10 0 -32 -5.5 q-22 -5.5 -27 -13.5 q-5 -8 -4 -15 Z" /></font>
</defs>
</svg>
